<svg width="115" height="106" viewBox="0 0 115 106" fill="none" xmlns="http://www.w3.org/2000/svg">
<rect width="100" height="100" rx="50" fill="#E3E3E5"/>
<path d="M50 18C45.7565 18 41.6869 19.6857 38.6863 22.6863C35.6857 25.6869 34 29.7565 34 34C34 38.2435 35.6857 42.3131 38.6863 45.3137C41.6869 48.3143 45.7565 50 50 50C54.2435 50 58.3131 48.3143 61.3137 45.3137C64.3143 42.3131 66 38.2435 66 34C66 29.7565 64.3143 25.6869 61.3137 22.6863C58.3131 19.6857 54.2435 18 50 18ZM30.036 54C28.9824 53.9953 27.9382 54.1987 26.9635 54.5986C25.9887 54.9985 25.1025 55.587 24.3559 56.3304C23.6092 57.0737 23.0167 57.9572 22.6124 58.9302C22.2081 59.9032 22 60.9464 22 62C22 68.764 25.332 73.864 30.54 77.188C35.668 80.456 42.58 82 50 82C57.42 82 64.332 80.456 69.46 77.188C74.668 73.868 78 68.76 78 62C78 59.8783 77.1571 57.8434 75.6569 56.3431C74.1566 54.8429 72.1217 54 70 54H30.036Z" fill="#1E1E1E"/>
<rect x="75" y="66" width="40" height="40" rx="20" fill="white"/>
<path d="M95 90.6665C96.933 90.6665 98.5 89.0995 98.5 87.1665C98.5 85.2335 96.933 83.6665 95 83.6665C93.067 83.6665 91.5 85.2335 91.5 87.1665C91.5 89.0995 93.067 90.6665 95 90.6665Z" stroke="#1E1E1E" stroke-width="1.5"/>
<path d="M92.4078 96.5001H97.5925C101.234 96.5001 103.055 96.5001 104.363 95.6426C104.927 95.2729 105.413 94.7956 105.793 94.2379C106.667 92.9546 106.667 91.1661 106.667 87.5914C106.667 84.0167 106.667 82.2282 105.793 80.9449C105.413 80.3872 104.927 79.9099 104.363 79.5402C103.523 78.9884 102.47 78.7912 100.859 78.7212C100.09 78.7212 99.4288 78.1496 99.2783 77.4087C99.1633 76.8661 98.8645 76.3798 98.4323 76.032C98.0002 75.6842 97.4612 75.4963 96.9065 75.5001H93.0938C91.9412 75.5001 90.9483 76.2992 90.722 77.4087C90.5715 78.1496 89.91 78.7212 89.1412 78.7212C87.5312 78.7912 86.4788 78.9896 85.6377 79.5402C85.0736 79.91 84.588 80.3873 84.2085 80.9449C83.3335 82.2282 83.3335 84.0156 83.3335 87.5914C83.3335 91.1672 83.3335 92.9534 84.2073 94.2379C84.5853 94.7932 85.0707 95.2704 85.6377 95.6426C86.9455 96.5001 88.7667 96.5001 92.4078 96.5001Z" stroke="#1E1E1E" stroke-width="1.5"/>
<path d="M103.167 83.6665H102" stroke="#1E1E1E" stroke-width="1.5" stroke-linecap="round"/>
</svg>
