<svg width="32" height="32" viewBox="0 0 32 32" fill="none" xmlns="http://www.w3.org/2000/svg">
<path d="M12.8001 19.9332H19.2001L20.3667 23.1665C20.4556 23.4109 20.6112 23.611 20.8334 23.7665C21.0556 23.9221 21.3001 23.9998 21.5667 23.9998C22.0112 23.9998 22.3725 23.8163 22.6507 23.4492C22.929 23.0821 22.9787 22.6767 22.8001 22.2332L17.7334 8.83317C17.6223 8.58873 17.4556 8.38873 17.2334 8.23317C17.0112 8.07762 16.7667 7.99984 16.5001 7.99984H15.5001C15.2334 7.99984 14.989 8.07762 14.7667 8.23317C14.5445 8.38873 14.3779 8.58873 14.2667 8.83317L9.20008 22.2332C9.0223 22.6554 9.06675 23.0554 9.33342 23.4332C9.60008 23.8109 9.95564 23.9998 10.4001 23.9998C10.689 23.9998 10.9392 23.9221 11.1507 23.7665C11.3623 23.611 11.5232 23.3998 11.6334 23.1332L12.8001 19.9332ZM13.6001 17.5998L15.9334 10.9998H16.0667L18.4001 17.5998H13.6001ZM5.33341 29.3332C4.60008 29.3332 3.97253 29.0723 3.45075 28.5505C2.92897 28.0287 2.66764 27.4007 2.66675 26.6665V5.33317C2.66675 4.59984 2.92808 3.97228 3.45075 3.4505C3.97341 2.92873 4.60097 2.66739 5.33341 2.6665H26.6667C27.4001 2.6665 28.0281 2.92784 28.5507 3.4505C29.0734 3.97317 29.3343 4.60073 29.3334 5.33317V26.6665C29.3334 27.3998 29.0725 28.0278 28.5507 28.5505C28.029 29.0732 27.401 29.3341 26.6667 29.3332H5.33341Z" fill="#7F00FF"/>
</svg>
