<svg width="32" height="32" viewBox="0 0 32 32" fill="none" xmlns="http://www.w3.org/2000/svg">
<path d="M18.6666 29.3332C14.9721 29.3332 11.826 28.2515 9.22825 26.0883C6.63047 23.925 5.33214 21.3107 5.33325 18.2455C5.33325 16.7016 5.68047 15.2747 6.37492 13.9648C7.06936 12.6548 8.0277 11.4852 9.24992 10.456L18.6666 2.6665L28.0833 10.456C29.3055 11.4852 30.2638 12.6548 30.9583 13.9648C31.6527 15.2747 31.9999 16.7016 31.9999 18.2455C31.9999 21.3098 30.7016 23.924 28.1049 26.0883C25.5083 28.2525 22.3621 29.3341 18.6666 29.3332ZM18.6666 26.5262V6.59633L11.5833 12.4911C10.611 13.263 9.88214 14.1346 9.39659 15.1058C8.91103 16.077 8.6677 17.1236 8.66659 18.2455C8.66659 20.5145 9.63881 22.4621 11.5833 24.0883C13.5277 25.7145 15.8888 26.5271 18.6666 26.5262Z" fill="#7F00FF"/>
</svg>
