<svg width="70" height="70" viewBox="0 0 70 70" fill="none" xmlns="http://www.w3.org/2000/svg">
<path d="M70 35C70 54.33 54.33 70 35 70C15.67 70 0 54.33 0 35C0 15.67 15.67 0 35 0C54.33 0 70 15.67 70 35ZM7.46163 35C7.46163 50.209 19.791 62.5384 35 62.5384C50.209 62.5384 62.5384 50.209 62.5384 35C62.5384 19.791 50.209 7.46163 35 7.46163C19.791 7.46163 7.46163 19.791 7.46163 35Z" fill="#D9D9D9"/>
<path d="M35 3.73082C35 1.67034 36.675 -0.020569 38.7238 0.198656C42.6957 0.623656 46.5749 1.72653 50.1902 3.46813C54.9287 5.75085 59.0917 9.07218 62.37 13.1852C65.6482 17.2983 67.9573 22.0973 69.1256 27.2256C70.2939 32.3538 70.2914 37.6795 69.1183 42.8066C67.9451 47.9338 65.6315 52.7306 62.3494 56.8406C59.0673 60.9505 54.9011 64.2679 50.1604 66.5462C45.4198 68.8244 40.2267 70.0049 34.967 70C30.9541 69.9962 26.9813 69.3024 23.2198 67.958C21.2795 67.2645 20.5065 65.0134 21.4025 63.1579C22.2985 61.3025 24.5245 60.5513 26.4839 61.1885C29.2186 62.0778 32.0831 62.5356 34.974 62.5384C39.1124 62.5423 43.1984 61.6134 46.9284 59.8209C50.6584 58.0283 53.9364 55.4181 56.5188 52.1844C59.1012 48.9506 60.9216 45.1764 61.8446 41.1423C62.7677 37.1082 62.7696 32.918 61.8504 28.883C60.9312 24.848 59.1143 21.0721 56.535 17.8359C53.9556 14.5997 50.6801 11.9865 46.9518 10.1904C44.3473 8.93572 41.5687 8.10237 38.7195 7.71397C36.6779 7.43567 35 5.79129 35 3.73082Z" fill="#7F00FF"/>
<path d="M30.7822 36.4385V38.126H21.5537L21.4834 36.8516L27.0029 28.2031H28.6992L26.8623 31.3496L23.6895 36.4385H30.7822ZM29.1826 28.2031V41H27.0645V28.2031H29.1826ZM37.8838 28.2031L32.9004 42.0986H31.2393L36.2314 28.2031H37.8838ZM47.7275 28.2031V29.3633L42.6123 41H40.3799L45.4863 29.8906H38.8594V28.2031H47.7275Z" fill="#7F00FF"/>
</svg>
