<svg width="70" height="70" viewBox="0 0 70 70" fill="none" xmlns="http://www.w3.org/2000/svg">
<path d="M70 35C70 54.33 54.33 70 35 70C15.67 70 0 54.33 0 35C0 15.67 15.67 0 35 0C54.33 0 70 15.67 70 35ZM7.46163 35C7.46163 50.209 19.791 62.5384 35 62.5384C50.209 62.5384 62.5384 50.209 62.5384 35C62.5384 19.791 50.209 7.46163 35 7.46163C19.791 7.46163 7.46163 19.791 7.46163 35Z" fill="#D9D9D9"/>
<path d="M35 3.73082C35 1.67034 36.6751 -0.0205933 38.7238 0.198611C45.3178 0.904113 51.6038 3.47268 56.8277 7.64031C63.0277 12.5867 67.3638 19.4923 69.1256 27.2256C70.8874 34.9588 69.9703 43.0612 66.5247 50.205C63.0791 57.3489 57.3092 63.1106 50.1604 66.5462C43.0117 69.9817 34.9081 70.8873 27.1773 69.1146C19.4465 67.3419 12.5471 62.996 7.60947 56.789C2.67184 50.582 -0.0111788 42.8819 3.49818e-05 34.9505C0.00948323 28.2679 1.9311 21.7549 5.49979 16.1654C6.60861 14.4287 8.97544 14.1772 10.5843 15.4645C12.1932 16.7518 12.4288 19.0893 11.3706 20.8573C8.83115 25.1002 7.46872 29.9705 7.46166 34.9611C7.45284 41.2016 9.56386 47.26 13.4488 52.1438C17.3338 57.0275 22.7624 60.4469 28.845 61.8417C34.9277 63.2365 41.3037 62.524 46.9284 59.8209C52.5531 57.1177 57.0929 52.5844 59.804 46.9635C62.515 41.3426 63.2366 34.9676 61.8504 28.883C60.4642 22.7984 57.0525 17.365 52.1742 13.4731C48.2731 10.3607 43.619 8.38181 38.7196 7.71394C36.678 7.43564 35 5.79129 35 3.73082Z" fill="#7F00FF"/>
<path d="M28.3652 28.124H28.6289V29.8555H28.4795C27.7236 29.8555 27.0703 29.9727 26.5195 30.207C25.9746 30.4414 25.5264 30.7637 25.1748 31.1738C24.8232 31.584 24.5596 32.0645 24.3838 32.6152C24.2139 33.1602 24.1289 33.7402 24.1289 34.3555V36.3682C24.1289 36.8779 24.1846 37.3291 24.2959 37.7217C24.4072 38.1084 24.5625 38.4336 24.7617 38.6973C24.9668 38.9551 25.2012 39.1514 25.4648 39.2861C25.7285 39.4209 26.0127 39.4883 26.3174 39.4883C26.6338 39.4883 26.9209 39.4238 27.1787 39.2949C27.4365 39.1602 27.6562 38.9756 27.8379 38.7412C28.0195 38.5068 28.1572 38.2285 28.251 37.9062C28.3447 37.584 28.3916 37.2324 28.3916 36.8516C28.3916 36.4883 28.3447 36.1484 28.251 35.832C28.1631 35.5098 28.0312 35.2285 27.8555 34.9883C27.6797 34.7422 27.46 34.5518 27.1963 34.417C26.9385 34.2764 26.6396 34.2061 26.2998 34.2061C25.8779 34.2061 25.4941 34.3057 25.1484 34.5049C24.8086 34.7041 24.5332 34.9648 24.3223 35.2871C24.1172 35.6035 24.0059 35.9404 23.9883 36.2979L23.1797 36.0342C23.2266 35.4893 23.3467 35 23.54 34.5664C23.7393 34.1328 24 33.7637 24.3223 33.459C24.6445 33.1543 25.0166 32.9229 25.4385 32.7646C25.8662 32.6006 26.335 32.5186 26.8447 32.5186C27.4658 32.5186 28.0049 32.6357 28.4619 32.8701C28.9189 33.1045 29.2969 33.4238 29.5957 33.8281C29.9004 34.2266 30.126 34.6836 30.2725 35.1992C30.4248 35.709 30.501 36.2422 30.501 36.7988C30.501 37.4141 30.4072 37.9883 30.2197 38.5215C30.0322 39.0488 29.7568 39.5117 29.3936 39.9102C29.0361 40.3086 28.5996 40.6191 28.084 40.8418C27.5742 41.0645 26.9941 41.1758 26.3438 41.1758C25.6582 41.1758 25.0459 41.0439 24.5068 40.7803C23.9736 40.5166 23.5195 40.1533 23.1445 39.6904C22.7754 39.2275 22.4941 38.6943 22.3008 38.0908C22.1074 37.4873 22.0107 36.8486 22.0107 36.1748V35.2959C22.0107 34.3232 22.1338 33.4062 22.3799 32.5449C22.626 31.6777 23.0039 30.9131 23.5137 30.251C24.0293 29.5889 24.6885 29.0703 25.4912 28.6953C26.2939 28.3145 27.252 28.124 28.3652 28.124ZM37.8838 28.2031L32.9004 42.0986H31.2393L36.2314 28.2031H37.8838ZM47.7275 28.2031V29.3633L42.6123 41H40.3799L45.4863 29.8906H38.8594V28.2031H47.7275Z" fill="#7F00FF"/>
</svg>
