<svg width="70" height="70" viewBox="0 0 70 70" fill="none" xmlns="http://www.w3.org/2000/svg">
<path d="M70 35C70 54.33 54.33 70 35 70C15.67 70 0 54.33 0 35C0 15.67 15.67 0 35 0C54.33 0 70 15.67 70 35ZM7.46163 35C7.46163 50.209 19.791 62.5384 35 62.5384C50.209 62.5384 62.5384 50.209 62.5384 35C62.5384 19.791 50.209 7.46163 35 7.46163C19.791 7.46163 7.46163 19.791 7.46163 35Z" fill="#D9D9D9"/>
<path d="M35 3.73082C35 1.67034 36.675 -0.020569 38.7238 0.198656C42.6957 0.623656 46.5749 1.72653 50.1902 3.46813C53.8054 5.20974 57.0857 7.55592 59.8937 10.397C61.342 11.8625 61.0638 14.2263 59.4525 15.5106C57.8412 16.7948 55.5095 16.5076 54.0194 15.0846C51.9398 13.0985 49.5563 11.4451 46.9518 10.1904C44.3473 8.93572 41.5687 8.10237 38.7195 7.71397C36.6779 7.43567 35 5.79129 35 3.73082Z" fill="#7F00FF"/>
<path d="M27.75 28.1592V41H25.6318V30.6729L22.4941 31.7363V29.9873L27.4951 28.1592H27.75ZM37.8838 28.2031L32.9004 42.0986H31.2393L36.2314 28.2031H37.8838ZM47.7275 28.2031V29.3633L42.6123 41H40.3799L45.4863 29.8906H38.8594V28.2031H47.7275Z" fill="#7F00FF"/>
</svg>
