<svg width="70" height="70" viewBox="0 0 70 70" fill="none" xmlns="http://www.w3.org/2000/svg">
<path d="M70 35C70 54.33 54.33 70 35 70C15.67 70 0 54.33 0 35C0 15.67 15.67 0 35 0C54.33 0 70 15.67 70 35ZM7.46163 35C7.46163 50.209 19.791 62.5384 35 62.5384C50.209 62.5384 62.5384 50.209 62.5384 35C62.5384 19.791 50.209 7.46163 35 7.46163C19.791 7.46163 7.46163 19.791 7.46163 35Z" fill="#D9D9D9"/>
<path d="M35 3.73082C35 1.67034 36.675 -0.0205785 38.7238 0.198642C44.0036 0.763582 49.103 2.52465 53.6261 5.36779C59.2056 8.87495 63.6816 13.8861 66.539 19.8247C69.3964 25.7633 70.5191 32.3879 69.7779 38.9363C69.0368 45.4847 66.4618 51.6909 62.3494 56.8406C58.237 61.9903 52.7542 65.8743 46.532 68.0456C40.3097 70.217 33.6008 70.5875 27.1773 69.1146C20.7538 67.6416 14.8766 64.3851 10.2221 59.7196C6.44886 55.9374 3.6034 51.3539 1.88453 46.3299C1.21753 44.3804 2.49603 42.3728 4.50546 41.917C6.51489 41.4612 8.48969 42.7338 9.21271 44.6632C10.5841 48.3229 12.7242 51.6627 15.5045 54.4496C19.1667 58.1205 23.7909 60.6828 28.845 61.8417C33.8991 63.0007 39.1777 62.7091 44.0735 61.0006C48.9692 59.2922 53.2831 56.2362 56.5188 52.1844C59.7545 48.1326 61.7805 43.2495 62.3637 38.0971C62.9468 32.9448 62.0635 27.7324 59.8152 23.0599C57.567 18.3874 54.0452 14.4445 49.6552 11.6851C46.3223 9.5901 42.5919 8.24183 38.7195 7.71396C36.6779 7.43566 35 5.79129 35 3.73082Z" fill="#7F00FF"/>
<path d="M24.1904 35.0498L22.5029 34.6367L23.1973 28.2031H30.0967V29.9961H24.9551L24.6035 33.1338C24.8027 33.0166 25.0781 32.9023 25.4297 32.791C25.7812 32.6738 26.1826 32.6152 26.6338 32.6152C27.2373 32.6152 27.7764 32.7148 28.251 32.9141C28.7314 33.1074 29.1387 33.3916 29.4727 33.7666C29.8066 34.1357 30.0615 34.5869 30.2373 35.1201C30.4131 35.6475 30.501 36.2422 30.501 36.9043C30.501 37.4961 30.4131 38.0498 30.2373 38.5654C30.0674 39.0811 29.8096 39.5352 29.4639 39.9277C29.1182 40.3203 28.6816 40.6279 28.1543 40.8506C27.6328 41.0674 27.0146 41.1758 26.2998 41.1758C25.7666 41.1758 25.2539 41.0996 24.7617 40.9473C24.2754 40.7891 23.8389 40.5576 23.4521 40.2529C23.0654 39.9424 22.7549 39.5615 22.5205 39.1104C22.2861 38.6533 22.1514 38.1289 22.1162 37.5371H24.1904C24.2432 37.9531 24.3574 38.3076 24.5332 38.6006C24.7148 38.8877 24.9551 39.1074 25.2539 39.2598C25.5527 39.4121 25.8984 39.4883 26.291 39.4883C26.6484 39.4883 26.9561 39.4268 27.2139 39.3037C27.4717 39.1748 27.6855 38.9932 27.8555 38.7588C28.0312 38.5186 28.1602 38.2373 28.2422 37.915C28.3301 37.5928 28.374 37.2354 28.374 36.8428C28.374 36.4678 28.3242 36.125 28.2246 35.8145C28.1309 35.5039 27.9873 35.2344 27.7939 35.0059C27.6064 34.7773 27.3691 34.6016 27.082 34.4785C26.7949 34.3496 26.4639 34.2852 26.0889 34.2852C25.585 34.2852 25.1982 34.3584 24.9287 34.5049C24.665 34.6514 24.4189 34.833 24.1904 35.0498ZM37.8838 28.2031L32.9004 42.0986H31.2393L36.2314 28.2031H37.8838ZM47.7275 28.2031V29.3633L42.6123 41H40.3799L45.4863 29.8906H38.8594V28.2031H47.7275Z" fill="#7F00FF"/>
</svg>
