<svg width="70" height="70" viewBox="0 0 70 70" fill="none" xmlns="http://www.w3.org/2000/svg">
<path d="M70 35C70 54.33 54.33 70 35 70C15.67 70 0 54.33 0 35C0 15.67 15.67 0 35 0C54.33 0 70 15.67 70 35ZM7.46163 35C7.46163 50.209 19.791 62.5384 35 62.5384C50.209 62.5384 62.5384 50.209 62.5384 35C62.5384 19.791 50.209 7.46163 35 7.46163C19.791 7.46163 7.46163 19.791 7.46163 35Z" fill="#D9D9D9"/>
<path d="M35 3.73082C35 1.67034 36.675 -0.020569 38.7238 0.198656C42.6957 0.623656 46.5749 1.72653 50.1902 3.46813C54.9287 5.75085 59.0917 9.07218 62.37 13.1852C65.6482 17.2983 67.9573 22.0973 69.1256 27.2256C70.017 31.1382 70.2268 35.1657 69.7552 39.1323C69.5119 41.1784 67.49 42.434 65.4814 41.9745C63.4729 41.5149 62.2442 39.5125 62.4282 37.4603C62.6852 34.5962 62.4925 31.7017 61.8504 28.883C60.9312 24.848 59.1143 21.0721 56.535 17.8359C53.9556 14.5997 50.6801 11.9865 46.9518 10.1904C44.3473 8.93572 41.5687 8.10237 38.7195 7.71397C36.6779 7.43567 35 5.79129 35 3.73082Z" fill="#7F00FF"/>
<path d="M30.5449 39.3125V41H21.9668V39.5498L26.1328 35.0059C26.5898 34.4902 26.9502 34.0449 27.2139 33.6699C27.4775 33.2949 27.6621 32.958 27.7676 32.6592C27.8789 32.3545 27.9346 32.0586 27.9346 31.7715C27.9346 31.3672 27.8584 31.0127 27.7061 30.708C27.5596 30.3975 27.3428 30.1543 27.0557 29.9785C26.7686 29.7969 26.4199 29.7061 26.0098 29.7061C25.5352 29.7061 25.1367 29.8086 24.8145 30.0137C24.4922 30.2188 24.249 30.5029 24.085 30.8662C23.9209 31.2236 23.8389 31.6338 23.8389 32.0967H21.7207C21.7207 31.3525 21.8906 30.6729 22.2305 30.0576C22.5703 29.4365 23.0625 28.9443 23.707 28.5811C24.3516 28.2119 25.1279 28.0273 26.0361 28.0273C26.8916 28.0273 27.6182 28.1709 28.2158 28.458C28.8135 28.7451 29.2676 29.1523 29.5781 29.6797C29.8945 30.207 30.0527 30.8311 30.0527 31.5518C30.0527 31.9502 29.9883 32.3457 29.8594 32.7383C29.7305 33.1309 29.5459 33.5234 29.3057 33.916C29.0713 34.3027 28.793 34.6924 28.4707 35.085C28.1484 35.4717 27.7939 35.8643 27.4072 36.2627L24.6387 39.3125H30.5449ZM37.8838 28.2031L32.9004 42.0986H31.2393L36.2314 28.2031H37.8838ZM47.7275 28.2031V29.3633L42.6123 41H40.3799L45.4863 29.8906H38.8594V28.2031H47.7275Z" fill="#7F00FF"/>
</svg>
