<svg width="14" height="14" viewBox="0 0 14 14" fill="none" xmlns="http://www.w3.org/2000/svg">
<path d="M7.00016 2.33341C8.2835 2.33341 9.3335 3.38341 9.3335 4.66675C9.3335 5.89175 8.1085 7.87508 7.00016 9.27508C5.89183 7.81675 4.66683 5.89175 4.66683 4.66675C4.66683 3.38341 5.71683 2.33341 7.00016 2.33341ZM7.00016 1.16675C5.07516 1.16675 3.50016 2.74175 3.50016 4.66675C3.50016 7.29175 7.00016 11.0834 7.00016 11.0834C7.00016 11.0834 10.5002 7.23341 10.5002 4.66675C10.5002 2.74175 8.92516 1.16675 7.00016 1.16675ZM7.00016 3.50008C6.3585 3.50008 5.8335 4.02508 5.8335 4.66675C5.8335 5.30841 6.3585 5.83341 7.00016 5.83341C7.64183 5.83341 8.16683 5.30841 8.16683 4.66675C8.16683 4.02508 7.64183 3.50008 7.00016 3.50008ZM11.6668 11.0834C11.6668 12.3667 9.56683 13.4167 7.00016 13.4167C4.4335 13.4167 2.3335 12.3667 2.3335 11.0834C2.3335 10.3251 3.0335 9.68341 4.14183 9.21675L4.49183 9.74175C3.9085 10.0334 3.50016 10.3834 3.50016 10.7917C3.50016 11.6084 5.07516 12.2501 7.00016 12.2501C8.92516 12.2501 10.5002 11.6084 10.5002 10.7917C10.5002 10.3834 10.0918 10.0334 9.45016 9.74175L9.80016 9.21675C10.9668 9.68341 11.6668 10.3251 11.6668 11.0834Z" fill="#7F00FF"/>
</svg>
