<svg width="14" height="14" viewBox="0 0 14 14" fill="none" xmlns="http://www.w3.org/2000/svg">
<path fill-rule="evenodd" clip-rule="evenodd" d="M6.402 3.64851C6.74381 4.0274 6.63544 4.45665 6.33321 4.86394C6.26156 4.9605 6.17896 5.05565 6.07921 5.16049C6.03133 5.21081 5.99399 5.24866 5.9159 5.32683C5.73854 5.50436 5.58945 5.65353 5.46861 5.77436C5.41002 5.83295 5.81008 6.63239 6.58649 7.40956C7.36248 8.18632 8.16188 8.58666 8.22075 8.52775L8.66773 8.08053C8.91388 7.83414 9.04423 7.71527 9.22335 7.59775C9.59573 7.35345 10.0019 7.28706 10.3445 7.59337C11.4629 8.39343 12.0959 8.88439 12.4059 9.20658C13.0107 9.83499 12.9315 10.8023 12.4094 11.3542C12.2283 11.5455 11.9988 11.7752 11.7276 12.0366C10.0876 13.6775 6.62627 12.6789 3.97356 10.0236C1.32024 7.36766 0.322137 3.90603 1.95877 2.26852C2.25259 1.97008 2.34946 1.87325 2.63562 1.59129C3.1684 1.06633 4.18034 0.984132 4.7955 1.59181C5.11908 1.91145 5.63495 2.57519 6.402 3.64851ZM9.49232 8.9054L9.04526 9.35271C8.28534 10.113 6.99119 9.46493 5.76181 8.23434C4.53159 7.00291 3.8842 5.70924 4.64437 4.94914C4.76504 4.82848 4.91399 4.67944 5.09122 4.50205C5.16272 4.43047 5.19543 4.39732 5.23469 4.35605C5.28818 4.29984 5.33213 4.25046 5.36732 4.20677C4.68753 3.25982 4.22541 2.66812 3.97629 2.42202C3.84763 2.29493 3.55955 2.31833 3.45378 2.42254C3.17171 2.70048 3.079 2.79315 2.78636 3.09036C1.73384 4.14346 2.53958 6.93793 4.79824 9.19881C7.05619 11.459 9.85024 12.2651 10.9108 11.2041C11.1777 10.9467 11.3952 10.7291 11.5626 10.5521C11.6836 10.4242 11.7052 10.1604 11.566 10.0158C11.3343 9.77499 10.7668 9.33256 9.787 8.62894C9.71558 8.68642 9.62779 8.7698 9.49232 8.9054Z" fill="#7F00FF"/>
</svg>
