<svg width="32" height="32" viewBox="0 0 32 32" fill="none" xmlns="http://www.w3.org/2000/svg">
<path d="M26.9719 16.2041H15.7969V5.02907C15.7969 4.89157 15.6844 4.77907 15.5469 4.77907H14.7344C13.0946 4.7774 11.4707 5.09952 9.95575 5.72695C8.4408 6.35438 7.06464 7.27478 5.90625 8.43533C4.76575 9.57233 3.85722 10.9203 3.23125 12.4041C2.58125 13.9447 2.25 15.5791 2.25 17.2666C2.25 18.9541 2.58125 20.5853 3.23125 22.126C3.85938 23.6103 4.75937 24.9478 5.90625 26.0947C7.05312 27.2416 8.3875 28.1416 9.875 28.7697C11.4129 29.4222 13.0669 29.757 14.7375 29.7541C16.3772 29.7558 18.0012 29.4336 19.5161 28.8062C21.0311 28.1788 22.4072 27.2584 23.5656 26.0978C24.7125 24.951 25.6125 23.6166 26.2406 22.1291C26.8931 20.5912 27.2279 18.9372 27.225 17.2666V16.4541C27.2219 16.3166 27.1094 16.2041 26.9719 16.2041ZM29.7187 14.4697L29.6375 13.5884C29.3719 10.7134 28.0969 8.00095 26.0406 5.95407C23.9863 3.90146 21.2792 2.63136 18.3875 2.36345L17.5031 2.2822C17.3562 2.2697 17.2312 2.3822 17.2312 2.52907V14.5197C17.2312 14.6572 17.3438 14.7697 17.4812 14.7697L29.4687 14.7385C29.6156 14.7353 29.7312 14.6135 29.7187 14.4697Z" fill="#66666E"/>
</svg>
