<svg width="32" height="32" viewBox="0 0 32 32" fill="none" xmlns="http://www.w3.org/2000/svg">
<g clip-path="url(#clip0_2497_9166)">
<mask id="mask0_2497_9166" style="mask-type:luminance" maskUnits="userSpaceOnUse" x="0" y="0" width="32" height="32">
<path d="M0 0H32V32H0V0Z" fill="white"/>
<path d="M13.2919 11.5076C13.9811 11.5076 14.535 10.9538 14.535 10.2646C14.535 9.57533 13.9811 9.02148 13.2919 9.02148C12.6027 9.02148 12.0488 9.57533 12.0488 10.2646C12.0488 10.9538 12.6027 11.5076 13.2919 11.5076Z" fill="black"/>
<path fill-rule="evenodd" clip-rule="evenodd" d="M15.7906 14.217C15.7906 12.8877 14.6706 11.9277 13.2921 11.9277C11.9137 11.9277 10.7937 12.8877 10.7937 14.217V14.8447C10.7937 14.9554 10.8429 15.0662 10.9167 15.14C10.9906 15.2139 11.1014 15.2631 11.2121 15.2631H15.3721C15.4829 15.2631 15.5937 15.2139 15.6675 15.14C15.7413 15.0662 15.7906 14.9554 15.7906 14.8447V14.217ZM10.769 17.8477C10.769 17.6029 10.8663 17.3681 11.0394 17.195C11.2125 17.0219 11.4473 16.9247 11.6921 16.9247H20.3075C20.5523 16.9247 20.7871 17.0219 20.9602 17.195C21.1333 17.3681 21.2306 17.6029 21.2306 17.8477C21.2306 18.0926 21.1333 18.3273 20.9602 18.5004C20.7871 18.6736 20.5523 18.7708 20.3075 18.7708H11.6921C11.4473 18.7708 11.2125 18.6736 11.0394 18.5004C10.8663 18.3273 10.769 18.0926 10.769 17.8477ZM10.769 21.54C10.769 21.2952 10.8663 21.0604 11.0394 20.8873C11.2125 20.7142 11.4473 20.617 11.6921 20.617H20.3075C20.5523 20.617 20.7871 20.7142 20.9602 20.8873C21.1333 21.0604 21.2306 21.2952 21.2306 21.54C21.2306 21.7849 21.1333 22.0196 20.9602 22.1928C20.7871 22.3659 20.5523 22.4631 20.3075 22.4631H11.6921C11.4473 22.4631 11.2125 22.3659 11.0394 22.1928C10.8663 22.0196 10.769 21.7849 10.769 21.54Z" fill="black"/>
<path fill-rule="evenodd" clip-rule="evenodd" d="M6.76904 6.77013C6.76904 5.41382 7.87427 4.30859 9.23058 4.30859H17.4644C18.1561 4.30859 18.8084 4.60152 19.2675 5.08521L19.2749 5.09382L24.582 10.8809C25.0238 11.3523 25.2306 11.9689 25.2306 12.5547V25.2317C25.2306 26.588 24.1254 27.6932 22.769 27.6932H9.23058C7.87427 27.6932 6.76904 26.588 6.76904 25.2317V6.77013ZM17.4632 6.77013H9.23058V25.2317H22.769V12.5449L17.4817 6.77875L17.478 6.77752L17.4632 6.77013Z" fill="black"/>
<path fill-rule="evenodd" clip-rule="evenodd" d="M17.4647 4.30859C17.7911 4.30859 18.1041 4.43826 18.3349 4.66908C18.5658 4.89989 18.6954 5.21294 18.6954 5.53936V11.324H24C24.3265 11.324 24.6395 11.4536 24.8703 11.6845C25.1011 11.9153 25.2308 12.2283 25.2308 12.5547C25.2308 12.8812 25.1011 13.1942 24.8703 13.425C24.6395 13.6558 24.3265 13.7855 24 13.7855H17.4647C17.1382 13.7855 16.8252 13.6558 16.5944 13.425C16.3636 13.1942 16.2339 12.8812 16.2339 12.5547V5.53936C16.2339 5.21294 16.3636 4.89989 16.5944 4.66908C16.8252 4.43826 17.1382 4.30859 17.4647 4.30859Z" fill="black"/>
</mask>
<g mask="url(#mask0_2497_9166)">
<path d="M16 32C24.8366 32 32 24.8366 32 16C32 7.16344 24.8366 0 16 0C7.16344 0 0 7.16344 0 16C0 24.8366 7.16344 32 16 32Z" fill="#66666E"/>
</g>
</g>
<defs>
<clipPath id="clip0_2497_9166">
<rect width="32" height="32" fill="white"/>
</clipPath>
</defs>
</svg>
