<svg width="32" height="32" viewBox="0 0 32 32" fill="none" xmlns="http://www.w3.org/2000/svg">
<path fill-rule="evenodd" clip-rule="evenodd" d="M5.56267 4.22868C4 5.79002 4 8.30468 4 13.3327V18.666C4 23.694 4 26.2087 5.56267 27.77C7.12533 29.3313 9.63867 29.3327 14.6667 29.3327H17.3333C22.3613 29.3327 24.876 29.3327 26.4373 27.77C27.9987 26.2073 28 23.694 28 18.666V13.3327C28 8.30468 28 5.79002 26.4373 4.22868C24.8747 2.66735 22.3613 2.66602 17.3333 2.66602H14.6667C9.63867 2.66602 7.124 2.66602 5.56267 4.22868ZM10.6667 12.3327C10.4015 12.3327 10.1471 12.438 9.95956 12.6256C9.77202 12.8131 9.66667 13.0675 9.66667 13.3327C9.66667 13.5979 9.77202 13.8523 9.95956 14.0398C10.1471 14.2273 10.4015 14.3327 10.6667 14.3327H21.3333C21.5986 14.3327 21.8529 14.2273 22.0404 14.0398C22.228 13.8523 22.3333 13.5979 22.3333 13.3327C22.3333 13.0675 22.228 12.8131 22.0404 12.6256C21.8529 12.438 21.5986 12.3327 21.3333 12.3327H10.6667ZM10.6667 17.666C10.4015 17.666 10.1471 17.7714 9.95956 17.9589C9.77202 18.1464 9.66667 18.4008 9.66667 18.666C9.66667 18.9312 9.77202 19.1856 9.95956 19.3731C10.1471 19.5607 10.4015 19.666 10.6667 19.666H17.3333C17.5985 19.666 17.8529 19.5607 18.0404 19.3731C18.228 19.1856 18.3333 18.9312 18.3333 18.666C18.3333 18.4008 18.228 18.1464 18.0404 17.9589C17.8529 17.7714 17.5985 17.666 17.3333 17.666H10.6667Z" fill="#66666E"/>
</svg>
