<svg width="32" height="27" viewBox="0 0 32 27" fill="none" xmlns="http://www.w3.org/2000/svg">
<path fill-rule="evenodd" clip-rule="evenodd" d="M0 4.19013C0 3.26428 0.337142 2.37635 0.937258 1.72168C1.53737 1.06701 2.35131 0.699219 3.2 0.699219H28.8C29.6487 0.699219 30.4626 1.06701 31.0627 1.72168C31.6629 2.37635 32 3.26428 32 4.19013V22.8083C32 23.7342 31.6629 24.6221 31.0627 25.2768C30.4626 25.9314 29.6487 26.2992 28.8 26.2992H3.2C2.35131 26.2992 1.53737 25.9314 0.937258 25.2768C0.337142 24.6221 0 23.7342 0 22.8083L0 4.19013ZM6.4 10.0083C6.4 8.77385 6.84952 7.58995 7.64968 6.71705C8.44983 5.84415 9.53508 5.35376 10.6667 5.35376C11.7983 5.35376 12.8835 5.84415 13.6837 6.71705C14.4838 7.58995 14.9333 8.77385 14.9333 10.0083C14.9333 11.2428 14.4838 12.4267 13.6837 13.2996C12.8835 14.1725 11.7983 14.6629 10.6667 14.6629C9.53508 14.6629 8.44983 14.1725 7.64968 13.2996C6.84952 12.4267 6.4 11.2428 6.4 10.0083ZM25.6 10.0083H19.2V7.68104H25.6V10.0083ZM25.6 16.9901H19.2V14.6629H25.6V16.9901ZM10.6667 16.9901C9.50718 16.9909 8.37076 17.3435 7.38444 18.0085C6.39812 18.6735 5.60079 19.6247 5.0816 20.7557L4.3776 22.287C4.29603 22.4646 4.25748 22.662 4.26564 22.8604C4.27379 23.0588 4.32837 23.2517 4.42418 23.4206C4.51999 23.5895 4.65383 23.7289 4.81298 23.8254C4.97212 23.9219 5.15126 23.9723 5.33333 23.9719H16C16.1819 23.9719 16.3608 23.9212 16.5196 23.8245C16.6785 23.7278 16.812 23.5885 16.9076 23.4196C17.0031 23.2508 17.0575 23.0581 17.0656 22.8598C17.0736 22.6616 17.0351 22.4644 16.9536 22.287L16.2517 20.7557C15.7325 19.6247 14.9352 18.6735 13.9489 18.0085C12.9626 17.3435 11.8261 16.9909 10.6667 16.9901Z" fill="#66666E"/>
</svg>
