<svg width="32" height="32" viewBox="0 0 32 32" fill="none" xmlns="http://www.w3.org/2000/svg">
<path d="M23.9998 9.33268H22.6665V7.99935C22.6665 5.06602 20.2665 2.66602 17.3332 2.66602H14.6665C11.7332 2.66602 9.33317 5.06602 9.33317 7.99935V9.33268H7.99984C5.0665 9.33268 2.6665 11.7327 2.6665 14.666V23.9993C2.6665 26.9327 5.0665 29.3327 7.99984 29.3327H23.9998C26.9332 29.3327 29.3332 26.9327 29.3332 23.9993V14.666C29.3332 11.7327 26.9332 9.33268 23.9998 9.33268ZM13.3332 7.99935C13.3332 7.19935 13.8665 6.66602 14.6665 6.66602H17.3332C18.1332 6.66602 18.6665 7.19935 18.6665 7.99935V9.33268H13.3332V7.99935ZM17.3332 25.3327H14.6665C13.8665 25.3327 13.3332 24.7993 13.3332 23.9993C13.3332 23.1994 13.8665 22.666 14.6665 22.666H17.3332C18.1332 22.666 18.6665 23.1994 18.6665 23.9993C18.6665 24.7993 18.1332 25.3327 17.3332 25.3327Z" fill="#66666E"/>
</svg>
