<?xml version="1.0" encoding="UTF-8"?>
<svg version="1.1" xmlns="http://www.w3.org/2000/svg" width="30" height="30">
<path d="M0 0 C1.31291016 -0.02513672 1.31291016 -0.02513672 2.65234375 -0.05078125 C5.0625 0.3125 5.0625 0.3125 6.87890625 1.58203125 C8.0625 3.3125 8.0625 3.3125 8.0625 7.3125 C8.84625 7.43625 9.63 7.56 10.4375 7.6875 C13.0625 8.3125 13.0625 8.3125 15.0625 10.3125 C15.26146281 13.16527554 15.34074931 15.89917372 15.3125 18.75 C15.32023437 19.52666016 15.32796875 20.30332031 15.3359375 21.10351562 C15.32246806 25.01302168 15.27618645 26.99197032 13.0625 30.3125 C10.58813477 30.68481445 10.58813477 30.68481445 7.50390625 30.67578125 C6.39595703 30.67513672 5.28800781 30.67449219 4.14648438 30.67382812 C2.98439453 30.65771484 1.82230469 30.64160156 0.625 30.625 C-1.11233398 30.62983398 -1.11233398 30.62983398 -2.88476562 30.63476562 C-11.53705495 30.57946337 -11.53705495 30.57946337 -14.9375 28.3125 C-15.32568359 26.48071289 -15.32568359 26.48071289 -15.3359375 24.28515625 C-15.33980469 23.49302734 -15.34367188 22.70089844 -15.34765625 21.88476562 C-15.33605469 21.05654297 -15.32445312 20.22832031 -15.3125 19.375 C-15.32410156 18.55064453 -15.33570313 17.72628906 -15.34765625 16.87695312 C-15.34378906 16.08353516 -15.33992187 15.29011719 -15.3359375 14.47265625 C-15.33255371 13.74699463 -15.32916992 13.02133301 -15.32568359 12.27368164 C-14.8201539 9.71964391 -14.04028349 8.82396863 -11.9375 7.3125 C-10.6175 7.3125 -9.2975 7.3125 -7.9375 7.3125 C-7.751875 6.136875 -7.751875 6.136875 -7.5625 4.9375 C-6.44550592 0.24612484 -4.41425894 0.01944607 0 0 Z M-1.9375 5.3125 C-2.2675 5.9725 -2.5975 6.6325 -2.9375 7.3125 C-0.9575 7.3125 1.0225 7.3125 3.0625 7.3125 C2.7325 6.6525 2.4025 5.9925 2.0625 5.3125 C0.7425 5.3125 -0.5775 5.3125 -1.9375 5.3125 Z M-1.9375 23.3125 C-1.9375 23.9725 -1.9375 24.6325 -1.9375 25.3125 C-0.6175 25.3125 0.7025 25.3125 2.0625 25.3125 C2.0625 24.6525 2.0625 23.9925 2.0625 23.3125 C0.7425 23.3125 -0.5775 23.3125 -1.9375 23.3125 Z " fill="#7E00FF" transform="translate(14.9375,-0.3125)"/>
</svg>
