<?xml version="1.0" encoding="UTF-8"?>
<svg version="1.1" xmlns="http://www.w3.org/2000/svg" width="32" height="32">
<path d="M0 0 C0.721875 0.00257812 1.44375 0.00515625 2.1875 0.0078125 C2.909375 0.00523438 3.63125 0.00265625 4.375 0 C6.1875 0.1328125 6.1875 0.1328125 7.1875 1.1328125 C7.28762401 3.33931906 7.3183118 5.54903636 7.3203125 7.7578125 C7.32126923 8.41990723 7.32222595 9.08200195 7.32321167 9.76416016 C7.32389326 11.16634211 7.32204042 12.5685272 7.31787109 13.97070312 C7.31252246 16.12376963 7.3178167 18.27662752 7.32421875 20.4296875 C7.32355796 21.78906296 7.32227679 23.1484383 7.3203125 24.5078125 C7.31918457 25.75304687 7.31805664 26.99828125 7.31689453 28.28125 C7.1875 31.1328125 7.1875 31.1328125 6.1875 32.1328125 C4.375 32.265625 4.375 32.265625 2.1875 32.2578125 C1.465625 32.26039062 0.74375 32.26296875 0 32.265625 C-1.8125 32.1328125 -1.8125 32.1328125 -2.8125 31.1328125 C-2.91262401 28.92630594 -2.9433118 26.71658864 -2.9453125 24.5078125 C-2.94626923 23.84571777 -2.94722595 23.18362305 -2.94821167 22.50146484 C-2.94889326 21.09928289 -2.94704042 19.6970978 -2.94287109 18.29492188 C-2.93752246 16.14185537 -2.9428167 13.98899748 -2.94921875 11.8359375 C-2.94855796 10.47656204 -2.94727679 9.1171867 -2.9453125 7.7578125 C-2.94418457 6.51257813 -2.94305664 5.26734375 -2.94189453 3.984375 C-2.77030802 0.20299671 -2.77030802 0.20299671 0 0 Z " fill="#7F00FF" transform="translate(24.8125,-0.1328125)"/>
<path d="M0 0 C0.721875 0.00257812 1.44375 0.00515625 2.1875 0.0078125 C2.909375 0.00523438 3.63125 0.00265625 4.375 0 C6.1875 0.1328125 6.1875 0.1328125 7.1875 1.1328125 C7.28610131 2.53629985 7.31828937 3.94461727 7.3203125 5.3515625 C7.32224609 6.62580078 7.32224609 6.62580078 7.32421875 7.92578125 C7.32035156 8.81910156 7.31648438 9.71242188 7.3125 10.6328125 C7.31636719 11.52613281 7.32023437 12.41945313 7.32421875 13.33984375 C7.32292969 14.18933594 7.32164063 15.03882813 7.3203125 15.9140625 C7.31918457 16.69845703 7.31805664 17.48285156 7.31689453 18.29101562 C7.1875 20.1328125 7.1875 20.1328125 6.1875 21.1328125 C4.375 21.265625 4.375 21.265625 2.1875 21.2578125 C1.465625 21.26039062 0.74375 21.26296875 0 21.265625 C-1.8125 21.1328125 -1.8125 21.1328125 -2.8125 20.1328125 C-2.91110131 18.72932515 -2.94328937 17.32100773 -2.9453125 15.9140625 C-2.94660156 15.06457031 -2.94789062 14.21507812 -2.94921875 13.33984375 C-2.94535156 12.44652344 -2.94148437 11.55320312 -2.9375 10.6328125 C-2.94136719 9.73949219 -2.94523438 8.84617187 -2.94921875 7.92578125 C-2.94792969 7.07628906 -2.94664063 6.22679687 -2.9453125 5.3515625 C-2.94418457 4.56716797 -2.94305664 3.78277344 -2.94189453 2.97460938 C-2.7672564 0.48881687 -2.48625152 0.18218222 0 0 Z " fill="#7E00FF" transform="translate(13.8125,10.8671875)"/>
<path d="M0 0 C2.05078125 0.03255208 4.1015625 0.06510417 6.15234375 0.09765625 C7.34217435 2.47731745 7.28584341 4.0125136 7.27734375 6.66015625 C7.27992187 7.46582031 7.2825 8.27148438 7.28515625 9.1015625 C7.15234375 11.09765625 7.15234375 11.09765625 6.15234375 12.09765625 C4.33984375 12.23046875 4.33984375 12.23046875 2.15234375 12.22265625 C1.43046875 12.22523437 0.70859375 12.2278125 -0.03515625 12.23046875 C-1.84765625 12.09765625 -1.84765625 12.09765625 -2.84765625 11.09765625 C-2.94589562 9.43336574 -2.97739256 7.76483694 -2.97265625 6.09765625 C-2.97523437 5.19015625 -2.9778125 4.28265625 -2.98046875 3.34765625 C-2.81750736 0.58689864 -2.7691363 0.14636027 0 0 Z " fill="#7E00FF" transform="translate(2.84765625,19.90234375)"/>
</svg>
