<svg width="40" height="40" viewBox="0 0 40 40" fill="none" xmlns="http://www.w3.org/2000/svg">
<path d="M25.8327 8.33333C25.8327 11.555 23.221 14.1667 19.9993 14.1667C16.7777 14.1667 14.166 11.555 14.166 8.33333C14.166 5.11167 16.7777 2.5 19.9993 2.5C23.221 2.5 25.8327 5.11167 25.8327 8.33333ZM30.8327 31.6667V27.5C30.8327 21.5167 25.9827 16.6667 19.9993 16.6667C14.016 16.6667 9.16602 21.5167 9.16602 27.5V31.6667H30.8327Z" fill="#7F00FF"/>
<path d="M33.3209 21.667H6.68094C6.1801 21.667 5.79177 22.1062 5.85427 22.6037L7.31261 34.2703C7.36427 34.687 7.71844 35.0003 8.13927 35.0003H31.8634C32.2834 35.0003 32.6384 34.687 32.6901 34.2703L34.1484 22.6037C34.2101 22.1062 33.8226 21.667 33.3209 21.667Z" fill="#75757B"/>
<path d="M20.0007 30C20.9211 30 21.6673 29.4404 21.6673 28.75C21.6673 28.0596 20.9211 27.5 20.0007 27.5C19.0802 27.5 18.334 28.0596 18.334 28.75C18.334 29.4404 19.0802 30 20.0007 30Z" fill="#777A87"/>
</svg>
