<?xml version="1.0" encoding="UTF-8"?>
<svg version="1.1" xmlns="http://www.w3.org/2000/svg" width="500" height="333">
<path d="M0 0 C165 0 330 0 500 0 C500 109.89 500 219.78 500 333 C335 333 170 333 0 333 C0 223.11 0 113.22 0 0 Z " fill="#003398" transform="translate(0,0)"/>
<path d="M0 0 C3.45854519 3.45854519 4 7.21904213 4 12 C8.62 12 13.24 12 18 12 C18 12.66 18 13.32 18 14 C15.12557036 16.20144809 12.05381433 18.04895196 9 20 C9.66 24.29 10.32 28.58 11 33 C8.4609375 31.53515625 8.4609375 31.53515625 5.921875 30.0703125 C3.97930801 28.98847641 1.98875555 27.99437778 0 27 C-4.455 29.97 -4.455 29.97 -9 33 C-10 30 -10 30 -9 27.125 C-7.88518705 23.64120953 -7.46713096 22.32121624 -9 19 C-11.02352741 17.52602004 -13.08228932 16.30182281 -15.28515625 15.11328125 C-15.85105469 14.74589844 -16.41695313 14.37851563 -17 14 C-17 13.34 -17 12.68 -17 12 C-12.38 12 -7.76 12 -3 12 C-2.87625 10.948125 -2.7525 9.89625 -2.625 8.8125 C-2.08859218 5.54041229 -1.36119965 2.99463924 0 0 Z " fill="#ECC10A" transform="translate(305,52)"/>
<path d="M0 0 C3.45854519 3.45854519 4 7.21904213 4 12 C8.62 12 13.24 12 18 12 C18 12.66 18 13.32 18 14 C16.03125 15.5078125 16.03125 15.5078125 13.5 17.125 C12.6646875 17.66382812 11.829375 18.20265625 10.96875 18.7578125 C10.3190625 19.16773437 9.669375 19.57765625 9 20 C9.60825035 24.34464536 10.26167392 28.67551867 11 33 C9.948125 32.38125 8.89625 31.7625 7.8125 31.125 C7.16796875 30.76921875 6.5234375 30.4134375 5.859375 30.046875 C4.38969202 29.21940643 2.96584904 28.31056603 1.5625 27.375 C-1.816702 26.88048263 -2.62174071 27.87345274 -5.3125 29.875 C-6.55569232 30.89988683 -7.78950804 31.93668944 -9 33 C-10.12758089 29.61725734 -9.81750262 28.23221777 -9.0625 24.8125 C-8.86785156 23.91144531 -8.67320312 23.01039062 -8.47265625 22.08203125 C-8.31667969 21.39496094 -8.16070312 20.70789063 -8 20 C-8.6496875 19.59007813 -9.299375 19.18015625 -9.96875 18.7578125 C-10.8040625 18.21898438 -11.639375 17.68015625 -12.5 17.125 C-13.3353125 16.59132813 -14.170625 16.05765625 -15.03125 15.5078125 C-15.6809375 15.01023437 -16.330625 14.51265625 -17 14 C-17 13.34 -17 12.68 -17 12 C-12.38 12 -7.76 12 -3 12 C-2.87625 10.948125 -2.7525 9.89625 -2.625 8.8125 C-2.08859218 5.54041229 -1.36119965 2.99463924 0 0 Z " fill="#ECC10A" transform="translate(194,52)"/>
<path d="M0 0 C2.62895146 3.94342719 3.05927998 7.36359419 4 12 C8.62 12 13.24 12 18 12 C12.35475578 17.80205656 12.35475578 17.80205656 9 20 C8.34 20 7.68 20 7 20 C7.30035156 20.68707031 7.60070312 21.37414062 7.91015625 22.08203125 C8.29042969 22.98308594 8.67070312 23.88414062 9.0625 24.8125 C9.44535156 25.70582031 9.82820313 26.59914062 10.22265625 27.51953125 C11 30 11 30 10 33 C9.20335937 32.33291016 9.20335937 32.33291016 8.390625 31.65234375 C7.68421875 31.08644531 6.9778125 30.52054688 6.25 29.9375 C5.55390625 29.36902344 4.8578125 28.80054688 4.140625 28.21484375 C2.11371156 26.80094881 2.11371156 26.80094881 -0.03125 27.15625 C-2.17828711 28.07640876 -3.88218502 29.16163876 -5.75 30.5625 C-6.67039062 31.24505859 -6.67039062 31.24505859 -7.609375 31.94140625 C-8.06828125 32.29074219 -8.5271875 32.64007813 -9 33 C-9.66 32.67 -10.32 32.34 -11 32 C-10.77183594 31.39671875 -10.54367187 30.7934375 -10.30859375 30.171875 C-10.02113281 29.37265625 -9.73367188 28.5734375 -9.4375 27.75 C-9.14746094 26.96109375 -8.85742188 26.1721875 -8.55859375 25.359375 C-7.93199618 22.7127671 -7.8817928 21.47455112 -9 19 C-10.84150497 17.51627078 -10.84150497 17.51627078 -13.0625 16.375 C-15.28515625 15.1484375 -15.28515625 15.1484375 -17 14 C-17 13.34 -17 12.68 -17 12 C-12.71 12 -8.42 12 -4 12 C-3.525625 10.205625 -3.05125 8.41125 -2.5625 6.5625 C-1.125 1.125 -1.125 1.125 0 0 Z " fill="#F1C308" transform="translate(346,204)"/>
<path d="M0 0 C2 1 2 1 2.8515625 3.50390625 C3.56770833 6.3359375 4.28385417 9.16796875 5 12 C9.29 12 13.58 12 18 12 C18 12.66 18 13.32 18 14 C16.03125 15.5078125 16.03125 15.5078125 13.5 17.125 C12.6646875 17.66382813 11.829375 18.20265625 10.96875 18.7578125 C10.3190625 19.16773438 9.669375 19.57765625 9 20 C9.31182069 21.41681634 9.62448737 22.83344651 9.9375 24.25 C10.11152344 25.03890625 10.28554687 25.8278125 10.46484375 26.640625 C10.947556 28.76878703 11.46163178 30.88532842 12 33 C9.40899946 31.8041536 7.32633188 30.50878367 5 28.8125 C2.2997921 26.763227 2.2997921 26.763227 0.046875 27.2265625 C-2.19287651 28.07288082 -3.83722507 29.1279188 -5.75 30.5625 C-6.67039063 31.24505859 -6.67039063 31.24505859 -7.609375 31.94140625 C-8.06828125 32.29074219 -8.5271875 32.64007813 -9 33 C-10.23593891 29.29218328 -9.5678132 28.32489747 -8.0625 24.8125 C-7.68222656 23.91144531 -7.30195313 23.01039063 -6.91015625 22.08203125 C-6.60980469 21.39496094 -6.30945313 20.70789063 -6 20 C-6.87398437 19.58427734 -6.87398437 19.58427734 -7.765625 19.16015625 C-9.90110897 18.05134726 -11.79545138 16.83658929 -13.75 15.4375 C-14.36359375 15.00308594 -14.9771875 14.56867188 -15.609375 14.12109375 C-16.06828125 13.75113281 -16.5271875 13.38117188 -17 13 C-17 12.67 -17 12.34 -17 12 C-12.38 12 -7.76 12 -3 12 C-2.690625 10.576875 -2.38125 9.15375 -2.0625 7.6875 C-1.48800637 5.04482928 -0.85697694 2.57093082 0 0 Z " fill="#F1C308" transform="translate(153,204)"/>
<path d="M0 0 C3.2830098 3.2830098 3.19284362 7.50298589 4 12 C8.62 12 13.24 12 18 12 C14.83047153 15.26008643 11.60062011 18.22237877 8 21 C8.34224609 21.92232422 8.34224609 21.92232422 8.69140625 22.86328125 C8.97886719 23.67152344 9.26632812 24.47976562 9.5625 25.3125 C9.85253906 26.11300781 10.14257812 26.91351563 10.44140625 27.73828125 C11 30 11 30 10 33 C9.22076172 32.33291016 9.22076172 32.33291016 8.42578125 31.65234375 C4.36115341 28.16734655 4.36115341 28.16734655 -0.625 26.8125 C-3.8968292 28.4484146 -6.28911697 30.54129214 -9 33 C-9.66 32.67 -10.32 32.34 -11 32 C-10.01 28.04 -9.02 24.08 -8 20 C-9.485 18.865625 -10.97 17.73125 -12.5 16.5625 C-14.02032761 15.40113863 -15.52596883 14.21958532 -17 13 C-17 12.67 -17 12.34 -17 12 C-12.71 12 -8.42 12 -4 12 C-3.525625 10.205625 -3.05125 8.41125 -2.5625 6.5625 C-1.125 1.125 -1.125 1.125 0 0 Z " fill="#F0C308" transform="translate(346,93)"/>
<path d="M0 0 C2 1 2 1 2.8515625 3.50390625 C3.56770833 6.3359375 4.28385417 9.16796875 5 12 C9.29 12 13.58 12 18 12 C15.10492782 14.97549085 12.33810482 17.49642139 9 20 C10.485 26.435 10.485 26.435 12 33 C8 31 8 31 5 28.8125 C2.30409356 26.76482246 2.30409356 26.76482246 0.078125 27.2265625 C-2.25410339 28.09457231 -4.16449945 29.20692464 -6.25 30.5625 C-6.95640625 31.01753906 -7.6628125 31.47257812 -8.390625 31.94140625 C-8.92171875 32.29074219 -9.4528125 32.64007813 -10 33 C-9.68817931 31.58318366 -9.37551263 30.16655349 -9.0625 28.75 C-8.88847656 27.96109375 -8.71445313 27.1721875 -8.53515625 26.359375 C-8.052444 24.23121297 -7.53836822 22.11467158 -7 20 C-7.721875 19.50628906 -8.44375 19.01257813 -9.1875 18.50390625 C-10.5796875 17.54291016 -10.5796875 17.54291016 -12 16.5625 C-12.928125 15.92441406 -13.85625 15.28632812 -14.8125 14.62890625 C-15.8953125 13.82259766 -15.8953125 13.82259766 -17 13 C-17 12.67 -17 12.34 -17 12 C-12.38 12 -7.76 12 -3 12 C-2.690625 10.39125 -2.38125 8.7825 -2.0625 7.125 C-1.125 2.25 -1.125 2.25 0 0 Z " fill="#F0C308" transform="translate(153,93)"/>
<path d="M0 0 C2 1 2 1 2.8515625 3.50390625 C3.56770833 6.3359375 4.28385417 9.16796875 5 12 C9.29 12 13.58 12 18 12 C14.87378374 15.39417765 12.43458973 17.6062718 8 19 C8.2165625 19.68707031 8.433125 20.37414062 8.65625 21.08203125 C8.9346875 21.98308594 9.213125 22.88414062 9.5 23.8125 C9.7784375 24.70582031 10.056875 25.59914063 10.34375 26.51953125 C11 29 11 29 11 32 C6.89041233 30.54955729 3.56741255 28.48889248 0 26 C-2.97 28.31 -5.94 30.62 -9 33 C-9.66 32.67 -10.32 32.34 -11 32 C-9.68 27.71 -8.36 23.42 -7 19 C-8.32 18.34 -9.64 17.68 -11 17 C-13.02951535 15.71203834 -15.03501678 14.38442 -17 13 C-17 12.67 -17 12.34 -17 12 C-10.565 11.505 -10.565 11.505 -4 11 C-2.68 7.37 -1.36 3.74 0 0 Z " fill="#F3C506" transform="translate(305,245)"/>
<path d="M0 0 C3.106467 3.106467 3.69089782 6.83467488 5 11 C9.29 11.33 13.58 11.66 18 12 C13 17 13 17 10 19 C9.34 19 8.68 19 8 19 C8.2165625 19.68707031 8.433125 20.37414062 8.65625 21.08203125 C8.9346875 21.98308594 9.213125 22.88414062 9.5 23.8125 C9.7784375 24.70582031 10.056875 25.59914063 10.34375 26.51953125 C11 29 11 29 11 32 C6.89041233 30.54955729 3.56741255 28.48889248 0 26 C-2.97 28.31 -5.94 30.62 -9 33 C-9.66 32.67 -10.32 32.34 -11 32 C-9.68 27.71 -8.36 23.42 -7 19 C-9.475 18.01 -9.475 18.01 -12 17 C-14.8125 14.375 -14.8125 14.375 -17 12 C-12.71 12 -8.42 12 -4 12 C-3.525625 10.205625 -3.05125 8.41125 -2.5625 6.5625 C-1.125 1.125 -1.125 1.125 0 0 Z " fill="#F3C407" transform="translate(194,245)"/>
<path d="M0 0 C0.66 0 1.32 0 2 0 C2.50559908 1.43554025 3.0042749 2.8735202 3.5 4.3125 C3.7784375 5.11300781 4.056875 5.91351563 4.34375 6.73828125 C5 9 5 9 5 12 C9.29 12 13.58 12 18 12 C15.10492782 14.97549085 12.33810482 17.49642139 9 20 C10.485 26.435 10.485 26.435 12 33 C9.78645833 31.4375 7.57291667 29.875 5.359375 28.3125 C2.86738917 26.67591051 2.86738917 26.67591051 -1 27 C-3.41795268 28.29009392 -3.41795268 28.29009392 -5.75 30 C-7.1525 30.99 -8.555 31.98 -10 33 C-9.01 28.71 -8.02 24.42 -7 20 C-8.485 18.865625 -9.97 17.73125 -11.5 16.5625 C-13.02032761 15.40113863 -14.52596883 14.21958532 -16 13 C-16 12.67 -16 12.34 -16 12 C-11.71 12 -7.42 12 -3 12 C-2.690625 10.576875 -2.38125 9.15375 -2.0625 7.6875 C-1.48800637 5.04482928 -0.85697694 2.57093082 0 0 Z " fill="#F4C506" transform="translate(249,260)"/>
<path d="M0 0 C2.79024052 4.18536078 3.10154594 8.05850265 4 13 C8.29 13 12.58 13 17 13 C13.82418312 16.44802976 11.39309313 18.41996314 7 20 C7.30035156 20.75925781 7.60070312 21.51851562 7.91015625 22.30078125 C8.29042969 23.29464844 8.67070312 24.28851563 9.0625 25.3125 C9.44535156 26.29863281 9.82820313 27.28476563 10.22265625 28.30078125 C11 31 11 31 10 34 C7.03 31.69 4.06 29.38 1 27 C-1.89511173 28.44755587 -4.53127396 29.90314017 -7.25 31.625 C-8.30960937 32.29402344 -8.30960937 32.29402344 -9.390625 32.9765625 C-9.92171875 33.31429687 -10.4528125 33.65203125 -11 34 C-10.52188823 32.22888156 -10.0424722 30.45811517 -9.5625 28.6875 C-9.29566406 27.70136719 -9.02882813 26.71523437 -8.75390625 25.69921875 C-8.21920575 23.78482474 -7.62855462 21.88566385 -7 20 C-7.721875 19.773125 -8.44375 19.54625 -9.1875 19.3125 C-12.53209313 17.75168987 -14.51603959 15.6968713 -17 13 C-12.71 13 -8.42 13 -4 13 C-3.71125 11.5975 -3.4225 10.195 -3.125 8.75 C-2.46276373 5.53342384 -1.57554035 2.88628401 0 0 Z " fill="#F4C506" transform="translate(361,148)"/>
<path d="M0 0 C0.66 0 1.32 0 2 0 C2.50559908 1.43554025 3.0042749 2.8735202 3.5 4.3125 C3.7784375 5.11300781 4.056875 5.91351563 4.34375 6.73828125 C5 9 5 9 5 12 C9.29 12 13.58 12 18 12 C14.82418312 15.44802976 12.39309313 17.41996314 8 19 C8.30035156 19.84304687 8.60070312 20.68609375 8.91015625 21.5546875 C9.29042969 22.65039062 9.67070312 23.74609375 10.0625 24.875 C10.63677734 26.51082031 10.63677734 26.51082031 11.22265625 28.1796875 C12 31 12 31 11 33 C10.40832031 32.47148437 9.81664062 31.94296875 9.20703125 31.3984375 C8.41683594 30.73070312 7.62664062 30.06296875 6.8125 29.375 C5.64654297 28.36566406 5.64654297 28.36566406 4.45703125 27.3359375 C2.0666408 25.67956091 2.0666408 25.67956091 -0.5625 26.625 C-2.7553975 27.8620191 -4.79483031 29.12163827 -6.8125 30.625 C-8.3903125 31.800625 -8.3903125 31.800625 -10 33 C-9.00956295 28.16371695 -8.04301154 23.52381127 -6 19 C-6.721875 18.773125 -7.44375 18.54625 -8.1875 18.3125 C-11.53209313 16.75168987 -13.51603959 14.6968713 -16 12 C-11.71 12 -7.42 12 -3 12 C-2.690625 10.39125 -2.38125 8.7825 -2.0625 7.125 C-1.125 2.25 -1.125 2.25 0 0 Z " fill="#F4C506" transform="translate(138,149)"/>
<path d="M0 0 C0.66 0 1.32 0 2 0 C2.50559908 1.43554025 3.0042749 2.8735202 3.5 4.3125 C3.7784375 5.11300781 4.056875 5.91351563 4.34375 6.73828125 C5 9 5 9 5 12 C9.29 12 13.58 12 18 12 C14.82418312 15.44802976 12.39309313 17.41996314 8 19 C8.30035156 19.75925781 8.60070312 20.51851562 8.91015625 21.30078125 C9.29042969 22.29464844 9.67070312 23.28851563 10.0625 24.3125 C10.44535156 25.29863281 10.82820313 26.28476563 11.22265625 27.30078125 C12 30 12 30 11 33 C10.40832031 32.47148438 9.81664062 31.94296875 9.20703125 31.3984375 C8.41683594 30.73070313 7.62664062 30.06296875 6.8125 29.375 C5.64654297 28.36566406 5.64654297 28.36566406 4.45703125 27.3359375 C2.0666408 25.67956091 2.0666408 25.67956091 -0.5625 26.625 C-2.7553975 27.8620191 -4.79483031 29.12163827 -6.8125 30.625 C-8.3903125 31.800625 -8.3903125 31.800625 -10 33 C-9.00956295 28.16371695 -8.04301154 23.52381127 -6 19 C-6.721875 18.773125 -7.44375 18.54625 -8.1875 18.3125 C-11.53209313 16.75168987 -13.51603959 14.6968713 -16 12 C-11.71 12 -7.42 12 -3 12 C-2.690625 10.576875 -2.38125 9.15375 -2.0625 7.6875 C-1.48800637 5.04482928 -0.85697694 2.57093082 0 0 Z " fill="#F4C506" transform="translate(249,38)"/>
</svg>
