<svg width="24" height="28" viewBox="0 0 24 28" fill="none" xmlns="http://www.w3.org/2000/svg">
<path fill-rule="evenodd" clip-rule="evenodd" d="M1.56267 2.22868C-1.58946e-07 3.79002 0 6.30468 0 11.3327V16.666C0 21.694 -1.58946e-07 24.2087 1.56267 25.77C3.12533 27.3313 5.63867 27.3327 10.6667 27.3327H13.3333C18.3613 27.3327 20.876 27.3327 22.4373 25.77C23.9987 24.2073 24 21.694 24 16.666V11.3327C24 6.30468 24 3.79002 22.4373 2.22868C20.8747 0.667349 18.3613 0.666016 13.3333 0.666016H10.6667C5.63867 0.666016 3.124 0.666015 1.56267 2.22868ZM6.66667 10.3327C6.40145 10.3327 6.1471 10.438 5.95956 10.6256C5.77202 10.8131 5.66667 11.0675 5.66667 11.3327C5.66667 11.5979 5.77202 11.8523 5.95956 12.0398C6.1471 12.2273 6.40145 12.3327 6.66667 12.3327H17.3333C17.5986 12.3327 17.8529 12.2273 18.0404 12.0398C18.228 11.8523 18.3333 11.5979 18.3333 11.3327C18.3333 11.0675 18.228 10.8131 18.0404 10.6256C17.8529 10.438 17.5986 10.3327 17.3333 10.3327H6.66667ZM6.66667 15.666C6.40145 15.666 6.1471 15.7714 5.95956 15.9589C5.77202 16.1464 5.66667 16.4008 5.66667 16.666C5.66667 16.9312 5.77202 17.1856 5.95956 17.3731C6.1471 17.5607 6.40145 17.666 6.66667 17.666H13.3333C13.5985 17.666 13.8529 17.5607 14.0404 17.3731C14.228 17.1856 14.3333 16.9312 14.3333 16.666C14.3333 16.4008 14.228 16.1464 14.0404 15.9589C13.8529 15.7714 13.5985 15.666 13.3333 15.666H6.66667Z" fill="#66666E"/>
</svg>
