<?xml version="1.0" encoding="UTF-8"?>
<svg version="1.1" xmlns="http://www.w3.org/2000/svg" width="36" height="36">
<path d="M0 0 C0.80308594 -0.020625 1.60617188 -0.04125 2.43359375 -0.0625 C7.09171502 -0.09319602 10.43527639 0.05323542 14.125 3.25 C14.125 4.24 14.125 5.23 14.125 6.25 C13.49851562 6.32476563 12.87203125 6.39953125 12.2265625 6.4765625 C9.72693039 6.87871151 7.4906822 7.34243828 5.125 8.25 C3.13664579 10.96455348 3.13664579 10.96455348 3.125 14.25 C3.8089349 17.19572012 3.8089349 17.19572012 6.125 19.25 C8.85779226 19.98017632 11.26933388 20.1095574 14.125 20.25 C13.55155063 23.11724686 13.2635485 24.1114515 11.125 26.25 C7.49855496 26.70295333 3.83898262 26.57404802 0.1875 26.5625 C-0.82763672 26.57861328 -1.84277344 26.59472656 -2.88867188 26.61132812 C-4.34950195 26.61229492 -4.34950195 26.61229492 -5.83984375 26.61328125 C-7.17970337 26.61775269 -7.17970337 26.61775269 -8.54663086 26.62231445 C-10.875 26.25 -10.875 26.25 -12.66699219 24.9987793 C-14.17721399 22.81249823 -14.24863311 21.54961068 -14.23828125 18.90625 C-14.23763672 18.07222656 -14.23699219 17.23820312 -14.23632812 16.37890625 C-14.22021484 15.51136719 -14.20410156 14.64382812 -14.1875 13.75 C-14.19072266 12.88246094 -14.19394531 12.01492187 -14.19726562 11.12109375 C-14.14226394 4.65089591 -14.14226394 4.65089591 -11.875 1.25 C-7.87389877 -0.08370041 -4.18996597 0.02664525 0 0 Z M-8.875 7.25 C-8.875 7.58 -8.875 7.91 -8.875 8.25 C-6.565 8.25 -4.255 8.25 -1.875 8.25 C-1.875 7.92 -1.875 7.59 -1.875 7.25 C-4.185 7.25 -6.495 7.25 -8.875 7.25 Z " fill="#7E00FF" transform="translate(16.875,6.75)"/>
<path d="M0 0 C1 1 1 1 1.1328125 3.25 C1.13023438 4.1575 1.12765625 5.065 1.125 6 C1.12757812 6.9075 1.13015625 7.815 1.1328125 8.75 C1 11 1 11 0 12 C-7.17684887 12.46302251 -7.17684887 12.46302251 -10 10.875 C-11.49686954 8.06836961 -11.45535315 6.12242157 -11 3 C-7.92510226 -0.68987729 -4.54979886 -0.34338105 0 0 Z M-6 5 C-5 7 -5 7 -5 7 Z " fill="#7E00FF" transform="translate(32,14)"/>
<path d="M0 0 C3 0.375 3 0.375 6 3.375 C2.04 3.375 -1.92 3.375 -6 3.375 C-3 0.375 -3 0.375 0 0 Z " fill="#7E00FF" transform="translate(17,2.625)"/>
</svg>
