<svg width="24" height="24" viewBox="0 0 24 24" fill="none" xmlns="http://www.w3.org/2000/svg">
<rect width="24" height="24" fill="white"/>
<path d="M15.5 5C15.5 6.933 13.933 8.5 12 8.5C10.067 8.5 8.5 6.933 8.5 5C8.5 3.067 10.067 1.5 12 1.5C13.933 1.5 15.5 3.067 15.5 5ZM18.5 19V16.5C18.5 12.91 15.59 10 12 10C8.41 10 5.5 12.91 5.5 16.5V19H18.5Z" fill="#75757B"/>
<path d="M19.9918 13H4.00778C3.70728 13 3.47428 13.2635 3.51178 13.562L4.38678 20.562C4.41778 20.812 4.63028 21 4.88278 21H19.1173C19.3693 21 19.5823 20.812 19.6133 20.562L20.4883 13.562C20.5253 13.2635 20.2928 13 19.9918 13Z" fill="#75757B"/>
<path d="M12 18C12.5523 18 13 17.6642 13 17.25C13 16.8358 12.5523 16.5 12 16.5C11.4477 16.5 11 16.8358 11 17.25C11 17.6642 11.4477 18 12 18Z" fill="#777A87"/>
</svg>
