<svg width="36" height="36" viewBox="0 0 36 36" fill="none" xmlns="http://www.w3.org/2000/svg">
<g clip-path="url(#clip0_3401_14561)">
<path d="M4.91907 11.5349C5.35571 10.749 6.41647 10.3868 7.86796 10.528C9.31945 10.6691 11.0428 11.302 12.6589 12.2875C14.2749 13.273 15.6513 14.5303 16.4853 15.7829C17.3192 17.0354 17.5424 18.1806 17.1059 18.9664L11.0124 15.2507L4.91907 11.5349Z" fill="#34B64A"/>
<path d="M17.1058 18.9658C16.6693 19.7516 15.6084 20.1139 14.157 19.9726C12.7055 19.8315 10.9821 19.1986 9.36606 18.2131C7.75001 17.2277 6.37358 15.9703 5.5396 14.7178C4.70565 13.4652 4.48243 12.3201 4.91908 11.5342L11.0125 15.25L17.1058 18.9658Z" fill="#009245"/>
<path d="M29.5763 3.6875C30.1114 4.3451 30.0891 5.46461 29.5143 6.79977C28.9394 8.13492 27.8593 9.57633 26.5112 10.8069C25.1634 12.0375 23.6581 12.9565 22.3266 13.3616C20.995 13.7668 19.9465 13.6249 19.4114 12.9673L24.4939 8.32742L29.5763 3.6875Z" fill="#34B64A"/>
<path d="M19.4114 12.9672C18.8763 12.3096 18.8987 11.1901 19.4736 9.85493C20.0483 8.5198 21.1286 7.07837 22.4765 5.84779C23.8245 4.61721 25.3298 3.69827 26.6611 3.29309C27.9926 2.88794 29.0412 3.02976 29.5763 3.68736L24.4939 8.32728L19.4114 12.9672Z" fill="#009245"/>
<mask id="path-5-inside-1_3401_14561" fill="white">
<path d="M17.8167 19.477L18.2219 18.7324L6.00179 11.4335L5.59655 12.1781L17.8167 19.477Z"/>
</mask>
<path d="M17.8167 19.477L18.2219 18.7324L6.00179 11.4335L5.59655 12.1781L17.8167 19.477Z" fill="black"/>
<path d="M18.2219 18.7324L19.0804 19.2452L19.5585 18.3669L18.6999 17.8541L18.2219 18.7324ZM17.8167 19.477L17.3387 20.3554L18.1972 20.8682L18.6752 19.9898L17.8167 19.477ZM5.59655 12.1781L4.73803 11.6654L4.26002 12.5437L5.11853 13.0565L5.59655 12.1781ZM6.00179 11.4335L6.47981 10.5552L5.62129 10.0424L5.14327 10.9207L6.00179 11.4335ZM17.3634 18.2196L16.9582 18.9643L18.6752 19.9898L19.0804 19.2452L17.3634 18.2196ZM18.2947 18.5987L6.07457 11.2998L5.11853 13.0565L17.3387 20.3554L18.2947 18.5987ZM6.45507 12.6909L6.86031 11.9463L5.14327 10.9207L4.73803 11.6654L6.45507 12.6909ZM5.52377 12.3119L17.7439 19.6108L18.6999 17.8541L6.47981 10.5552L5.52377 12.3119Z" fill="#333333" mask="url(#path-5-inside-1_3401_14561)"/>
<mask id="path-7-inside-2_3401_14561" fill="white">
<path d="M29.2258 4.0233L28.6365 3.42871L19.6363 13.2188L20.2256 13.8134L29.2258 4.0233Z"/>
</mask>
<path d="M29.2258 4.0233L28.6365 3.42871L19.6363 13.2188L20.2256 13.8134L29.2258 4.0233Z" fill="black"/>
<path d="M28.6365 3.42871L29.3133 2.69253L28.6093 1.98228L27.9325 2.71846L28.6365 3.42871ZM29.2258 4.0233L29.9297 4.73355L30.6065 3.99737L29.9026 3.28712L29.2258 4.0233ZM20.2256 13.8134L19.5489 14.5496L20.2528 15.2598L20.9296 14.5236L20.2256 13.8134ZM19.6363 13.2188L18.9324 12.5085L18.2556 13.2447L18.9595 13.955L19.6363 13.2188ZM27.9597 4.16489L28.549 4.75948L29.9026 3.28712L29.3133 2.69253L27.9597 4.16489ZM28.5218 3.31305L19.5217 13.1031L20.9296 14.5236L29.9297 4.73355L28.5218 3.31305ZM20.9024 13.0772L20.3131 12.4826L18.9595 13.955L19.5489 14.5496L20.9024 13.0772ZM20.3403 13.929L29.3404 4.13896L27.9325 2.71846L18.9324 12.5085L20.3403 13.929Z" fill="#333333" mask="url(#path-7-inside-2_3401_14561)"/>
<path d="M9.81824 30.8567H26.1819M14.7273 30.8567C23.7273 26.571 16.0364 19.8853 19.6364 13.7139" stroke="#333333" stroke-linecap="round" stroke-linejoin="round"/>
<path d="M13.9091 12.6859C15.7091 14.0573 16.8545 16.4573 17.6727 19.0287C14.4 19.7144 11.9454 19.7144 9.81815 18.5144C7.85451 17.4859 6.05451 15.2573 4.90906 11.3144C9.49088 10.4573 12.1091 11.3144 13.9091 12.6859ZM21.4363 6.85728C20.1888 8.89996 19.5612 11.2907 19.6363 13.7144C22.7454 13.543 25.0363 12.6859 26.6727 11.3144C28.3091 9.60014 29.2909 7.37157 29.4545 3.42871C25.0363 3.60014 22.9091 5.143 21.4363 6.85728Z" stroke="#333333" stroke-linecap="round" stroke-linejoin="round"/>
</g>
<g clip-path="url(#clip1_3401_14561)">
<mask id="mask0_3401_14561" style="mask-type:luminance" maskUnits="userSpaceOnUse" x="-4" y="-16" width="46" height="52">
<path d="M41.0728 -15.4287H-3.10901V35.9999H41.0728V-15.4287Z" fill="white"/>
</mask>
<g mask="url(#mask0_3401_14561)">
<path d="M16.9599 26.7582C16.9599 26.7582 13.8377 23.3331 11.7038 28.38C11.7038 28.38 6.55953 33.2434 13.8598 34.2102H26.4619C26.4619 34.2102 29.5841 31.0731 26.7314 28.4845C26.7314 28.4845 24.5297 24.4868 21.543 25.6234C21.543 25.6234 19.7684 22.9937 18.2854 24.1971C18.2854 24.1971 16.5107 25.5565 16.9599 26.7582Z" fill="#5F3D26"/>
<path d="M19.5209 24.8247C19.5209 24.8247 20.375 23.9796 20.7786 25.5225C20.7786 25.5225 25.4059 24.235 27.3602 29.491C27.3602 29.491 31.718 36.0156 17.9038 34.003C17.9038 34.003 20.082 30.7596 19.5209 24.8247Z" fill="#472817"/>
<path d="M2.98804 11.8555C2.98804 11.8555 9.99676 24.248 15.8818 18.7572C15.8818 18.7572 5.86281 12.1195 2.98804 11.8555Z" fill="#009245"/>
<path d="M39.4852 4.11234L39.1376 3.57748C35.3395 -1.19852 30.1349 1.32663 27.911 3.3272C27.2159 3.95463 25.7388 4.67977 25.7388 4.67977C22.5503 6.12147 20.8405 7.80147 20.6564 9.67347C20.5076 11.1872 21.3927 12.3169 21.8876 12.8226C21.4973 13.2889 21.1129 13.858 20.758 14.5472C20.5695 12.7986 20.0747 10.7792 19.0084 8.34661C18.9834 8.30547 16.5519 4.14834 15.7551 0.419769C15.708 0.265483 14.6388 -3.37052 18.1012 -5.81337C18.4929 -6.08937 18.8685 -6.35509 19.2352 -6.61223C18.9554 -4.93909 19.5577 -4.22252 20.0084 -3.92766C20.3162 -3.72537 20.6844 -3.63623 21.0776 -3.63623C22.4163 -3.63623 24.0761 -4.67166 24.8566 -5.91794C25.7417 -7.33223 26.8492 -8.64195 27.428 -9.29509C29.0421 -11.1088 31.7563 -10.5825 31.7828 -10.5774C31.9964 -10.5345 32.235 -10.6699 32.3292 -10.9168C32.4235 -11.1619 32.3616 -11.4517 32.179 -11.6162C32.1275 -11.6625 32.0376 -11.7242 31.9434 -11.7859C31.8786 -11.8511 31.8049 -11.9042 31.7166 -11.9317C31.7107 -11.9334 31.7048 -11.9334 31.6989 -11.9351C30.7298 -12.5042 28.7461 -13.4042 27.8875 -13.6631C19.3736 -16.2277 17.8803 -11.0454 17.7389 -10.4471C17.7257 -10.3939 17.7183 -10.3339 17.7183 -10.2722C17.5828 -9.60537 17.6667 -8.98652 17.9642 -8.48252C18.1469 -8.17394 18.3884 -7.93738 18.6432 -7.75909C18.275 -7.50023 17.898 -7.23452 17.5047 -6.95852C13.2574 -3.96194 14.6535 0.807198 14.6565 0.807198C14.7993 1.47577 14.9908 2.1512 15.2088 2.81634C14.926 2.56948 14.6123 2.3192 14.2736 2.06548C14.3237 0.76434 13.9363 -2.05909 9.85687 -3.13737C6.44898 -4.03052 0.538926 -1.32709 -1.41244 0.38891C-1.41686 0.39234 -1.41686 0.399197 -1.4198 0.402626C-1.51847 0.493483 -1.58033 0.616912 -1.61126 0.755769C-1.61715 0.77634 -1.62304 0.791769 -1.62598 0.812341C-1.64071 0.916912 -1.64218 1.02491 -1.61126 1.13291C-1.60242 1.16377 -1.58327 1.18777 -1.57149 1.21691C-1.56707 1.22891 -1.57149 1.24263 -1.56707 1.25463C-1.56118 1.26491 -1.54793 1.26663 -1.54204 1.27691C-1.47576 1.39691 -1.38446 1.48777 -1.27253 1.53748C-1.25486 1.54605 -1.24013 1.54777 -1.22246 1.55463C-1.11495 1.59063 -1.00155 1.60262 -0.885201 1.55805C-0.742346 1.5032 -0.611274 1.47405 -0.469893 1.42263C0.472653 1.18777 3.15891 0.898055 7.25309 3.58606C7.37385 3.66663 9.24716 4.90263 11.1146 4.90263C12.1543 4.90263 13.1897 4.51005 13.9245 3.33234C15.4164 4.5152 16.2426 5.62775 16.4031 5.85747C17.2205 7.66775 17.9849 8.97232 18.0217 9.02889C20.4222 14.5112 19.7507 17.6758 19.1601 20.4683C19.1027 20.7409 19.0511 21.0066 18.9966 21.2758C18.4208 20.3363 17.5622 19.1586 16.4989 18.2843C16.3163 16.1055 15.521 14.2935 14.0983 12.91C9.8878 8.81975 1.7716 9.81404 1.42845 9.86204C1.41225 9.86375 1.40194 9.87918 1.38574 9.88261C1.3018 9.90147 1.22374 9.93918 1.15453 9.99918C1.1398 10.0112 1.1236 10.018 1.11034 10.0318C1.04996 10.0952 0.998417 10.1706 0.964544 10.2615C0.957181 10.2803 0.960126 10.3009 0.954235 10.3198C0.95129 10.3318 0.94098 10.3369 0.938035 10.3489C0.933617 10.366 0.942453 10.3832 0.939508 10.402C0.923308 10.5066 0.924781 10.6095 0.948344 10.7072C0.952762 10.7226 0.951289 10.738 0.955708 10.7535C0.98958 10.8615 1.05143 10.954 1.12949 11.0295C1.13833 11.038 1.1398 11.0535 1.15011 11.0603C2.09413 11.8763 3.94682 13.7929 4.59334 14.8215C6.96149 18.6032 9.4342 20.6312 11.9452 20.8472C12.0954 20.8609 12.2427 20.866 12.3855 20.866C14.1027 20.866 15.3443 19.9969 15.951 19.4603C17.3722 20.6843 18.4164 22.618 18.7065 23.194C18.7035 23.2163 18.7021 23.2369 18.6991 23.2592C17.7448 23.4238 16.8936 24.2946 16.3369 25.2889C15.8538 25.0335 15.3266 24.8912 14.7876 24.8912C13.2662 24.8912 11.9614 25.954 11.3738 27.4729C10.1293 28.1003 9.21476 29.602 9.21476 31.1106C9.21476 33.2192 10.7773 34.9352 12.6978 34.9352H25.3323C27.2527 34.9352 28.8153 33.2192 28.8153 31.1106C28.8153 29.5489 28.0244 28.2289 26.7873 27.6426C26.1924 25.9523 24.7668 24.7558 23.1041 24.7558C22.6136 24.7558 22.1379 24.8792 21.6873 25.0798C21.2219 24.2312 20.5872 23.6192 19.8464 23.3655C19.8965 22.8683 19.9554 22.4072 20.0246 22.0283C20.0997 21.6186 20.1881 21.2038 20.2779 20.782C20.4207 20.1083 20.568 19.3918 20.6814 18.6203C20.6829 18.6135 20.6888 18.61 20.6888 18.6049C21.0025 16.5118 21.7079 15.0615 22.4457 14.0706C22.6563 14.8746 23.0098 15.6563 23.1438 15.9289C23.9568 17.0998 24.5945 17.626 25.3971 17.626C25.8212 17.626 26.2925 17.4786 26.8595 17.2026C29.0082 16.1535 31.5708 12.5483 32.1849 10.7226C33.5045 6.79175 34.528 5.09291 34.5192 5.09291C36.2246 3.06148 38.5913 4.96777 38.6899 5.05005C38.9241 5.24204 39.2378 5.20775 39.4351 4.9712C39.6339 4.7432 39.656 4.37634 39.4852 4.11234ZM26.7329 -10.1368C26.1276 -9.45452 24.9759 -8.09166 24.0451 -6.60709C23.2543 -5.34194 21.3 -4.4248 20.5032 -4.94766C19.8641 -5.36595 20.2911 -6.84537 20.5268 -7.51566C22.001 -8.54766 23.1158 -9.31737 23.5238 -9.59337C24.509 -10.2637 26.0304 -10.8671 27.8079 -11.0145C27.4309 -10.7848 27.0642 -10.5105 26.7329 -10.1368ZM18.7949 -9.14595C18.6564 -9.3808 18.6255 -9.67052 18.705 -10.0271C18.7153 -10.0751 18.7197 -10.1231 18.7197 -10.1711C18.7978 -10.4625 19.1218 -11.4122 20.1453 -12.1802C21.2793 -13.0288 23.5017 -13.7779 27.6371 -12.5317C27.7755 -12.4905 27.939 -12.4322 28.1157 -12.3654C25.9729 -12.2625 24.1188 -11.5494 22.9435 -10.7505C22.5135 -10.4591 21.297 -9.61737 19.6991 -8.49966C19.3751 -8.61452 18.9907 -8.81337 18.7949 -9.14595ZM9.60209 -1.83109C11.8804 -1.22937 12.8568 0.0443392 13.0821 1.25805C10.7714 -0.17166 7.54469 -1.33223 3.44609 -0.871088C5.5786 -1.71795 7.96883 -2.26309 9.60209 -1.83109ZM7.82304 2.42377C6.28403 1.41405 4.92176 0.798626 3.74358 0.431768C7.75529 0.00662613 10.8392 1.21691 12.9555 2.62605C11.5358 4.8632 7.86427 2.4512 7.82304 2.42377ZM13.3634 13.9403C14.3089 14.8609 14.9127 16.018 15.1999 17.3706C11.7243 15.1455 6.83483 12.5449 3.99689 11.0758C6.66105 11.0878 10.8701 11.518 13.3634 13.9403ZM12.0291 19.5186C9.87013 19.3318 7.68018 17.4889 5.52116 14.0415C5.30614 13.6986 4.9895 13.294 4.64047 12.8775C7.58887 14.422 11.8451 16.7295 14.8877 18.6992C14.2824 19.1329 13.2942 19.6352 12.0291 19.5186ZM26.1688 5.92089C26.2351 5.88832 27.7991 5.11863 28.615 4.38491C29.7475 3.36491 31.7666 2.17863 33.8874 2.17863C34.3321 2.17863 34.7798 2.23348 35.2261 2.35005C33.1937 2.67405 29.9272 3.81577 27.8595 7.73632C27.2233 8.94147 26.322 9.70261 23.8389 11.1272C23.5606 11.2866 23.1762 11.5472 22.7521 11.9192C22.4973 11.6826 21.6976 10.8529 21.7992 9.82432C21.9259 8.52489 23.4737 7.13975 26.1688 5.92089ZM20.6858 25.7329C20.4973 25.9009 20.3132 26.0809 20.1512 26.29C19.9377 26.5643 19.9554 26.9878 20.191 27.2363C20.4266 27.4849 20.7904 27.4643 21.0039 27.1883C21.54 26.4992 22.3058 26.1049 23.1026 26.1049C24.6637 26.1049 25.9346 27.5843 25.9346 29.4015C25.9346 29.77 26.1924 30.0718 26.5105 30.0718C26.808 30.0718 27.0451 29.8043 27.0745 29.4683C27.4383 29.902 27.6636 30.4643 27.6636 31.1209C27.6636 32.4906 26.618 33.6049 25.3323 33.6049H12.6978C11.4121 33.6049 10.365 32.4906 10.365 31.1209C10.365 30.4883 10.6463 29.8558 11.0557 29.362C11.0969 29.6843 11.3252 29.9363 11.6138 29.9363C11.9305 29.9363 12.1882 29.6363 12.1882 29.266C12.1882 27.598 13.3546 26.2403 14.7876 26.2403C15.5239 26.2403 16.2029 26.5866 16.7021 27.2175C16.9157 27.4883 17.2809 27.5072 17.5136 27.2586C17.7477 27.0083 17.7625 26.5832 17.5475 26.3123C17.4723 26.2163 17.381 26.1443 17.2986 26.0569C17.6623 25.3952 18.1248 24.8946 18.5798 24.6872C18.4311 26.9055 18.4046 29.2026 18.4031 29.3449C18.3987 29.7135 18.6535 30.0186 18.9716 30.0238C18.9745 30.0238 18.976 30.0238 18.9789 30.0238C19.2941 30.0238 19.5504 29.7272 19.5533 29.362C19.5533 29.3278 19.5798 26.974 19.7286 24.766C20.0997 24.9529 20.4252 25.2838 20.6858 25.7329ZM31.1127 10.2426C30.6415 11.65 28.3322 15.0392 26.4162 15.9735C25.3662 16.4826 25.0525 16.5546 24.0952 15.1935C23.7388 14.434 23.4045 13.4038 23.4354 12.994C23.7918 12.6803 24.1129 12.4626 24.347 12.3272C27.0627 10.7706 28.0686 9.89804 28.8403 8.43747C30.1717 5.91232 32.1186 4.69691 33.7754 4.10891C33.7313 4.15691 33.6856 4.18777 33.6429 4.2392C33.5972 4.31291 32.5177 6.05804 31.1127 10.2426Z" fill="#333333"/>
</g>
</g>
<defs>
<clipPath id="clip0_3401_14561">
<rect width="36" height="25.7143" fill="white"/>
</clipPath>
<clipPath id="clip1_3401_14561">
<rect width="29.4545" height="13.7143" fill="white" transform="translate(5.72729 22.2852)"/>
</clipPath>
</defs>
</svg>
