<svg width="36" height="36" viewBox="0 0 36 36" fill="none" xmlns="http://www.w3.org/2000/svg">
<path d="M18.9276 5.69972C18.9276 5.69972 23.2224 1.74572 27.372 2.81972C27.372 2.81972 24.7116 2.91692 23.1504 5.45492C23.1504 5.45492 20.5884 8.50532 18.9288 7.52972C18.9288 7.52972 17.9508 6.33452 18.9276 5.69972Z" fill="#39B54A"/>
<path d="M25.6296 2.36157L18.3888 5.09157C18.3888 5.09157 14.8308 3.60117 19.5996 1.49637C19.5996 1.49637 25.3752 -0.210034 25.6296 2.36157Z" fill="#34B64A"/>
<path d="M13.3393 12.3145C13.3393 12.3145 7.60449 10.2889 4.67529 10.5817C4.67529 10.5817 9.36129 13.6561 9.82449 13.6081C9.82449 13.6081 13.3141 14.0713 13.3393 12.3145Z" fill="#009245"/>
<path d="M31.5937 12.6066C31.5937 12.6066 28.3969 13.1922 25.2733 16.341C25.2733 16.341 23.5645 19.4154 20.9533 19.635C20.9533 19.635 18.2449 18.0726 20.6845 15.8034C20.6845 15.8034 25.5409 14.0466 26.7121 12.8994C26.7121 12.8994 30.0313 10.6782 31.5937 12.6066Z" fill="#34B64A"/>
<path d="M20.6844 20.1478L24.492 17.6338L26.4444 15.2662L29.7876 13.2898C29.7876 13.2898 33.7896 12.4354 34.6932 14.1442C34.6932 14.1442 33.0096 12.5338 31.032 13.6558C31.032 13.6558 28.3476 16.1206 28.0788 19.0246C28.0788 19.0246 24.15 24.3442 21.978 21.8554L20.6844 20.1478Z" fill="#009245"/>
<path d="M16.3525 29.5301C16.3525 29.5301 13.8085 27.1325 12.0697 30.6653C12.0697 30.6653 7.8781 34.0697 13.8265 34.7465H24.0949C24.0949 34.7465 26.6389 32.5505 24.3145 30.7385C24.3145 30.7385 22.5205 27.9401 20.0869 28.7357C20.0869 28.7357 18.6409 26.8949 17.4325 27.7373C17.4325 27.7373 15.9865 28.6889 16.3525 29.5301Z" fill="#5F3D26"/>
<path d="M18.4393 28.1773C18.4393 28.1773 19.1353 27.5857 19.4641 28.6657C19.4641 28.6657 23.2345 27.7645 24.8269 31.4437C24.8269 31.4437 28.3777 36.0109 17.1217 34.6021C17.1217 34.6021 18.8965 32.3317 18.4393 28.1773Z" fill="#472817"/>
<path d="M20.9784 2.16992C20.9784 2.16992 17.5476 2.62472 18.5292 3.86552C18.5292 3.86552 20.2536 2.97512 20.9784 2.16992Z" fill="#3FD855"/>
<path d="M19.6729 7.1078C19.6729 7.1078 21.5737 7.0514 22.2829 5.0918C22.2829 5.0918 20.5033 5.9114 19.6729 7.1078Z" fill="#3FD855"/>
<path d="M4.96802 19.0986C4.96802 19.0986 10.6788 27.7734 15.474 23.9298C15.474 23.9298 7.31042 19.2834 4.96802 19.0986Z" fill="#009245"/>
<path d="M15.7489 23.3629C13.1317 17.2309 5.1145 18.2569 5.1145 18.2569L15.7489 23.3629Z" fill="#34B64A"/>
<path d="M14.2249 12.0362C8.06649 5.82745 4.18689 10.4894 4.18689 10.4894L10.6537 11.1182L14.2249 12.0362Z" fill="#34B64A"/>
<path d="M34.7064 13.6786L34.4232 13.3042C31.3284 9.96104 27.0876 11.7286 25.2756 13.129C24.7092 13.5682 23.5056 14.0758 23.5056 14.0758C20.9076 15.085 19.5144 16.261 19.3644 17.5714C19.2432 18.631 19.9644 19.4218 20.3676 19.7758C20.0496 20.1022 19.7364 20.5006 19.4472 20.983C19.2936 19.759 18.8904 18.3454 18.0216 16.6426C18.0012 16.6138 16.02 13.7038 15.3708 11.0938C15.3324 10.9858 14.4612 8.44064 17.2824 6.73064C17.6016 6.53744 17.9076 6.35144 18.2064 6.17144C17.9784 7.34264 18.4692 7.84424 18.8364 8.05064C19.0872 8.19224 19.3872 8.25464 19.7076 8.25464C20.7984 8.25464 22.1508 7.52984 22.7868 6.65744C23.508 5.66744 24.4104 4.75064 24.882 4.29344C26.1972 3.02384 28.4088 3.39224 28.4304 3.39584C28.6044 3.42584 28.7988 3.33104 28.8756 3.15824C28.9524 2.98664 28.902 2.78384 28.7532 2.66864C28.7112 2.63624 28.638 2.59304 28.5612 2.54984C28.5084 2.50424 28.4484 2.46704 28.3764 2.44784C28.3716 2.44664 28.3668 2.44664 28.362 2.44544C27.5724 2.04704 25.956 1.41704 25.2564 1.23584C18.3192 -0.559363 17.1024 3.06824 16.9872 3.48704C16.9764 3.52424 16.9704 3.56624 16.9704 3.60944C16.86 4.07624 16.9284 4.50944 17.1708 4.86224C17.3196 5.07824 17.5164 5.24384 17.724 5.36864C17.424 5.54984 17.1168 5.73584 16.7964 5.92904C13.3356 8.02664 14.4732 11.365 14.4756 11.365C14.592 11.833 14.748 12.3058 14.9256 12.7714C14.6952 12.5986 14.4396 12.4234 14.1636 12.2458C14.2044 11.335 13.8888 9.35864 10.5648 8.60384C7.78805 7.97864 2.97245 9.87104 1.38245 11.0722C1.37885 11.0746 1.37885 11.0794 1.37645 11.0818C1.29605 11.1454 1.24565 11.2318 1.22045 11.329C1.21565 11.3434 1.21085 11.3542 1.20845 11.3686C1.19645 11.4418 1.19525 11.5174 1.22045 11.593C1.22765 11.6146 1.24325 11.6314 1.25285 11.6518C1.25645 11.6602 1.25285 11.6698 1.25645 11.6782C1.26125 11.6854 1.27205 11.6866 1.27685 11.6938C1.33085 11.7778 1.40525 11.8414 1.49645 11.8762C1.51085 11.8822 1.52285 11.8834 1.53725 11.8882C1.62485 11.9134 1.71725 11.9218 1.81205 11.8906C1.92845 11.8522 2.03525 11.8318 2.15045 11.7958C2.91845 11.6314 5.10725 11.4286 8.44325 13.3102C8.54165 13.3666 10.068 14.2318 11.5896 14.2318C12.4368 14.2318 13.2804 13.957 13.8792 13.1326C15.0948 13.9606 15.768 14.7394 15.8988 14.9002C16.5648 16.1674 17.1876 17.0806 17.2176 17.1202C19.1736 20.9578 18.6264 23.173 18.1452 25.1278C18.0984 25.3186 18.0564 25.5046 18.012 25.693C17.5428 25.0354 16.8432 24.211 15.9768 23.599C15.828 22.0738 15.18 20.8054 14.0208 19.837C10.59 16.9738 3.97685 17.6698 3.69725 17.7034C3.68405 17.7046 3.67565 17.7154 3.66245 17.7178C3.59405 17.731 3.53045 17.7574 3.47405 17.7994C3.46205 17.8078 3.44885 17.8126 3.43805 17.8222C3.38885 17.8666 3.34685 17.9194 3.31925 17.983C3.31325 17.9962 3.31565 18.0106 3.31085 18.0238C3.30845 18.0322 3.30005 18.0358 3.29765 18.0442C3.29405 18.0562 3.30125 18.0682 3.29885 18.0814C3.28565 18.1546 3.28685 18.2266 3.30605 18.295C3.30965 18.3058 3.30845 18.3166 3.31205 18.3274C3.33965 18.403 3.39005 18.4678 3.45365 18.5206C3.46085 18.5266 3.46205 18.5374 3.47045 18.5422C4.23965 19.1134 5.74925 20.455 6.27605 21.175C8.20565 23.8222 10.2204 25.2418 12.2664 25.393C12.3888 25.4026 12.5088 25.4062 12.6252 25.4062C14.0244 25.4062 15.036 24.7978 15.5304 24.4222C16.6884 25.279 17.5392 26.6326 17.7756 27.0358C17.7732 27.0514 17.772 27.0658 17.7696 27.0814C16.992 27.1966 16.2984 27.8062 15.8448 28.5022C15.4512 28.3234 15.0216 28.2238 14.5824 28.2238C13.3428 28.2238 12.2796 28.9678 11.8008 30.031C10.7868 30.4702 10.0416 31.5214 10.0416 32.5774C10.0416 34.0534 11.3148 35.2546 12.8796 35.2546H23.1744C24.7392 35.2546 26.0124 34.0534 26.0124 32.5774C26.0124 31.4842 25.368 30.5602 24.36 30.1498C23.8752 28.9666 22.7136 28.129 21.3588 28.129C20.9592 28.129 20.5716 28.2154 20.2044 28.3558C19.8252 27.7618 19.308 27.3334 18.7044 27.1558C18.7452 26.8078 18.7932 26.485 18.8496 26.2198C18.9108 25.933 18.9828 25.6426 19.056 25.3474C19.1724 24.8758 19.2924 24.3742 19.3848 23.8342C19.386 23.8294 19.3908 23.827 19.3908 23.8234C19.6464 22.3582 20.2212 21.343 20.8224 20.6494C20.994 21.2122 21.282 21.7594 21.3912 21.9502C22.0536 22.7698 22.5732 23.1382 23.2272 23.1382C23.5728 23.1382 23.9568 23.035 24.4188 22.8418C26.1696 22.1074 28.2576 19.5838 28.758 18.3058C29.8332 15.5542 30.6672 14.365 30.66 14.365C32.0496 12.943 33.978 14.2774 34.0584 14.335C34.2492 14.4694 34.5048 14.4454 34.6656 14.2798C34.8276 14.1202 34.8456 13.8634 34.7064 13.6786ZM24.3156 3.70424C23.8224 4.18184 22.884 5.13584 22.1256 6.17504C21.4812 7.06064 19.8888 7.70264 19.2396 7.33664C18.7188 7.04384 19.0668 6.00824 19.2588 5.53904C20.46 4.81664 21.3684 4.27784 21.7008 4.08464C22.5036 3.61544 23.7432 3.19304 25.1916 3.08984C24.8844 3.25064 24.5856 3.44264 24.3156 3.70424ZM17.8476 4.39784C17.7348 4.23344 17.7096 4.03064 17.7744 3.78104C17.7828 3.74744 17.7864 3.71384 17.7864 3.68024C17.85 3.47624 18.114 2.81144 18.948 2.27384C19.872 1.67984 21.6828 1.15544 25.0524 2.02784C25.1652 2.05664 25.2984 2.09744 25.4424 2.14424C23.6964 2.21624 22.1856 2.71544 21.228 3.27464C20.8776 3.47864 19.8864 4.06784 18.5844 4.85024C18.3204 4.76984 18.0072 4.63064 17.8476 4.39784ZM10.3572 9.51824C12.2136 9.93944 13.0092 10.831 13.1928 11.6806C11.31 10.6798 8.68085 9.86744 5.34125 10.1902C7.07885 9.59744 9.02645 9.21584 10.3572 9.51824ZM8.90765 12.4966C7.65365 11.7898 6.54365 11.359 5.58365 11.1022C8.85245 10.8046 11.3652 11.6518 13.0896 12.6382C11.9328 14.2042 8.94125 12.5158 8.90765 12.4966ZM13.422 20.5582C14.1924 21.2026 14.6844 22.0126 14.9184 22.9594C12.0864 21.4018 8.10245 19.5814 5.79005 18.553C7.96085 18.5614 11.3904 18.8626 13.422 20.5582ZM12.3348 24.463C10.5756 24.3322 8.79125 23.0422 7.03205 20.629C6.85685 20.389 6.59885 20.1058 6.31445 19.8142C8.71685 20.8954 12.1848 22.5106 14.664 23.8894C14.1708 24.193 13.3656 24.5446 12.3348 24.463ZM23.856 14.9446C23.91 14.9218 25.1844 14.383 25.8492 13.8694C26.772 13.1554 28.4172 12.325 30.1452 12.325C30.5076 12.325 30.8724 12.3634 31.236 12.445C29.58 12.6718 26.9184 13.471 25.2336 16.2154C24.7152 17.059 23.9808 17.5918 21.9576 18.589C21.7308 18.7006 21.4176 18.883 21.072 19.1434C20.8644 18.9778 20.2128 18.397 20.2956 17.677C20.3988 16.7674 21.66 15.7978 23.856 14.9446ZM19.3884 28.813C19.2348 28.9306 19.0848 29.0566 18.9528 29.203C18.7788 29.395 18.7932 29.6914 18.9852 29.8654C19.1772 30.0394 19.4736 30.025 19.6476 29.8318C20.0844 29.3494 20.7084 29.0734 21.3576 29.0734C22.6296 29.0734 23.6652 30.109 23.6652 31.381C23.6652 31.639 23.8752 31.8502 24.1344 31.8502C24.3768 31.8502 24.57 31.663 24.594 31.4278C24.8904 31.7314 25.074 32.125 25.074 32.5846C25.074 33.5434 24.222 34.3234 23.1744 34.3234H12.8796C11.832 34.3234 10.9788 33.5434 10.9788 32.5846C10.9788 32.1418 11.208 31.699 11.5416 31.3534C11.5752 31.579 11.7612 31.7554 11.9964 31.7554C12.2544 31.7554 12.4644 31.5454 12.4644 31.2862C12.4644 30.1186 13.4148 29.1682 14.5824 29.1682C15.1824 29.1682 15.7356 29.4106 16.1424 29.8522C16.3164 30.0418 16.614 30.055 16.8036 29.881C16.9944 29.7058 17.0064 29.4082 16.8312 29.2186C16.77 29.1514 16.6956 29.101 16.6284 29.0398C16.9248 28.5766 17.3016 28.2262 17.6724 28.081C17.5512 29.6338 17.5296 31.2418 17.5284 31.3414C17.5248 31.5994 17.7324 31.813 17.9916 31.8166C17.994 31.8166 17.9952 31.8166 17.9976 31.8166C18.2544 31.8166 18.4632 31.609 18.4656 31.3534C18.4656 31.3294 18.4872 29.6818 18.6084 28.1362C18.9108 28.267 19.176 28.4986 19.3884 28.813ZM27.8844 17.9698C27.5004 18.955 25.6188 21.3274 24.0576 21.9814C23.202 22.3378 22.9464 22.3882 22.1664 21.4354C21.876 20.9038 21.6036 20.1826 21.6288 19.8958C21.9192 19.6762 22.1808 19.5238 22.3716 19.429C24.5844 18.3394 25.404 17.7286 26.0328 16.7062C27.1176 14.9386 28.704 14.0878 30.054 13.6762C30.018 13.7098 29.9808 13.7314 29.946 13.7674C29.9088 13.819 29.0292 15.0406 27.8844 17.9698Z" fill="#333333"/>
</svg>
