<svg width="36" height="36" viewBox="0 0 36 36" fill="none" xmlns="http://www.w3.org/2000/svg">
<path d="M8.99994 6.93558C8.99994 6.93558 9.68338 4.88245 11.2949 3.59433C12.9065 2.3062 27.8465 7.82433 27.8465 7.82433C27.8465 7.82433 30.4565 8.75527 32.0006 11.2218C33.0384 12.8812 33.6178 15.3337 32.5181 18.2953C29.8968 25.349 23.0962 24.5334 21.3243 24.1312C20.4918 23.9428 18.464 23.4056 18.464 23.4056C18.464 23.4056 13.8318 27.2306 8.25744 24.2971C4.01338 22.064 4.53932 18.7256 4.53932 18.7256C4.53932 18.7256 1.68182 15.8681 2.91932 11.8884C4.40994 7.09589 8.99994 6.93558 8.99994 6.93558Z" fill="#5B9821"/>
<path d="M18.6666 15.4716C22.5338 14.8276 23.7403 13.1766 24.7894 11.6466C25.9453 9.95915 25.6359 8.54446 26.4403 8.50509C27.2447 8.46571 27.8859 9.91696 27.0028 12.451C25.7541 16.0342 23.1863 16.5601 23.1356 17.5248C23.0963 18.2898 25.8694 18.3432 28.3725 17.1226C31.9978 15.3507 31.9978 11.2023 31.9978 11.2023C31.9978 11.2023 31.3538 9.87196 30.105 8.94665C28.8563 8.02134 27.9281 7.53759 27.9281 7.53759C27.9281 7.53759 26.4375 1.94071 19.6734 1.01259C12.9094 0.0844602 10.1278 4.80102 10.1278 4.80102C10.1278 4.80102 10.3697 6.33102 11.5369 8.1029C12.4678 9.51759 13.4297 9.47259 13.3481 10.277C13.2947 10.8001 11.6156 10.9604 9.84375 10.1954C8.22938 9.4979 7.83 8.54446 7.38844 8.54446C6.94688 8.54446 3.285 10.5835 4.81219 14.9063C6.02157 18.3291 10.0181 18.9704 10.7325 19.0941C12.8278 19.457 14.0344 18.0873 12.5438 16.9988C11.0531 15.9104 9.40219 15.2663 9.765 14.1807C10.1559 13.0051 11.5509 14.2313 13.2272 14.957C14.8838 15.6741 16.8891 15.7698 18.6666 15.4716Z" fill="#8BC02B"/>
<path d="M10.9772 19.9603C10.9772 19.9603 11.9053 19.9068 12.2878 19.7971C12.6703 19.6875 13.1878 19.3612 13.1878 19.3612C13.1878 19.3612 16.7737 23.1131 17.145 23.4281C17.5078 23.7346 17.9353 19.0603 17.9353 19.0603C17.9353 19.0603 18.7537 19.1868 19.5187 19.0659C20.5256 18.9056 21.2119 18.585 21.2119 18.585C21.2119 18.585 20.7225 21.4621 20.5312 22.5534C20.4103 23.2537 20.3681 25.2 20.3681 25.2L17.7469 27.3825L15.7528 26.0437C15.7528 26.0437 15.7472 25.5178 15.4519 25.1606C14.535 24.0525 10.9772 19.9603 10.9772 19.9603ZM20.1206 26.3756L22.1147 23.9737C22.1147 23.9737 22.8234 24.0271 23.3437 24.0271C23.8612 24.0271 24.764 23.9175 24.764 23.9175C24.764 23.9175 23.1272 26.1281 22.2525 27.2193C21.3778 28.3106 20.2331 29.6775 20.2331 29.6775L19.1419 26.5106L20.1206 26.3756Z" fill="#6D4B41"/>
<path d="M18.7031 24.4627C17.8875 24.5359 15.7556 26.0462 15.7556 26.0462C15.7556 26.0462 15.8653 28.6112 15.7837 30.0596C15.7022 31.5081 15.1312 33.8734 15.6572 34.4724C16.1128 34.9899 19.9434 35.0884 20.5144 34.4865C21.0881 33.8846 20.5312 31.3984 20.5312 29.7868C20.5312 28.1752 20.3681 25.1996 20.3681 25.1996C20.3681 25.1996 19.6312 24.3812 18.7031 24.4627Z" fill="#865B50"/>
<path d="M20.5242 29.3974C20.7341 29.1836 20.9208 28.9836 21.0725 28.7276C21.1256 28.638 21.1759 28.5517 21.2411 28.4709C21.4456 28.2174 21.5821 27.9172 21.8091 27.6902C22.0682 27.4311 22.3161 27.1541 22.5473 26.87C22.8246 26.5293 23.1584 26.2406 23.4905 25.9541C23.7447 25.7349 23.9207 25.5328 24.0905 25.2418C24.1893 25.0723 24.2585 24.8886 24.3654 24.7223C24.427 24.6265 24.5217 24.5405 24.5689 24.4383C24.609 24.3513 24.7425 24.3052 24.5704 24.3396" stroke="#333333" stroke-width="0.75" stroke-linecap="round"/>
<path d="M20.3875 25.9792C20.6272 25.8399 20.7806 25.6691 20.9358 25.4461C21.0462 25.2874 21.1747 25.0893 21.3443 24.995C21.4423 24.9406 21.5901 24.7735 21.6466 24.6776C21.7305 24.535 21.8947 24.3828 21.9458 24.2295" stroke="#333333" stroke-width="0.75" stroke-linecap="round"/>
<path d="M22.0005 23.9014H24.4337" stroke="#333333" stroke-width="0.75" stroke-linecap="round"/>
<path d="M20.2234 25.1321C20.3188 25.1679 20.2781 25.7214 20.2781 25.811C20.2781 26.0991 20.2781 26.3872 20.2781 26.6753C20.2781 27.1348 20.3655 27.5867 20.3844 28.0468C20.397 28.3521 20.3593 28.6678 20.3935 28.9718C20.4593 29.5551 20.4265 30.1716 20.4148 30.758C20.4017 31.4112 20.3875 32.0654 20.3875 32.7203C20.3875 33.2223 20.4148 33.7171 20.4148 34.2179C20.4148 34.4343 20.4007 34.4903 20.2022 34.5643C19.7648 34.7272 19.23 34.6736 18.7729 34.6736C18.139 34.6736 17.5223 34.6657 16.891 34.6189C16.5294 34.5921 16.1809 34.4759 15.8248 34.4154C15.5998 34.3772 15.4572 34.3259 15.3691 34.1056C15.1594 33.5812 15.1456 32.9359 15.2355 32.3862C15.3285 31.8173 15.4122 31.2478 15.521 30.682C15.6818 29.8461 15.685 29.0377 15.685 28.1941C15.685 27.8684 15.6712 27.5735 15.6182 27.2509C15.5706 26.9608 15.5265 26.6653 15.4952 26.373C15.4794 26.2256 15.4217 26.0905 15.4132 25.9416C15.3748 25.2704 14.952 24.6806 14.6598 24.0962C14.5332 23.843 14.4024 23.5518 14.23 23.3277C14.1557 23.2312 14.0396 23.1711 13.9475 23.0938C13.8198 22.9865 13.7477 22.8741 13.6634 22.7308C13.4977 22.449 13.2588 22.1671 13.0331 21.9333C12.9244 21.8207 12.83 21.696 12.7369 21.5703C12.6702 21.4803 12.5695 21.4355 12.4878 21.3592C12.321 21.2035 12.1345 21.0958 11.9942 20.9096C11.8835 20.7627 11.7736 20.6051 11.6783 20.4479C11.6484 20.3987 11.6012 20.3716 11.5841 20.3203" stroke="#333333" stroke-width="0.75" stroke-linecap="round"/>
<path d="M11.0026 19.9475C11.4671 19.8474 11.8873 19.7779 12.321 19.596C12.5797 19.4875 12.7976 19.4742 13.0778 19.5142C13.2582 19.54 13.5001 19.7684 13.6394 19.8805C13.8328 20.0361 14.0219 20.2016 14.2122 20.3621C14.6593 20.7395 14.9901 21.203 15.3595 21.6564C15.7664 22.1558 16.437 22.2914 16.8602 22.7591C16.9764 22.8876 17.1562 23.4964 17.3102 23.1533C17.5068 22.7152 17.4193 22.2417 17.5296 21.7884C17.6596 21.2541 17.7282 20.7042 17.8048 20.1595C17.8512 19.8294 17.9197 19.5348 18.0819 19.2464C18.1852 19.0627 18.9494 19.1865 19.0898 19.1943C19.6667 19.2268 20.2815 19.0748 20.8415 18.9266C20.961 18.8949 21.0655 18.8544 21.178 18.8169C21.2235 18.8017 21.2122 19.1738 21.2096 19.2148C21.1935 19.4737 21.0663 19.6989 20.9939 19.9437C20.9062 20.2406 20.8069 20.5272 20.7355 20.8289C20.5901 21.4427 20.4887 22.068 20.3673 22.6884C20.2639 23.2168 20.1404 23.7091 20.1404 24.2505C20.1404 24.4339 20.1404 24.6174 20.1404 24.8009" stroke="#333333" stroke-width="0.75" stroke-linecap="round"/>
<path d="M4.56692 18.6719C4.56692 19.7702 4.3123 21.4583 5.36332 22.173C5.62694 22.3522 5.86759 22.6512 6.09845 22.8744C6.36803 23.135 6.66734 23.3824 6.98981 23.5759C7.57603 23.9276 8.22862 24.1724 8.85216 24.4396C9.38585 24.6684 9.99115 25.0124 10.5889 25.0124C11.2373 25.0124 11.8104 25.3432 12.4635 25.3432C13.1578 25.3432 13.8521 25.3432 14.5464 25.3432" stroke="#333333" stroke-width="0.75" stroke-linecap="round"/>
<path d="M4.45669 18.4517C4.29221 18.1314 4.10766 17.8737 3.8839 17.6002C3.68682 17.3593 3.62743 16.9616 3.48876 16.6843C3.19761 16.102 2.8134 15.3575 2.80263 14.6903C2.7938 14.1423 2.80263 13.5934 2.80263 13.0454C2.80263 12.688 2.80263 12.3307 2.80263 11.9733C2.80263 11.5931 2.95508 11.3197 3.10282 10.9839C3.30149 10.5324 3.67317 10.1112 3.98498 9.72807C4.18033 9.48807 4.36963 9.25561 4.62516 9.0787C5.08915 8.75748 5.4938 8.43235 5.93003 8.07401C6.68405 7.45465 7.90844 7.2041 8.86752 7.2041" stroke="#333333" stroke-width="0.75" stroke-linecap="round"/>
<path d="M8.97778 6.92837C9.17679 6.33598 9.31998 5.52234 9.73743 5.01702C9.97806 4.72573 10.3066 4.51726 10.5828 4.2635C10.8393 4.02795 11.0057 3.71806 11.2353 3.45791C12.0561 2.52769 13.3055 1.91159 14.4637 1.50061C15.06 1.28903 15.695 1.25672 16.3077 1.1116C16.8144 0.991599 17.279 0.918623 17.7994 0.918623C18.3581 0.918623 18.9226 0.881759 19.4719 0.998263C19.8232 1.07278 20.1972 1.24944 20.5562 1.24944C21.3032 1.24944 22.2173 1.61313 22.8106 2.05809C23.2892 2.41701 23.8663 2.71108 24.3789 3.03214C24.7914 3.29054 25.113 3.52717 25.4939 3.8408C26.1058 4.34471 26.4025 5.14122 26.7987 5.82567C26.9658 6.11424 27.1578 6.41123 27.3378 6.69558C27.5048 6.95923 27.5242 7.47534 27.7789 7.64513" stroke="#333333" stroke-width="0.75" stroke-linecap="round"/>
<path d="M27.8891 7.81055C28.2784 7.87675 28.9229 7.84124 29.1848 8.19956C29.321 8.38593 29.4435 8.54582 29.5952 8.72028C29.8873 9.05619 30.1435 9.43927 30.4131 9.79542C30.6042 10.048 30.8242 10.1794 31.0624 10.3743C31.3514 10.6108 31.6303 11.0567 31.8037 11.3943C32.0919 11.9556 32.3971 12.5044 32.6583 13.079C32.7385 13.2555 32.7383 13.4964 32.741 13.6855C32.7441 13.8992 32.8069 14.0652 32.839 14.2736C32.9704 15.1274 32.9116 16.0246 32.8482 16.8803C32.7884 17.6877 32.4828 18.4647 32.0824 19.1654C31.5711 20.0602 31.0453 21.0279 30.2813 21.7353C29.4692 22.4872 28.5139 22.9682 27.5093 23.4077C27.0134 23.6247 26.4862 23.8631 25.9471 23.9529C25.7315 23.9889 25.5115 24.1306 25.2977 24.1306" stroke="#333333" stroke-width="0.75" stroke-linecap="round"/>
</svg>
