<?xml version="1.0" encoding="UTF-8"?>
<svg version="1.1" xmlns="http://www.w3.org/2000/svg" width="65" height="65">
<path d="M0 0 C21.45 0 42.9 0 65 0 C65 21.45 65 42.9 65 65 C43.55 65 22.1 65 0 65 C0 43.55 0 22.1 0 0 Z " fill="#C2AFA1" transform="translate(0,0)"/>
<path d="M0 0 C4.65659253 1.76950516 8.14659293 3.88773686 11 8 C12.03913148 13.07857216 12.23579814 17.81440272 9.6328125 22.41796875 C7.87763255 24.4968819 6.082993 26.25229762 4 28 C3.45214844 28.46535156 2.90429688 28.93070313 2.33984375 29.41015625 C0.25376891 30.98404903 -1.42823143 31.96534736 -4.0625 32.125 C-8.03406015 29.81893282 -10.56784291 26.29647126 -12 22 C-12.125 18.375 -12.125 18.375 -12 15 C-11.67 14.67 -11.34 14.34 -11 14 C-10.75585984 10.93016348 -10.61589326 7.8614327 -10.4765625 4.78515625 C-10.31929687 3.86605469 -10.16203125 2.94695313 -10 2 C-6.25816125 -0.49455917 -4.43756964 -0.37606522 0 0 Z " fill="#B2826A" transform="translate(33,14)"/>
<path d="M0 0 C0.66 0.66 1.32 1.32 2 2 C3.465564 2.48110545 4.94743807 2.91368211 6.4375 3.3125 C9.60297756 4.33033844 10.80015984 4.77593678 13.0625 7.3125 C14.12751805 10.36555173 14.22405348 12.78856685 14 16 C13.01 15.67 12.02 15.34 11 15 C6.345203 14.6946182 6.345203 14.6946182 2 16 C1.67 15.34 1.34 14.68 1 14 C-1.50580398 13.71303071 -3.92355619 13.53267239 -6.4375 13.4375 C-13.76449644 13.11775178 -13.76449644 13.11775178 -16 12 C-16 10.68 -16 9.36 -16 8 C-15.43152344 7.92523438 -14.86304687 7.85046875 -14.27734375 7.7734375 C-8.00991166 6.70619531 -4.42263059 4.52217533 0 0 Z " fill="#D8D0CA" transform="translate(43,45)"/>
<path d="M0 0 C6.625 -0.125 6.625 -0.125 10 1 C11.55266653 1.1464714 13.10995662 1.24694074 14.66796875 1.31640625 C16.00698242 1.37924805 16.00698242 1.37924805 17.37304688 1.44335938 C18.76620117 1.50233398 18.76620117 1.50233398 20.1875 1.5625 C21.12787109 1.60568359 22.06824219 1.64886719 23.03710938 1.69335938 C25.35792854 1.79938665 27.67885325 1.90145029 30 2 C30 2.66 30 3.32 30 4 C30.60328125 3.90460937 31.2065625 3.80921875 31.828125 3.7109375 C33.02695313 3.54464844 33.02695313 3.54464844 34.25 3.375 C35.03890625 3.25898437 35.8278125 3.14296875 36.640625 3.0234375 C39.32152459 2.99680605 40.72694089 3.63407916 43 5 C43 5.33 43 5.66 43 6 C27.16 6 11.32 6 -5 6 C-3.68 5.34 -2.36 4.68 -1 4 C-0.19471111 1.94999129 -0.19471111 1.94999129 0 0 Z " fill="#C9C1BC" transform="translate(12,59)"/>
<path d="M0 0 C0.76183594 0.13277344 1.52367187 0.26554687 2.30859375 0.40234375 C13.53265983 2.32206541 24.64072034 3.2965927 36 4 C36.495 5.485 36.495 5.485 37 7 C37.33 6.34 37.66 5.68 38 5 C45.34693878 4.51020408 45.34693878 4.51020408 48.5 6.875 C50 9 50 9 50 11 C49.505 10.855625 49.01 10.71125 48.5 10.5625 C43.68410764 9.47892422 38.93356934 9 34 9 C34 8.34 34 7.68 34 7 C33.16976318 7.01571045 33.16976318 7.01571045 32.32275391 7.03173828 C8.33163526 7.42618123 8.33163526 7.42618123 0 3 C0 2.01 0 1.02 0 0 Z " fill="#585963" transform="translate(8,54)"/>
<path d="M0 0 C4.63931464 1.76293956 7.91469191 4.09799271 11 8 C11.5 11.125 11.5 11.125 11 14 C9.5625 15.875 9.5625 15.875 8 17 C7.67 17 7.34 17 7 17 C6.89042969 16.37351562 6.78085937 15.74703125 6.66796875 15.1015625 C6.50941406 14.28429688 6.35085937 13.46703125 6.1875 12.625 C6.03667969 11.81289063 5.88585938 11.00078125 5.73046875 10.1640625 C5.12455058 7.64179359 5.12455058 7.64179359 2 6 C-2.65417169 5.65777555 -2.65417169 5.65777555 -7 7 C-7.33 7.99 -7.66 8.98 -8 10 C-6.68 10.33 -5.36 10.66 -4 11 C-4 11.99 -4 12.98 -4 14 C-5.98 14 -7.96 14 -10 14 C-10.08082094 12.04233719 -10.13910778 10.08373272 -10.1875 8.125 C-10.22230469 7.03445312 -10.25710937 5.94390625 -10.29296875 4.8203125 C-10.19628906 3.88960937 -10.09960938 2.95890625 -10 2 C-6.25816125 -0.49455917 -4.43756964 -0.37606522 0 0 Z " fill="#221A15" transform="translate(33,14)"/>
<path d="M0 0 C0.33 0.99 0.66 1.98 1 3 C3.97 3.33 6.94 3.66 10 4 C10 4.66 10 5.32 10 6 C10.99 6 11.98 6 13 6 C13 6.66 13 7.32 13 8 C9.37 8 5.74 8 2 8 C2.99 9.65 3.98 11.3 5 13 C4.67 12.01 4.34 11.02 4 10 C5.65 10 7.3 10 9 10 C9 10.66 9 11.32 9 12 C12.08375495 10.97208168 12.87790925 10.29893164 15 8 C16 7 17 6 18 5 C18.4375 7.625 18.4375 7.625 18 11 C15.23984384 14.39171731 12.25118475 16.62730667 8.0625 17.875 C7.381875 17.91625 6.70125 17.9575 6 18 C5.01524786 16.90081184 4.03739527 15.7954398 3.0625 14.6875 C2.51722656 14.07261719 1.97195312 13.45773438 1.41015625 12.82421875 C-1.45278175 9.12063967 -1.1669256 5.50699133 -1 1 C-0.67 0.67 -0.34 0.34 0 0 Z " fill="#573629" transform="translate(22,28)"/>
<path d="M0 0 C0.66 2.64 1.32 5.28 2 8 C-3.9093867 13.0101322 -6.20910436 14.12565961 -14 14 C-15.60725635 10.78548731 -15.05748185 7.56387464 -15 4 C-13.515 4.99 -13.515 4.99 -12 6 C-6.92479927 5.86283241 -3.93084194 0 0 0 Z " fill="#C2977F" transform="translate(40,39)"/>
<path d="M0 0 C2 2 2 2 2 5 C0.02 5 -1.96 5 -4 5 C-3.67 6.32 -3.34 7.64 -3 9 C-0.03 9.495 -0.03 9.495 3 10 C3 11.32 3 12.64 3 14 C-4.425 13.01 -4.425 13.01 -12 12 C-12 11.01 -12 10.02 -12 9 C-10.02 9 -8.04 9 -6 9 C-6.33 8.01 -6.66 7.02 -7 6 C-7.99 5.67 -8.98 5.34 -10 5 C-9.625 3.0625 -9.625 3.0625 -9 1 C-5.98675805 -0.50662097 -3.31713623 -0.17770373 0 0 Z " fill="#CDA086" transform="translate(35,19)"/>
<path d="M0 0 C2.625 2 2.625 2 4 4 C3.3125 5.9375 3.3125 5.9375 2 8 C-0.5 8.6875 -0.5 8.6875 -3 9 C-3.99 9.495 -3.99 9.495 -5 10 C-5.33 9.34 -5.66 8.68 -6 8 C-8.52733235 7.34444881 -8.52733235 7.34444881 -11 7 C-10.34 5.68 -9.68 4.36 -9 3 C-10.32 2.67 -11.64 2.34 -13 2 C-8.7863742 -0.80908387 -4.95250658 -0.69707949 0 0 Z " fill="#CFC8C3" transform="translate(50,51)"/>
<path d="M0 0 C1.88391785 3.26545761 2.49287967 6.28111761 3 10 C-0.40401948 11.13732426 -2.77456664 10.83989957 -6.25 10.0625 C-7.14203125 9.86785156 -8.0340625 9.67320313 -8.953125 9.47265625 C-9.62859375 9.31667969 -10.3040625 9.16070312 -11 9 C-11.33 8.01 -11.66 7.02 -12 6 C-6.06 5.505 -6.06 5.505 0 5 C-0.33 3.68 -0.66 2.36 -1 1 C-0.67 0.67 -0.34 0.34 0 0 Z " fill="#C0B6AD" transform="translate(24,47)"/>
<path d="M0 0 C6.45810245 0.99681713 12.76571832 2.01636492 19 4 C19 4.99 19 5.98 19 7 C17.07640821 6.76376943 15.15296449 6.52624061 13.23046875 6.28125 C11.23840814 6.03006197 9.24430837 5.79516931 7.25 5.5625 C4.38779796 5.06711888 2.46462802 4.47877681 0 3 C0 2.01 0 1.02 0 0 Z " fill="#717172" transform="translate(8,54)"/>
<path d="M0 0 C0.33 0 0.66 0 1 0 C1.3125 2.75 1.3125 2.75 1 6 C-1.5 8.375 -1.5 8.375 -4 10 C-4.66 9.67 -5.32 9.34 -6 9 C-7.66619446 8.9603287 -9.33391013 8.95615553 -11 9 C-11.66 7.68 -12.32 6.36 -13 5 C-11.35 5 -9.7 5 -8 5 C-8 5.66 -8 6.32 -8 7 C-3.79184965 5.59728322 -2.44151558 3.66227337 0 0 Z " fill="#684C38" transform="translate(39,33)"/>
<path d="M0 0 C2.38671875 0.37109375 2.38671875 0.37109375 5.01171875 2.37109375 C5.69234375 3.36109375 5.69234375 3.36109375 6.38671875 4.37109375 C4.51171875 4.99609375 4.51171875 4.99609375 2.38671875 5.37109375 C1.72671875 4.71109375 1.06671875 4.05109375 0.38671875 3.37109375 C-2.28277534 3.12793719 -2.28277534 3.12793719 -5.23828125 3.24609375 C-6.24117187 3.26414063 -7.2440625 3.2821875 -8.27734375 3.30078125 C-9.43363281 3.33558594 -9.43363281 3.33558594 -10.61328125 3.37109375 C-7.51525892 -0.458265 -4.6624933 -0.11571151 0 0 Z " fill="#7F7D84" transform="translate(47.61328125,50.62890625)"/>
<path d="M0 0 C2 1 2 1 3.1875 3.5625 C4.0846875 4.7690625 4.0846875 4.7690625 5 6 C8.62599422 6.41725678 8.62599422 6.41725678 12 6 C12 6.99 12 7.98 12 9 C9 11 9 11 7.125 11 C3.76609881 9.41934062 2.11026294 6.98953916 0 4 C0 2.68 0 1.36 0 0 Z " fill="#403024" transform="translate(22,35)"/>
<path d="M0 0 C1.85625 0.13148437 1.85625 0.13148437 3.75 0.265625 C7 0.75 7 0.75 10 2.75 C7.41718164 2.97224251 4.83477813 3.17823488 2.25 3.375 C1.52039062 3.43945312 0.79078125 3.50390625 0.0390625 3.5703125 C-3.85911736 3.85381649 -6.70645322 4.02081383 -10 1.75 C-6.21887176 -0.77075216 -4.47162784 -0.35400387 0 0 Z " fill="#827F84" transform="translate(33,57.25)"/>
<path d="M0 0 C3.96 0 7.92 0 12 0 C12 0.99 12 1.98 12 3 C8.04 3 4.08 3 0 3 C0 2.01 0 1.02 0 0 Z " fill="#D2C8C3" transform="translate(27,62)"/>
<path d="M0 0 C2.31 0 4.62 0 7 0 C6.01 0.495 6.01 0.495 5 1 C5 2.65 5 4.3 5 6 C1.7 6 -1.6 6 -5 6 C-3.68 5.34 -2.36 4.68 -1 4 C-0.19471111 1.94999129 -0.19471111 1.94999129 0 0 Z " fill="#C6BDB5" transform="translate(12,59)"/>
<path d="M0 0 C0.33 0 0.66 0 1 0 C1.33 2.64 1.66 5.28 2 8 C3.32 8.33 4.64 8.66 6 9 C6 9.99 6 10.98 6 12 C4.02 12 2.04 12 0 12 C0 8.04 0 4.08 0 0 Z " fill="#644634" transform="translate(23,16)"/>
<path d="M0 0 C1.65 1.32 3.3 2.64 5 4 C4.34 4 3.68 4 3 4 C3 4.66 3 5.32 3 6 C3.66 6 4.32 6 5 6 C5.33 6.99 5.66 7.98 6 9 C4.33388095 9.042721 2.66617115 9.04063832 1 9 C0 8 0 8 -0.09765625 6.15234375 C-0.06510417 4.1015625 -0.03255208 2.05078125 0 0 Z " fill="#A4775B" transform="translate(25,43)"/>
<path d="M0 0 C1.6254308 0.14095064 3.25034051 0.28792087 4.875 0.4375 C5.77992187 0.51871094 6.68484375 0.59992187 7.6171875 0.68359375 C10 1 10 1 12 2 C12 2.66 12 3.32 12 4 C8.37 3.67 4.74 3.34 1 3 C0.67 2.01 0.34 1.02 0 0 Z " fill="#C7BDB7" transform="translate(12,53)"/>
<path d="M0 0 C2 0.25 2 0.25 4 1 C4.33 1.99 4.66 2.98 5 4 C-1.93 3.505 -1.93 3.505 -9 3 C-7 1 -7 1 -3.9375 0.9375 C-2.4834375 0.9684375 -2.4834375 0.9684375 -1 1 C-0.67 0.67 -0.34 0.34 0 0 Z " fill="#635F5C" transform="translate(20,49)"/>
<path d="M0 0 C2.64 0.33 5.28 0.66 8 1 C8 2.32 8 3.64 8 5 C4.7 4.67 1.4 4.34 -2 4 C-1.34 3.67 -0.68 3.34 0 3 C0 2.01 0 1.02 0 0 Z " fill="#D0A189" transform="translate(30,28)"/>
<path d="M0 0 C1.25 2.5625 1.25 2.5625 2 5 C-0.38564077 4.42415568 -2.66682784 3.77772405 -5 3 C-5 2.34 -5 1.68 -5 1 C-5.99 0.67 -6.98 0.34 -8 0 C-5.00112135 -0.96392528 -2.91185125 -1.35886391 0 0 Z " fill="#7D7D84" transform="translate(56,60)"/>
<path d="M0 0 C0.90105469 0.11085937 1.80210938 0.22171875 2.73046875 0.3359375 C3.76107422 0.47902344 3.76107422 0.47902344 4.8125 0.625 C4.8125 1.615 4.8125 2.605 4.8125 3.625 C0.43315881 3.10541715 -3.87553391 2.56824258 -8.1875 1.625 C-4.73535147 -0.67643236 -3.95270676 -0.51333854 0 0 Z " fill="#53565D" transform="translate(22.1875,57.375)"/>
<path d="M0 0 C2.475 0.495 2.475 0.495 5 1 C5 1.99 5 2.98 5 4 C6.32 4.33 7.64 4.66 9 5 C2.25 5.125 2.25 5.125 0 4 C0 2.68 0 1.36 0 0 Z " fill="#D0C7C2" transform="translate(27,53)"/>
<path d="M0 0 C0.33 0.99 0.66 1.98 1 3 C2.65 3 4.3 3 6 3 C5.360625 3.268125 4.72125 3.53625 4.0625 3.8125 C1.66868314 4.88667752 1.66868314 4.88667752 1 8 C0.34 8 -0.32 8 -1 8 C-1.04241723 5.66705225 -1.04092937 3.33297433 -1 1 C-0.67 0.67 -0.34 0.34 0 0 Z " fill="#966147" transform="translate(22,28)"/>
<path d="M0 0 C2.125 0.9375 2.125 0.9375 4 2 C3.67 2.66 3.34 3.32 3 4 C-0.0625 4.625 -0.0625 4.625 -3 5 C-2.625 3.0625 -2.625 3.0625 -2 1 C-1.34 0.67 -0.68 0.34 0 0 Z " fill="#6B6A6A" transform="translate(8,60)"/>
<path d="M0 0 C0.33 0 0.66 0 1 0 C1.25 2.75 1.25 2.75 1 6 C-1 8.375 -1 8.375 -3 10 C-2.67 7.36 -2.34 4.72 -2 2 C-1.34 2 -0.68 2 0 2 C0 1.34 0 0.68 0 0 Z " fill="#BF8A77" transform="translate(43,28)"/>
<path d="M0 0 C1.65 0 3.3 0 5 0 C5 1.32 5 2.64 5 4 C3.35 4 1.7 4 0 4 C0 2.68 0 1.36 0 0 Z " fill="#845842" transform="translate(32,25)"/>
<path d="M0 0 C2.35981813 0.93578995 4.69631264 1.93347808 7 3 C6.01 3.495 6.01 3.495 5 4 C4.67 4.99 4.34 5.98 4 7 C3.38125 6.34 2.7625 5.68 2.125 5 C0.24362573 2.7715451 0.24362573 2.7715451 -2 3 C-2 2.34 -2 1.68 -2 1 C-1.34 0.67 -0.68 0.34 0 0 Z " fill="#443931" transform="translate(32,14)"/>
<path d="M0 0 C0 0.33 0 0.66 0 1 C-0.969375 1.28875 -1.93875 1.5775 -2.9375 1.875 C-6.10664203 2.64214682 -6.10664203 2.64214682 -7 5 C-7.99 5 -8.98 5 -10 5 C-9.625 3.0625 -9.625 3.0625 -9 1 C-6.04335481 -0.4783226 -3.25770263 -0.06032783 0 0 Z " fill="#AB7A5D" transform="translate(35,19)"/>
<path d="M0 0 C0.66 2.31 1.32 4.62 2 7 C0.68 7.33 -0.64 7.66 -2 8 C-2 6.68 -2 5.36 -2 4 C-2.66 3.67 -3.32 3.34 -4 3 C-1.125 0 -1.125 0 0 0 Z " fill="#C29579" transform="translate(40,39)"/>
<path d="M0 0 C2.0625 0.75 2.0625 0.75 4 2 C4.33 2.99 4.66 3.98 5 5 C2.625 4.6875 2.625 4.6875 0 4 C-0.66 3.01 -1.32 2.02 -2 1 C-1.34 0.67 -0.68 0.34 0 0 Z " fill="#8D8A92" transform="translate(49,51)"/>
<path d="M0 0 C0.66 0 1.32 0 2 0 C2.33 0.99 2.66 1.98 3 3 C3.99 3.33 4.98 3.66 6 4 C4.68 4.99 3.36 5.98 2 7 C0 4 0 4 0 0 Z " fill="#CFA58F" transform="translate(36,43)"/>
<path d="M0 0 C-1.98 0.99 -1.98 0.99 -4 2 C-4 2.99 -4 3.98 -4 5 C-5.65 5 -7.3 5 -9 5 C-6.81610567 0.16423399 -5.20641855 -0.13701101 0 0 Z " fill="#C4BCB8" transform="translate(48,53)"/>
<path d="M0 0 C0.99 0.33 1.98 0.66 3 1 C3 1.66 3 2.32 3 3 C3.66 3.33 4.32 3.66 5 4 C4.02149805 5.02104551 3.02019573 6.0206121 2 7 C1.67 7 1.34 7 1 7 C0.67 4.69 0.34 2.38 0 0 Z " fill="#4B392D" transform="translate(39,24)"/>
<path d="M0 0 C5.75 0.75 5.75 0.75 8 3 C5.36 3 2.72 3 0 3 C0 2.01 0 1.02 0 0 Z " fill="#CCC1B8" transform="translate(39,62)"/>
<path d="M0 0 C1.65 0 3.3 0 5 0 C5 0.66 5 1.32 5 2 C5.66 2 6.32 2 7 2 C7 2.66 7 3.32 7 4 C5.35 4 3.7 4 2 4 C1.34 2.68 0.68 1.36 0 0 Z " fill="#785846" transform="translate(26,38)"/>
<path d="M0 0 C1.98 0 3.96 0 6 0 C5.67 0.99 5.34 1.98 5 3 C3.35 3 1.7 3 0 3 C0 2.01 0 1.02 0 0 Z " fill="#C08C70" transform="translate(23,28)"/>
</svg>
