<svg width="48" height="49" viewBox="0 0 48 49" fill="none" xmlns="http://www.w3.org/2000/svg">
<path d="M37.6877 16.1387C37.413 19.9515 34.5846 22.8887 31.5002 22.8887C28.4159 22.8887 25.5827 19.9524 25.3127 16.1387C25.0315 12.1721 27.7849 9.38867 31.5002 9.38867C35.2155 9.38867 37.969 12.2443 37.6877 16.1387Z" stroke="#030303" stroke-linecap="round" stroke-linejoin="round"/>
<path d="M31.5001 28.8887C25.3904 28.8887 19.5151 31.9234 18.0432 37.8334C17.8482 38.6152 18.3386 39.3887 19.142 39.3887H43.8592C44.6626 39.3887 45.1501 38.6152 44.9579 37.8334C43.4861 31.8287 37.6107 28.8887 31.5001 28.8887Z" stroke="#030303" stroke-miterlimit="10"/>
<path d="M18.7499 17.8205C18.5305 20.8655 16.2449 23.2637 13.7812 23.2637C11.3174 23.2637 9.02804 20.8665 8.81242 17.8205C8.58836 14.6527 10.813 12.3887 13.7812 12.3887C16.7493 12.3887 18.974 14.7109 18.7499 17.8205Z" stroke="#030303" stroke-linecap="round" stroke-linejoin="round"/>
<path d="M19.3124 29.0754C17.6203 28.3001 15.7565 28.002 13.7812 28.002C8.90619 28.002 4.20932 30.4254 3.03275 35.1457C2.87807 35.7701 3.26994 36.3879 3.91119 36.3879H14.4374" stroke="#030303" stroke-miterlimit="10" stroke-linecap="round"/>
</svg>
