<svg width="150" height="151" viewBox="0 0 150 151" fill="none" xmlns="http://www.w3.org/2000/svg">
<path d="M149.615 83.3267C148.312 97.0365 143.556 110.08 135.877 121C128.198 131.921 117.9 140.288 106.131 145.169C94.3624 150.05 81.5867 151.252 69.2304 148.641C56.8742 146.03 45.4237 139.708 36.1573 130.382L2.18372 135.844L19.1899 103.669C15.2931 93.1975 13.6273 81.8909 14.3189 70.6085C15.0105 59.3261 18.0415 48.365 23.1813 38.5583C28.3212 28.7517 35.4347 20.3577 43.9809 14.0145C52.5272 7.67128 62.2813 3.54584 72.5018 1.95179C82.7222 0.357731 93.14 1.33703 102.963 4.81522C112.786 8.29342 121.756 14.179 129.19 22.0244C136.625 29.8698 142.329 39.4687 145.868 50.0912C149.407 60.7137 150.689 72.0802 149.615 83.3267Z" fill="white"/>
<path d="M149.615 83.3276C148.306 97.0368 143.565 110.083 135.914 121.027C134.011 123.757 131.952 126.352 129.749 128.796C127.485 131.169 125.091 133.389 122.579 135.442C117.578 139.597 112.068 142.96 106.211 145.433C100.35 147.952 94.1968 149.562 87.9294 150.217C84.7933 150.513 81.6426 150.577 78.4987 150.408C75.3403 150.324 72.1931 149.963 69.0874 149.328C56.5744 146.842 44.9427 140.582 35.5003 131.251L36.2926 131.526L2.45427 137.136L0 137.559L1.23678 135.188L18.1269 102.95V104.22C14.1398 93.5567 12.4443 82.0319 13.1714 70.5364C13.8986 59.0409 17.0289 47.8824 22.3205 37.9231C27.6089 28.0045 34.8759 19.5237 43.5782 13.1147C52.2826 6.76858 62.199 2.69177 72.5659 1.19733C82.8633 -0.359197 93.3496 0.698187 103.215 4.28777C113.079 7.87735 122.059 13.903 129.459 21.8992C136.836 29.8062 142.482 39.4409 145.973 50.0799C149.464 60.719 150.709 72.086 149.615 83.3276ZM149.615 83.3276C150.693 72.1301 149.41 60.8109 145.865 50.242C142.32 39.673 136.608 30.1362 129.169 22.3658C121.729 14.5954 112.761 8.79886 102.954 5.42247C93.1479 2.04608 82.7647 1.17994 72.6045 2.89075C62.5361 4.54143 52.9452 8.68999 44.5638 15.0198C36.2638 21.4072 29.3276 29.6907 24.2337 39.299C19.2182 48.933 16.2645 59.6882 15.595 70.7542C14.9255 81.8201 16.5577 92.9082 20.3687 103.183L20.6006 103.839L20.2914 104.453L3.18864 136.564L1.97114 134.596L35.9834 129.388H36.4472L36.7757 129.748C45.8521 139.049 57.1144 145.397 69.2999 148.079C72.3368 148.764 75.4198 149.175 78.518 149.307C87.8408 150.045 97.1984 148.549 105.94 144.925C111.808 142.602 117.33 139.342 122.328 135.252C124.836 133.223 127.23 131.032 129.498 128.69C131.705 126.28 133.764 123.713 135.662 121.006C143.407 110.103 148.237 97.0594 149.615 83.3276Z" fill="#66666E"/>
<path d="M113.052 90.23C104.85 102.264 94.3761 112.22 82.3443 119.42C70.3126 112.22 59.8389 102.264 51.6367 90.23C40.8147 74.566 41.3557 50.0116 56.8159 44.6985C73.9379 38.8351 82.3443 67.0303 82.3443 67.0303C82.3443 67.0303 90.8667 38.6446 107.873 44.6985C123.275 50.2021 123.874 74.566 113.052 90.23Z" fill="#7F00FF"/>
<path d="M81.61 50.9848L75.0201 79.2647H81.1656L78.0929 93.3835H82.325L79.9094 107.354L86.4993 89.3828H82.1511L87.4849 74.6501H82.1898L89.6493 50.8789L81.61 50.9848Z" fill="white"/>
</svg>
