<svg width="24" height="24" viewBox="0 0 24 24" fill="none" xmlns="http://www.w3.org/2000/svg">
<path d="M15.59 14.37C15.696 14.814 15.7493 15.274 15.75 15.75C15.75 17.3413 15.1179 18.8674 13.9926 19.9926C12.8674 21.1179 11.3413 21.75 9.75 21.75V16.95M15.59 14.37C17.4999 12.9788 19.0536 11.1555 20.1242 9.04908C21.1947 6.94267 21.7519 4.61287 21.75 2.25C19.3873 2.2483 17.0577 2.80549 14.9515 3.87607C12.8452 4.94665 11.0221 6.50026 9.631 8.41M15.59 14.37C13.8523 15.642 11.8606 16.5222 9.75 16.95M9.75 16.95C9.64667 16.9713 9.543 16.9913 9.439 17.01C8.53125 16.2912 7.70978 15.4698 6.991 14.562L7.05 14.25M9.631 8.41C8.74986 8.2016 7.83298 8.19532 6.94907 8.39164C6.06516 8.58797 5.23714 8.98179 4.52707 9.54362C3.817 10.1054 3.2433 10.8207 2.84895 11.6357C2.4546 12.4508 2.24984 13.3446 2.25 14.25H7.05M9.631 8.41C8.35914 10.1474 7.47793 12.1398 7.05 14.25M4.811 16.64C4.15293 17.1289 3.64128 17.7887 3.33156 18.5478C3.02183 19.3069 2.92584 20.1363 3.054 20.946C3.28133 20.982 3.51333 21 3.75 21C4.45131 21.0002 5.14295 20.8364 5.76973 20.5218C6.39651 20.2072 6.94109 19.7504 7.36 19.188M16.5 9C16.5 9.39783 16.342 9.77936 16.0607 10.0607C15.7794 10.342 15.3978 10.5 15 10.5C14.6022 10.5 14.2206 10.342 13.9393 10.0607C13.658 9.77936 13.5 9.39783 13.5 9C13.5 8.60218 13.658 8.22065 13.9393 7.93934C14.2206 7.65804 14.6022 7.5 15 7.5C15.3978 7.5 15.7794 7.65804 16.0607 7.93934C16.342 8.22065 16.5 8.60218 16.5 9Z" stroke="#7F00FF" stroke-linecap="round" stroke-linejoin="round"/>
</svg>
