<svg width="24" height="24" viewBox="0 0 24 24" fill="none" xmlns="http://www.w3.org/2000/svg">
<path d="M23.6 22.1996V6.59961H18.8V22.1996H17.6V9.79961H12.8V22.1996H11.6V12.9996H6.8V22.1996H5.6V16.5996H0.8V22.1996H0.4C0.1792 22.1996 0 22.3784 0 22.5996C0 22.8208 0.1792 22.9996 0.4 22.9996H0.8H5.6H6.8H11.6H12.8H17.6H18.8H23.6C23.8208 22.9996 24 22.8208 24 22.5996C24 22.3784 23.8208 22.1996 23.6 22.1996ZM1.6 22.1996V17.3996H4.8V22.1996H1.6ZM7.6 22.1996V13.7996H10.8V22.1996H7.6ZM13.6 22.1996V10.5996H16.8V22.1996H13.6ZM19.6 22.1996V7.39961H22.8V22.1996H19.6Z" fill="#7F00FF"/>
<path d="M3.21202 11.1321C3.27962 11.1321 3.34882 11.1149 3.41162 11.0785L17.9192 2.70247L17.0112 4.69847C16.9196 4.89967 17.0084 5.13687 17.2096 5.22807C17.2632 5.25287 17.3196 5.26407 17.3752 5.26407C17.5272 5.26407 17.6724 5.17687 17.7396 5.02967L19.1644 1.89767C19.1688 1.88767 19.168 1.87687 19.1716 1.86647C19.1792 1.84527 19.1852 1.82487 19.1892 1.80247C19.1912 1.79127 19.1976 1.78207 19.1984 1.77047C19.1988 1.76567 19.1968 1.76167 19.1972 1.75687C19.198 1.74167 19.1964 1.72767 19.1956 1.71247C19.1944 1.69047 19.1908 1.66967 19.186 1.64767C19.1828 1.63247 19.182 1.61687 19.1768 1.60207C19.172 1.58767 19.1636 1.57567 19.1572 1.56167C19.152 1.55247 19.152 1.54167 19.1464 1.53207C19.1408 1.52247 19.1312 1.51687 19.1248 1.50767C19.1164 1.49527 19.11 1.48207 19.1 1.47087C19.0896 1.45887 19.0764 1.45047 19.0644 1.43967C19.048 1.42487 19.0316 1.41127 19.0132 1.39927C19.0008 1.39127 18.9896 1.38247 18.976 1.37567C18.9716 1.37367 18.9692 1.36967 18.9648 1.36767C18.9548 1.36327 18.944 1.36407 18.934 1.36047C18.912 1.35247 18.8904 1.34687 18.8676 1.34287C18.8572 1.34087 18.8488 1.33487 18.838 1.33407L15.4132 1.00207C15.1912 0.979666 14.9976 1.14207 14.9764 1.36127C14.9548 1.58127 15.116 1.77687 15.3356 1.79807L17.518 2.00967L3.01162 10.3857C2.82002 10.4961 2.75482 10.7409 2.86522 10.9321C2.93922 11.0605 3.07362 11.1321 3.21202 11.1321Z" fill="#7F00FF"/>
</svg>
