<svg width="251" height="250" viewBox="0 0 251 250" fill="none" xmlns="http://www.w3.org/2000/svg">
<rect x="0.749756" width="250" height="250" rx="125" fill="#F2E5FF"/>
<circle cx="125.75" cy="125" r="100" fill="#E5CCFF"/>
<path d="M125.75 100C123.896 100 122.083 99.4502 120.541 98.42C119 97.3899 117.798 95.9257 117.088 94.2127C116.379 92.4996 116.193 90.6146 116.555 88.796C116.917 86.9775 117.81 85.307 119.121 83.9959C120.432 82.6848 122.102 81.7919 123.921 81.4301C125.739 81.0684 127.624 81.2541 129.337 81.9636C131.05 82.6732 132.515 83.8748 133.545 85.4165C134.575 86.9582 135.125 88.7708 135.125 90.625C135.125 93.1114 134.137 95.496 132.379 97.2541C130.621 99.0123 128.236 100 125.75 100ZM125.75 87.5C125.132 87.5 124.528 87.6833 124.014 88.0267C123.5 88.37 123.099 88.8581 122.863 89.4291C122.626 90.0001 122.564 90.6285 122.685 91.2347C122.805 91.8409 123.103 92.3977 123.54 92.8347C123.977 93.2718 124.534 93.5694 125.14 93.69C125.746 93.8105 126.375 93.7487 126.946 93.5121C127.517 93.2756 128.005 92.8751 128.348 92.3612C128.691 91.8473 128.875 91.2431 128.875 90.625C128.875 89.7962 128.546 89.0013 127.959 88.4153C127.373 87.8292 126.579 87.5 125.75 87.5Z" fill="#9933FF"/>
<path d="M135.125 150H116.375C115.546 150 114.751 150.329 114.165 150.915C113.579 151.501 113.25 152.296 113.25 153.125V156.25C113.25 159.565 114.567 162.745 116.911 165.089C119.255 167.433 122.435 168.75 125.75 168.75C129.065 168.75 132.244 167.433 134.589 165.089C136.933 162.745 138.25 159.565 138.25 156.25V153.125C138.25 152.296 137.921 151.501 137.334 150.915C136.748 150.329 135.954 150 135.125 150Z" fill="#9933FF"/>
<path d="M164.656 150.344C161.41 148.733 158.68 146.247 156.775 143.165C154.869 140.083 153.865 136.529 153.875 132.906V121.875C153.875 114.416 150.912 107.262 145.637 101.988C140.363 96.7132 133.209 93.75 125.75 93.75C118.291 93.75 111.137 96.7132 105.862 101.988C100.588 107.262 97.6248 114.416 97.6248 121.875V132.906C97.6347 136.529 96.6301 140.083 94.7247 143.165C92.8194 146.247 90.0893 148.733 86.8435 150.344C86.2207 150.663 85.723 151.182 85.4302 151.817C85.1373 152.453 85.0662 153.168 85.2283 153.849C85.3904 154.53 85.7762 155.136 86.3241 155.572C86.8719 156.007 87.55 156.246 88.2498 156.25H163.25C163.95 156.246 164.628 156.007 165.175 155.572C165.723 155.136 166.109 154.53 166.271 153.849C166.433 153.168 166.362 152.453 166.069 151.817C165.777 151.182 165.279 150.663 164.656 150.344Z" fill="#7F00FF"/>
</svg>
