<svg width="40" height="40" viewBox="0 0 40 40" fill="none" xmlns="http://www.w3.org/2000/svg">
<rect width="40" height="40" rx="20" fill="white"/>
<path d="M20 24.666C21.933 24.666 23.5 23.099 23.5 21.166C23.5 19.233 21.933 17.666 20 17.666C18.067 17.666 16.5 19.233 16.5 21.166C16.5 23.099 18.067 24.666 20 24.666Z" stroke="#1E1E1E" stroke-width="1.5"/>
<path d="M17.4077 30.5001H22.5923C26.2335 30.5001 28.0547 30.5001 29.3625 29.6426C29.927 29.2729 30.413 28.7956 30.7928 28.2379C31.6667 26.9546 31.6667 25.1661 31.6667 21.5914C31.6667 18.0167 31.6667 16.2282 30.7928 14.9449C30.413 14.3872 29.927 13.9099 29.3625 13.5402C28.5225 12.9884 27.4702 12.7912 25.859 12.7212C25.0902 12.7212 24.4287 12.1496 24.2782 11.4087C24.1632 10.8661 23.8643 10.3798 23.4322 10.032C23 9.68423 22.461 9.49633 21.9063 9.50005H18.0937C16.941 9.50005 15.9482 10.2992 15.7218 11.4087C15.5713 12.1496 14.9098 12.7212 14.141 12.7212C12.531 12.7912 11.4787 12.9896 10.6375 13.5402C10.0735 13.91 9.58783 14.3873 9.20834 14.9449C8.33334 16.2282 8.33334 18.0156 8.33334 21.5914C8.33334 25.1672 8.33334 26.9534 9.20718 28.2379C9.58518 28.7932 10.0705 29.2704 10.6375 29.6426C11.9453 30.5001 13.7665 30.5001 17.4077 30.5001Z" stroke="#1E1E1E" stroke-width="1.5"/>
<path d="M28.1667 17.666H27" stroke="#1E1E1E" stroke-width="1.5" stroke-linecap="round"/>
</svg>
