<svg width="22" height="28" viewBox="0 0 22 28" fill="none" xmlns="http://www.w3.org/2000/svg">
<path d="M3.7566 15.359L0.5271 24.9755L4.5351 23.6405L6.8871 27.1505L9.6246 19.376M18.2196 15.359L21.4506 24.9755L17.4411 23.6405L15.0891 27.1505L12.3516 19.376M6.7476 2.45003C7.6176 2.55203 8.4771 2.19503 9.0201 1.50803C9.25593 1.20848 9.55665 0.96635 9.89962 0.799863C10.2426 0.633376 10.6189 0.546875 11.0001 0.546875C11.3813 0.546875 11.7576 0.633376 12.1006 0.799863C12.4435 0.96635 12.7443 1.20848 12.9801 1.50803C13.2468 1.84614 13.5958 2.11025 13.9936 2.27516C14.3914 2.44007 14.8249 2.50028 15.2526 2.45003C15.631 2.4052 16.0146 2.44675 16.3746 2.57156C16.7346 2.69637 17.0616 2.90119 17.331 3.17062C17.6004 3.44004 17.8053 3.76705 17.9301 4.12704C18.0549 4.48704 18.0964 4.87066 18.0516 5.24903C17.9496 6.11903 18.3066 6.98003 18.9936 7.52303C19.2929 7.75888 19.5348 8.05952 19.7011 8.40234C19.8674 8.74517 19.9538 9.12124 19.9538 9.50228C19.9538 9.88332 19.8674 10.2594 19.7011 10.6022C19.5348 10.945 19.2929 11.2457 18.9936 11.4815C18.6555 11.7483 18.3914 12.0972 18.2265 12.495C18.0616 12.8929 18.0014 13.3263 18.0516 13.754C18.0964 14.1324 18.0549 14.516 17.9301 14.876C17.8053 15.236 17.6004 15.563 17.331 15.8324C17.0616 16.1019 16.7346 16.3067 16.3746 16.4315C16.0146 16.5563 15.631 16.5979 15.2526 16.553C14.8246 16.5025 14.3909 16.5626 13.9928 16.7275C13.5946 16.8924 13.2455 17.1567 12.9786 17.495C12.7428 17.7943 12.4421 18.0362 12.0993 18.2025C11.7565 18.3688 11.3804 18.4552 10.9993 18.4552C10.6183 18.4552 10.2422 18.3688 9.89941 18.2025C9.55659 18.0362 9.25595 17.7943 9.0201 17.495C8.75337 17.1569 8.40444 16.8928 8.0066 16.7279C7.60877 16.563 7.17531 16.5028 6.7476 16.553C6.36911 16.5981 5.98532 16.5567 5.62514 16.432C5.26495 16.3073 4.93774 16.1026 4.66814 15.8331C4.39855 15.5636 4.19359 15.2366 4.06869 14.8764C3.9438 14.5163 3.90222 14.1325 3.9471 13.754C3.99752 13.3264 3.93755 12.8931 3.77291 12.4953C3.60826 12.0974 3.34444 11.7484 3.0066 11.4815C2.70705 11.2457 2.46492 10.945 2.29843 10.602C2.13195 10.259 2.04545 9.88277 2.04545 9.50153C2.04545 9.12029 2.13195 8.74402 2.29843 8.40105C2.46492 8.05808 2.70705 7.75736 3.0066 7.52153C3.6936 6.98003 4.0506 6.11903 3.9471 5.24903C3.90222 4.87052 3.9438 4.48675 4.06869 4.12663C4.19359 3.76651 4.39855 3.43941 4.66814 3.16996C4.93774 2.90051 5.26495 2.69572 5.62514 2.57102C5.98532 2.44632 6.36911 2.40495 6.7476 2.45003ZM14.0001 9.50003C14.0001 10.2957 13.684 11.0587 13.1214 11.6213C12.5588 12.184 11.7957 12.5 11.0001 12.5C10.2044 12.5 9.44139 12.184 8.87878 11.6213C8.31617 11.0587 8.0001 10.2957 8.0001 9.50003C8.0001 8.70438 8.31617 7.94132 8.87878 7.37871C9.44139 6.8161 10.2044 6.50003 11.0001 6.50003C11.7957 6.50003 12.5588 6.8161 13.1214 7.37871C13.684 7.94132 14.0001 8.70438 14.0001 9.50003Z" stroke="#7F00FF" stroke-linecap="round" stroke-linejoin="round"/>
</svg>
