<svg width="20" height="20" viewBox="0 0 20 20" fill="none" xmlns="http://www.w3.org/2000/svg">
<path fill-rule="evenodd" clip-rule="evenodd" d="M10 20C15.523 20 20 15.523 20 10C20 4.477 15.523 0 10 0C4.477 0 0 4.477 0 10C0 15.523 4.477 20 10 20ZM10 7C10.5304 7 11.0391 6.78929 11.4142 6.41421C11.7893 6.03914 12 5.53043 12 5C12 4.46957 11.7893 3.96086 11.4142 3.58579C11.0391 3.21071 10.5304 3 10 3C9.46957 3 8.96086 3.21071 8.58579 3.58579C8.21071 3.96086 8 4.46957 8 5C8 5.53043 8.21071 6.03914 8.58579 6.41421C8.96086 6.78929 9.46957 7 10 7ZM4.293 7.31C4.11136 7.23949 3.9094 7.24244 3.7299 7.31823C3.55039 7.39401 3.40743 7.53668 3.33127 7.71603C3.25511 7.89538 3.25174 8.09733 3.32187 8.27912C3.392 8.46091 3.53012 8.60827 3.707 8.69L3.709 8.691L3.711 8.692L3.721 8.696L3.753 8.71C3.94211 8.7889 4.13282 8.86392 4.325 8.935C4.705 9.08 5.239 9.273 5.852 9.465C6.84 9.777 8.088 10.105 9.25 10.213V11.453C9.25 11.883 9.126 12.306 8.893 12.669L6.369 16.594C6.31568 16.6769 6.27921 16.7694 6.26166 16.8664C6.24411 16.9633 6.24584 17.0628 6.26673 17.1591C6.28762 17.2554 6.32728 17.3466 6.38343 17.4276C6.43958 17.5086 6.51114 17.5777 6.594 17.631C6.67686 17.6843 6.76942 17.7208 6.86638 17.7383C6.96334 17.7559 7.0628 17.7542 7.1591 17.7333C7.25539 17.7124 7.34663 17.6727 7.4276 17.6166C7.50857 17.5604 7.57768 17.4889 7.631 17.406L10.001 13.72L12.369 17.406C12.4223 17.4889 12.4914 17.5604 12.5724 17.6166C12.6534 17.6727 12.7446 17.7124 12.8409 17.7333C12.9372 17.7542 13.0367 17.7559 13.1336 17.7383C13.2306 17.7208 13.3231 17.6843 13.406 17.631C13.4889 17.5777 13.5604 17.5086 13.6166 17.4276C13.6727 17.3466 13.7124 17.2554 13.7333 17.1591C13.7542 17.0628 13.7559 16.9633 13.7383 16.8664C13.7208 16.7694 13.6843 16.6769 13.631 16.594L11.107 12.669C10.8738 12.306 10.7498 11.8835 10.75 11.452V10.213C11.912 10.105 13.16 9.777 14.149 9.465C14.8581 9.24129 15.558 8.98942 16.247 8.71L16.28 8.696L16.29 8.692L16.292 8.691C16.4719 8.61127 16.6132 8.46404 16.6856 8.28105C16.7579 8.09806 16.7554 7.89397 16.6787 7.71279C16.6019 7.53161 16.4571 7.38785 16.2753 7.3125C16.0935 7.23715 15.8894 7.23625 15.707 7.31L15.7 7.313L15.673 7.324L15.563 7.369C15.4643 7.40967 15.3243 7.46433 15.143 7.533C14.783 7.67 14.278 7.853 13.699 8.035C12.521 8.405 11.111 8.75 10 8.75C8.889 8.75 7.48 8.405 6.302 8.035C5.63504 7.82367 4.97654 7.58649 4.328 7.324L4.3 7.313L4.293 7.31Z" fill="#7F00FF"/>
</svg>
