<svg width="70" height="70" viewBox="0 0 70 70" fill="none" xmlns="http://www.w3.org/2000/svg">
<path d="M70 35C70 54.33 54.33 70 35 70C15.67 70 0 54.33 0 35C0 15.67 15.67 0 35 0C54.33 0 70 15.67 70 35ZM7.46163 35C7.46163 50.209 19.791 62.5384 35 62.5384C50.209 62.5384 62.5384 50.209 62.5384 35C62.5384 19.791 50.209 7.46163 35 7.46163C19.791 7.46163 7.46163 19.791 7.46163 35Z" fill="#D9D9D9"/>
<path d="M35 3.73082C35 1.67034 36.6751 -0.0205733 38.7238 0.198651C43.5646 0.716626 48.2585 2.24055 52.4984 4.6882C57.8187 7.7595 62.2369 12.177 65.3091 17.4968C68.3812 22.8166 69.999 28.8513 70 34.9945C70.001 41.1377 68.385 47.1729 65.3146 52.4937C62.2441 57.8144 57.8273 62.2333 52.5079 65.3063C47.1886 68.3793 41.1541 69.9981 35.011 70C28.8678 70.0019 22.8324 68.3869 17.5111 65.3173C13.2704 62.871 9.60232 59.5695 6.73171 55.6375C5.51677 53.9733 6.14265 51.6769 7.92664 50.6459C9.71063 49.6149 11.9739 50.2449 13.2364 51.8733C15.4187 54.6881 18.134 57.0625 21.2396 58.854C25.4264 61.2692 30.1751 62.5399 35.0086 62.5384C39.8421 62.5368 44.5901 61.2632 48.7754 58.8453C52.9607 56.4275 56.4359 52.9506 58.8518 48.7642C61.2677 44.5777 62.5391 39.8292 62.5384 34.9957C62.5376 30.1622 61.2647 25.414 58.8475 21.2283C56.4303 17.0426 52.954 13.5669 48.7679 11.1504C45.6629 9.35789 42.2485 8.19503 38.7195 7.71397C36.6779 7.43566 35 5.79129 35 3.73082Z" fill="#7F00FF"/>
<path d="M30.5449 39.3125V41H21.9668V39.5498L26.1328 35.0059C26.5898 34.4902 26.9502 34.0449 27.2139 33.6699C27.4775 33.2949 27.6621 32.958 27.7676 32.6592C27.8789 32.3545 27.9346 32.0586 27.9346 31.7715C27.9346 31.3672 27.8584 31.0127 27.7061 30.708C27.5596 30.3975 27.3428 30.1543 27.0557 29.9785C26.7686 29.7969 26.4199 29.7061 26.0098 29.7061C25.5352 29.7061 25.1367 29.8086 24.8145 30.0137C24.4922 30.2188 24.249 30.5029 24.085 30.8662C23.9209 31.2236 23.8389 31.6338 23.8389 32.0967H21.7207C21.7207 31.3525 21.8906 30.6729 22.2305 30.0576C22.5703 29.4365 23.0625 28.9443 23.707 28.5811C24.3516 28.2119 25.1279 28.0273 26.0361 28.0273C26.8916 28.0273 27.6182 28.1709 28.2158 28.458C28.8135 28.7451 29.2676 29.1523 29.5781 29.6797C29.8945 30.207 30.0527 30.8311 30.0527 31.5518C30.0527 31.9502 29.9883 32.3457 29.8594 32.7383C29.7305 33.1309 29.5459 33.5234 29.3057 33.916C29.0713 34.3027 28.793 34.6924 28.4707 35.085C28.1484 35.4717 27.7939 35.8643 27.4072 36.2627L24.6387 39.3125H30.5449ZM37.8838 28.2031L32.9004 42.0986H31.2393L36.2314 28.2031H37.8838ZM41.7158 33.6436H42.9814C43.4736 33.6436 43.8809 33.5586 44.2031 33.3887C44.5312 33.2188 44.7744 32.9844 44.9326 32.6855C45.0908 32.3867 45.1699 32.0439 45.1699 31.6572C45.1699 31.2529 45.0967 30.9072 44.9502 30.6201C44.8096 30.3271 44.5928 30.1016 44.2998 29.9434C44.0127 29.7852 43.6465 29.7061 43.2012 29.7061C42.8262 29.7061 42.4863 29.7822 42.1816 29.9346C41.8828 30.0811 41.6455 30.292 41.4697 30.5674C41.2939 30.8369 41.2061 31.1592 41.2061 31.5342H39.0791C39.0791 30.8545 39.2578 30.251 39.6152 29.7236C39.9727 29.1963 40.459 28.7832 41.0742 28.4844C41.6953 28.1797 42.3926 28.0273 43.166 28.0273C43.9922 28.0273 44.7129 28.165 45.3281 28.4404C45.9492 28.71 46.4326 29.1143 46.7783 29.6533C47.124 30.1924 47.2969 30.8604 47.2969 31.6572C47.2969 32.0205 47.2119 32.3896 47.042 32.7646C46.8721 33.1396 46.6201 33.4824 46.2861 33.793C45.9521 34.0977 45.5361 34.3467 45.0381 34.54C44.54 34.7275 43.9629 34.8213 43.3066 34.8213H41.7158V33.6436ZM41.7158 35.2959V34.1357H43.3066C44.0566 34.1357 44.6953 34.2236 45.2227 34.3994C45.7559 34.5752 46.1895 34.8184 46.5234 35.1289C46.8574 35.4336 47.1006 35.7822 47.2529 36.1748C47.4111 36.5674 47.4902 36.9834 47.4902 37.4229C47.4902 38.0205 47.3818 38.5537 47.165 39.0225C46.9541 39.4854 46.6523 39.8779 46.2598 40.2002C45.8672 40.5225 45.4072 40.7656 44.8799 40.9297C44.3584 41.0938 43.79 41.1758 43.1748 41.1758C42.624 41.1758 42.0967 41.0996 41.5928 40.9473C41.0889 40.7949 40.6377 40.5693 40.2393 40.2705C39.8408 39.9658 39.5244 39.5879 39.29 39.1367C39.0615 38.6797 38.9473 38.1523 38.9473 37.5547H41.0654C41.0654 37.9355 41.1533 38.2725 41.3291 38.5654C41.5107 38.8525 41.7627 39.0781 42.085 39.2422C42.4131 39.4062 42.7881 39.4883 43.21 39.4883C43.6553 39.4883 44.0391 39.4092 44.3613 39.251C44.6836 39.0928 44.9297 38.8584 45.0996 38.5479C45.2754 38.2373 45.3633 37.8623 45.3633 37.4229C45.3633 36.9248 45.2666 36.5205 45.0732 36.21C44.8799 35.8994 44.6045 35.6709 44.2471 35.5244C43.8896 35.3721 43.4678 35.2959 42.9814 35.2959H41.7158Z" fill="#7F00FF"/>
</svg>
