<svg width="70" height="70" viewBox="0 0 70 70" fill="none" xmlns="http://www.w3.org/2000/svg">
<path d="M70 35C70 54.33 54.33 70 35 70C15.67 70 0 54.33 0 35C0 15.67 15.67 0 35 0C54.33 0 70 15.67 70 35ZM7.46163 35C7.46163 50.209 19.791 62.5384 35 62.5384C50.209 62.5384 62.5384 50.209 62.5384 35C62.5384 19.791 50.209 7.46163 35 7.46163C19.791 7.46163 7.46163 19.791 7.46163 35Z" fill="#D9D9D9"/>
<path d="M70 35C70 54.33 54.33 70 35 70C15.67 70 0 54.33 0 35C0 15.67 15.67 0 35 0C54.33 0 70 15.67 70 35ZM7.46163 35C7.46163 50.209 19.791 62.5384 35 62.5384C50.209 62.5384 62.5384 50.209 62.5384 35C62.5384 19.791 50.209 7.46163 35 7.46163C19.791 7.46163 7.46163 19.791 7.46163 35Z" fill="#7F00FF"/>
<path d="M24.4541 33.6436H25.7197C26.2119 33.6436 26.6191 33.5586 26.9414 33.3887C27.2695 33.2188 27.5127 32.9844 27.6709 32.6855C27.8291 32.3867 27.9082 32.0439 27.9082 31.6572C27.9082 31.2529 27.835 30.9072 27.6885 30.6201C27.5479 30.3271 27.3311 30.1016 27.0381 29.9434C26.751 29.7852 26.3848 29.7061 25.9395 29.7061C25.5645 29.7061 25.2246 29.7822 24.9199 29.9346C24.6211 30.0811 24.3838 30.292 24.208 30.5674C24.0322 30.8369 23.9443 31.1592 23.9443 31.5342H21.8174C21.8174 30.8545 21.9961 30.251 22.3535 29.7236C22.7109 29.1963 23.1973 28.7832 23.8125 28.4844C24.4336 28.1797 25.1309 28.0273 25.9043 28.0273C26.7305 28.0273 27.4512 28.165 28.0664 28.4404C28.6875 28.71 29.1709 29.1143 29.5166 29.6533C29.8623 30.1924 30.0352 30.8604 30.0352 31.6572C30.0352 32.0205 29.9502 32.3896 29.7803 32.7646C29.6104 33.1396 29.3584 33.4824 29.0244 33.793C28.6904 34.0977 28.2744 34.3467 27.7764 34.54C27.2783 34.7275 26.7012 34.8213 26.0449 34.8213H24.4541V33.6436ZM24.4541 35.2959V34.1357H26.0449C26.7949 34.1357 27.4336 34.2236 27.9609 34.3994C28.4941 34.5752 28.9277 34.8184 29.2617 35.1289C29.5957 35.4336 29.8389 35.7822 29.9912 36.1748C30.1494 36.5674 30.2285 36.9834 30.2285 37.4229C30.2285 38.0205 30.1201 38.5537 29.9033 39.0225C29.6924 39.4854 29.3906 39.8779 28.998 40.2002C28.6055 40.5225 28.1455 40.7656 27.6182 40.9297C27.0967 41.0938 26.5283 41.1758 25.9131 41.1758C25.3623 41.1758 24.835 41.0996 24.3311 40.9473C23.8271 40.7949 23.376 40.5693 22.9775 40.2705C22.5791 39.9658 22.2627 39.5879 22.0283 39.1367C21.7998 38.6797 21.6855 38.1523 21.6855 37.5547H23.8037C23.8037 37.9355 23.8916 38.2725 24.0674 38.5654C24.249 38.8525 24.501 39.0781 24.8232 39.2422C25.1514 39.4062 25.5264 39.4883 25.9482 39.4883C26.3936 39.4883 26.7773 39.4092 27.0996 39.251C27.4219 39.0928 27.668 38.8584 27.8379 38.5479C28.0137 38.2373 28.1016 37.8623 28.1016 37.4229C28.1016 36.9248 28.0049 36.5205 27.8115 36.21C27.6182 35.8994 27.3428 35.6709 26.9854 35.5244C26.6279 35.3721 26.2061 35.2959 25.7197 35.2959H24.4541ZM37.8838 28.2031L32.9004 42.0986H31.2393L36.2314 28.2031H37.8838ZM41.7158 33.6436H42.9814C43.4736 33.6436 43.8809 33.5586 44.2031 33.3887C44.5312 33.2188 44.7744 32.9844 44.9326 32.6855C45.0908 32.3867 45.1699 32.0439 45.1699 31.6572C45.1699 31.2529 45.0967 30.9072 44.9502 30.6201C44.8096 30.3271 44.5928 30.1016 44.2998 29.9434C44.0127 29.7852 43.6465 29.7061 43.2012 29.7061C42.8262 29.7061 42.4863 29.7822 42.1816 29.9346C41.8828 30.0811 41.6455 30.292 41.4697 30.5674C41.2939 30.8369 41.2061 31.1592 41.2061 31.5342H39.0791C39.0791 30.8545 39.2578 30.251 39.6152 29.7236C39.9727 29.1963 40.459 28.7832 41.0742 28.4844C41.6953 28.1797 42.3926 28.0273 43.166 28.0273C43.9922 28.0273 44.7129 28.165 45.3281 28.4404C45.9492 28.71 46.4326 29.1143 46.7783 29.6533C47.124 30.1924 47.2969 30.8604 47.2969 31.6572C47.2969 32.0205 47.2119 32.3896 47.042 32.7646C46.8721 33.1396 46.6201 33.4824 46.2861 33.793C45.9521 34.0977 45.5361 34.3467 45.0381 34.54C44.54 34.7275 43.9629 34.8213 43.3066 34.8213H41.7158V33.6436ZM41.7158 35.2959V34.1357H43.3066C44.0566 34.1357 44.6953 34.2236 45.2227 34.3994C45.7559 34.5752 46.1895 34.8184 46.5234 35.1289C46.8574 35.4336 47.1006 35.7822 47.2529 36.1748C47.4111 36.5674 47.4902 36.9834 47.4902 37.4229C47.4902 38.0205 47.3818 38.5537 47.165 39.0225C46.9541 39.4854 46.6523 39.8779 46.2598 40.2002C45.8672 40.5225 45.4072 40.7656 44.8799 40.9297C44.3584 41.0938 43.79 41.1758 43.1748 41.1758C42.624 41.1758 42.0967 41.0996 41.5928 40.9473C41.0889 40.7949 40.6377 40.5693 40.2393 40.2705C39.8408 39.9658 39.5244 39.5879 39.29 39.1367C39.0615 38.6797 38.9473 38.1523 38.9473 37.5547H41.0654C41.0654 37.9355 41.1533 38.2725 41.3291 38.5654C41.5107 38.8525 41.7627 39.0781 42.085 39.2422C42.4131 39.4062 42.7881 39.4883 43.21 39.4883C43.6553 39.4883 44.0391 39.4092 44.3613 39.251C44.6836 39.0928 44.9297 38.8584 45.0996 38.5479C45.2754 38.2373 45.3633 37.8623 45.3633 37.4229C45.3633 36.9248 45.2666 36.5205 45.0732 36.21C44.8799 35.8994 44.6045 35.6709 44.2471 35.5244C43.8896 35.3721 43.4678 35.2959 42.9814 35.2959H41.7158Z" fill="#7F00FF"/>
</svg>
