<svg width="70" height="70" viewBox="0 0 70 70" fill="none" xmlns="http://www.w3.org/2000/svg">
<path d="M70 35C70 54.33 54.33 70 35 70C15.67 70 0 54.33 0 35C0 15.67 15.67 0 35 0C54.33 0 70 15.67 70 35ZM7.46163 35C7.46163 50.209 19.791 62.5384 35 62.5384C50.209 62.5384 62.5384 50.209 62.5384 35C62.5384 19.791 50.209 7.46163 35 7.46163C19.791 7.46163 7.46163 19.791 7.46163 35Z" fill="#D9D9D9"/>
<path d="M35 3.73082C35 1.67034 36.6751 -0.0205733 38.7238 0.198651C43.5646 0.716626 48.2585 2.24055 52.4984 4.6882C57.8187 7.7595 62.2369 12.177 65.3091 17.4968C68.3812 22.8166 69.999 28.8513 70 34.9945C70.0008 39.8902 68.9746 44.7174 67.0037 49.169C66.1696 51.0531 63.8678 51.6588 62.0832 50.6289C60.2985 49.5991 59.7129 47.3239 60.4923 45.4165C61.8395 42.1195 62.5389 38.5809 62.5384 34.9957C62.5376 30.1622 61.2647 25.414 58.8475 21.2283C56.4303 17.0426 52.954 13.5669 48.7679 11.1504C45.6629 9.35789 42.2485 8.19503 38.7195 7.71397C36.6779 7.43566 35 5.79129 35 3.73082Z" fill="#7F00FF"/>
<path d="M27.75 28.1592V41H25.6318V30.6729L22.4941 31.7363V29.9873L27.4951 28.1592H27.75ZM37.8838 28.2031L32.9004 42.0986H31.2393L36.2314 28.2031H37.8838ZM41.7158 33.6436H42.9814C43.4736 33.6436 43.8809 33.5586 44.2031 33.3887C44.5312 33.2188 44.7744 32.9844 44.9326 32.6855C45.0908 32.3867 45.1699 32.0439 45.1699 31.6572C45.1699 31.2529 45.0967 30.9072 44.9502 30.6201C44.8096 30.3271 44.5928 30.1016 44.2998 29.9434C44.0127 29.7852 43.6465 29.7061 43.2012 29.7061C42.8262 29.7061 42.4863 29.7822 42.1816 29.9346C41.8828 30.0811 41.6455 30.292 41.4697 30.5674C41.2939 30.8369 41.2061 31.1592 41.2061 31.5342H39.0791C39.0791 30.8545 39.2578 30.251 39.6152 29.7236C39.9727 29.1963 40.459 28.7832 41.0742 28.4844C41.6953 28.1797 42.3926 28.0273 43.166 28.0273C43.9922 28.0273 44.7129 28.165 45.3281 28.4404C45.9492 28.71 46.4326 29.1143 46.7783 29.6533C47.124 30.1924 47.2969 30.8604 47.2969 31.6572C47.2969 32.0205 47.2119 32.3896 47.042 32.7646C46.8721 33.1396 46.6201 33.4824 46.2861 33.793C45.9521 34.0977 45.5361 34.3467 45.0381 34.54C44.54 34.7275 43.9629 34.8213 43.3066 34.8213H41.7158V33.6436ZM41.7158 35.2959V34.1357H43.3066C44.0566 34.1357 44.6953 34.2236 45.2227 34.3994C45.7559 34.5752 46.1895 34.8184 46.5234 35.1289C46.8574 35.4336 47.1006 35.7822 47.2529 36.1748C47.4111 36.5674 47.4902 36.9834 47.4902 37.4229C47.4902 38.0205 47.3818 38.5537 47.165 39.0225C46.9541 39.4854 46.6523 39.8779 46.2598 40.2002C45.8672 40.5225 45.4072 40.7656 44.8799 40.9297C44.3584 41.0938 43.79 41.1758 43.1748 41.1758C42.624 41.1758 42.0967 41.0996 41.5928 40.9473C41.0889 40.7949 40.6377 40.5693 40.2393 40.2705C39.8408 39.9658 39.5244 39.5879 39.29 39.1367C39.0615 38.6797 38.9473 38.1523 38.9473 37.5547H41.0654C41.0654 37.9355 41.1533 38.2725 41.3291 38.5654C41.5107 38.8525 41.7627 39.0781 42.085 39.2422C42.4131 39.4062 42.7881 39.4883 43.21 39.4883C43.6553 39.4883 44.0391 39.4092 44.3613 39.251C44.6836 39.0928 44.9297 38.8584 45.0996 38.5479C45.2754 38.2373 45.3633 37.8623 45.3633 37.4229C45.3633 36.9248 45.2666 36.5205 45.0732 36.21C44.8799 35.8994 44.6045 35.6709 44.2471 35.5244C43.8896 35.3721 43.4678 35.2959 42.9814 35.2959H41.7158Z" fill="#7F00FF"/>
</svg>
