<svg width="56" height="56" viewBox="0 0 56 56" fill="none" xmlns="http://www.w3.org/2000/svg">
<path d="M31.1731 31.8338C30.6878 31.8338 30.2904 31.7431 29.9811 31.5618C29.6718 31.3804 29.5171 31.0844 29.5171 30.6738C29.5171 30.6311 29.5171 30.5938 29.5171 30.5618C29.5224 30.5244 29.5278 30.4951 29.5331 30.4738C29.5544 30.3244 29.5998 30.1404 29.6691 29.9218C29.7384 29.7031 29.8184 29.4711 29.9091 29.2258C29.9998 28.9751 30.0878 28.7298 30.1731 28.4898C30.2584 28.2498 30.3304 28.0311 30.3891 27.8338C30.4478 27.6311 30.4771 27.4684 30.4771 27.3458C30.4771 27.2071 30.4318 27.1378 30.3411 27.1378C30.2398 27.1378 30.1144 27.2151 29.9651 27.3698C29.8158 27.5191 29.6584 27.7298 29.4931 28.0018L29.4451 27.9778C29.4451 27.6258 29.5144 27.3218 29.6531 27.0658C29.7918 26.8098 29.9758 26.5991 30.2051 26.4338C30.4344 26.2631 30.6904 26.1378 30.9731 26.0578C31.2558 25.9778 31.5411 25.9378 31.8291 25.9378C32.1864 25.9378 32.5224 25.9964 32.8371 26.1138C33.1518 26.2258 33.4078 26.3884 33.6051 26.6018C33.8078 26.8151 33.9091 27.0764 33.9091 27.3858C33.9091 27.9404 33.5704 28.3724 32.8931 28.6818C33.2931 28.7724 33.5864 28.9244 33.7731 29.1378C33.9598 29.3511 34.0531 29.5884 34.0531 29.8498C34.0531 30.0791 33.9838 30.3111 33.8451 30.5458C33.7118 30.7751 33.5198 30.9884 33.2691 31.1858C33.0184 31.3778 32.7144 31.5351 32.3571 31.6578C32.0051 31.7751 31.6104 31.8338 31.1731 31.8338ZM31.4851 28.4418C31.7304 28.4471 31.9438 28.4098 32.1251 28.3298C32.3118 28.2444 32.4558 28.1378 32.5571 28.0098C32.6638 27.8764 32.7171 27.7404 32.7171 27.6018C32.7171 27.4204 32.6211 27.2604 32.4291 27.1218C32.2371 26.9778 31.9358 26.9058 31.5251 26.9058C31.5464 27.0071 31.5598 27.1084 31.5651 27.2098C31.5758 27.3111 31.5811 27.4098 31.5811 27.5058C31.5811 27.6604 31.5704 27.8151 31.5491 27.9698C31.5331 28.1244 31.5118 28.2818 31.4851 28.4418ZM31.3971 30.8578C31.6264 30.8578 31.8291 30.8124 32.0051 30.7218C32.1811 30.6258 32.3198 30.5058 32.4211 30.3618C32.5224 30.2124 32.5731 30.0604 32.5731 29.9058C32.5731 29.6924 32.4718 29.4951 32.2691 29.3138C32.0664 29.1324 31.7491 29.0204 31.3171 28.9778C31.2958 29.1431 31.2504 29.3191 31.1811 29.5058C31.1171 29.6924 31.0558 29.8711 30.9971 30.0418C30.9384 30.2124 30.9091 30.3618 30.9091 30.4898C30.9091 30.6018 30.9438 30.6924 31.0131 30.7618C31.0824 30.8258 31.2104 30.8578 31.3971 30.8578ZM37.6021 31.8338C37.4474 31.8338 37.2688 31.8071 37.0661 31.7538C36.8634 31.7004 36.6501 31.6391 36.4261 31.5698C36.2074 31.5004 35.9861 31.4444 35.7621 31.4018C35.5861 31.5511 35.4234 31.6604 35.2741 31.7298C35.1301 31.7938 34.9994 31.8258 34.8821 31.8258C34.6848 31.8258 34.5354 31.7511 34.4341 31.6018C34.3328 31.4471 34.2821 31.2764 34.2821 31.0898C34.2821 30.9564 34.3088 30.8284 34.3621 30.7058C34.4154 30.5778 34.4928 30.4738 34.5941 30.3938C34.7008 30.3138 34.8341 30.2738 34.9941 30.2738C35.0848 30.2738 35.1861 30.2924 35.2981 30.3298C35.4154 30.3618 35.5408 30.4151 35.6741 30.4898C35.9034 30.3191 36.1008 30.1218 36.2661 29.8978C36.4314 29.6738 36.5568 29.4498 36.6421 29.2258C36.7328 28.9964 36.7781 28.7911 36.7781 28.6098C36.7781 28.4444 36.7408 28.3111 36.6661 28.2098C36.5968 28.1031 36.4928 28.0498 36.3541 28.0498C36.1888 28.0498 36.0608 28.1244 35.9701 28.2738C35.8848 28.4178 35.8421 28.5938 35.8421 28.8018C35.8421 28.9084 35.8528 29.0204 35.8741 29.1378C35.9008 29.2498 35.9408 29.3618 35.9941 29.4738C35.7114 29.4738 35.4714 29.4258 35.2741 29.3298C35.0821 29.2284 34.9354 29.1004 34.8341 28.9458C34.7328 28.7858 34.6821 28.6178 34.6821 28.4418C34.6821 28.2498 34.7434 28.0631 34.8661 27.8818C34.9941 27.7004 35.1861 27.5538 35.4421 27.4418C35.7034 27.3244 36.0314 27.2658 36.4261 27.2658C36.8101 27.2658 37.1221 27.3244 37.3621 27.4418C37.6074 27.5538 37.7861 27.7058 37.8981 27.8978C38.0154 28.0898 38.0741 28.3031 38.0741 28.5378C38.0741 28.7831 38.0154 29.0391 37.8981 29.3058C37.7808 29.5671 37.6128 29.8204 37.3941 30.0658C37.1808 30.3058 36.9221 30.5191 36.6181 30.7058C36.6928 30.7164 36.7701 30.7271 36.8501 30.7378C36.9301 30.7484 37.0101 30.7538 37.0901 30.7538C37.2874 30.7538 37.4794 30.7164 37.6661 30.6418C37.8528 30.5618 38.0314 30.4151 38.2021 30.2018C38.2981 30.2604 38.3728 30.3511 38.4261 30.4738C38.4794 30.5964 38.5061 30.7298 38.5061 30.8738C38.5061 31.0231 38.4741 31.1724 38.4101 31.3218C38.3461 31.4711 38.2474 31.5938 38.1141 31.6898C37.9808 31.7858 37.8101 31.8338 37.6021 31.8338ZM40.0902 31.8178C39.7969 31.8178 39.5516 31.6951 39.3542 31.4498C39.1569 31.2044 39.0582 30.8684 39.0582 30.4418C39.0582 30.2231 39.0822 29.9778 39.1302 29.7058C39.1782 29.4284 39.2342 29.1484 39.2982 28.8658C39.3622 28.5831 39.4182 28.3191 39.4662 28.0738C39.5142 27.8231 39.5382 27.6151 39.5382 27.4498C39.5382 27.3324 39.5222 27.2418 39.4902 27.1778C39.4582 27.1084 39.3996 27.0738 39.3142 27.0738C39.2502 27.0738 39.1756 27.1031 39.0902 27.1618C39.0049 27.2204 38.9409 27.3351 38.8982 27.5058L38.8182 27.4738C38.8182 27.0151 38.9222 26.6524 39.1302 26.3858C39.3436 26.1191 39.6289 25.9858 39.9862 25.9858C40.3222 25.9858 40.5542 26.0951 40.6822 26.3138C40.8156 26.5324 40.8822 26.8071 40.8822 27.1378C40.8822 27.3831 40.8556 27.6444 40.8022 27.9218C40.7542 28.1991 40.6982 28.4764 40.6342 28.7538C40.5702 29.0258 40.5116 29.2791 40.4582 29.5138C40.4102 29.7484 40.3862 29.9431 40.3862 30.0978C40.3862 30.3271 40.4449 30.4418 40.5622 30.4418C40.6316 30.4418 40.7249 30.3938 40.8422 30.2978C40.9596 30.1964 41.0822 30.0604 41.2102 29.8898C41.3436 29.7138 41.4716 29.5164 41.5942 29.2978C41.7169 29.0738 41.8209 28.8391 41.9062 28.5938C41.8956 28.4764 41.8876 28.3644 41.8822 28.2578C41.8769 28.1458 41.8742 28.0471 41.8742 27.9618C41.8742 27.5351 41.9142 27.1911 41.9942 26.9298C42.0796 26.6684 42.1862 26.4764 42.3142 26.3538C42.4422 26.2311 42.5729 26.1698 42.7062 26.1698C42.8929 26.1698 43.0609 26.2738 43.2102 26.4818C43.3596 26.6844 43.4342 26.9618 43.4342 27.3138C43.4342 27.5324 43.3942 27.7778 43.3142 28.0498C43.2342 28.3164 43.1009 28.6018 42.9142 28.9058C42.8982 29.3644 42.9489 29.7351 43.0662 30.0178C43.1836 30.3004 43.3302 30.4418 43.5062 30.4418C43.6182 30.4418 43.7382 30.3858 43.8662 30.2738C43.9996 30.1564 44.1222 29.9964 44.2342 29.7938C44.3462 29.5858 44.4369 29.3458 44.5062 29.0738C44.5809 28.8018 44.6182 28.5111 44.6182 28.2018C44.6182 28.0204 44.6049 27.8311 44.5782 27.6338C44.5569 27.4364 44.5276 27.2471 44.4902 27.0658C44.4582 26.8844 44.4236 26.7351 44.3862 26.6178C44.3862 26.5271 44.4236 26.4364 44.4982 26.3458C44.5782 26.2498 44.6796 26.1698 44.8022 26.1058C44.9249 26.0364 45.0502 26.0018 45.1782 26.0018C45.3062 26.0018 45.4289 26.0471 45.5462 26.1378C45.6636 26.2284 45.7596 26.3884 45.8342 26.6178C45.9089 26.8418 45.9462 27.1618 45.9462 27.5778C45.9462 28.1591 45.8716 28.7058 45.7222 29.2178C45.5729 29.7244 45.3702 30.1724 45.1142 30.5618C44.8636 30.9511 44.5862 31.2578 44.2822 31.4818C43.9782 31.7004 43.6689 31.8098 43.3542 31.8098C43.0769 31.8098 42.8476 31.7244 42.6662 31.5538C42.4849 31.3831 42.3436 31.1538 42.2422 30.8658C42.1409 30.5778 42.0689 30.2578 42.0262 29.9058C41.8342 30.3644 41.6262 30.7351 41.4022 31.0178C41.1782 31.2951 40.9542 31.4978 40.7302 31.6258C40.5062 31.7538 40.2929 31.8178 40.0902 31.8178Z" fill="#7F00FF"/>
<path d="M15.3762 27.7374C15.3385 27.7367 15.3008 27.7361 15.2231 27.739C14.6687 27.8037 14.1548 27.8708 13.6399 27.9238C13.0804 27.9814 12.9747 27.883 12.8493 27.2335C12.5895 25.8876 12.3301 24.5416 12.0686 23.1961C11.9445 22.5574 11.8174 21.9194 11.6894 21.2817C11.5755 20.7145 11.4585 20.1483 11.3364 19.5499C11.0086 19.5576 10.7767 19.8309 10.5405 20.1001C10.3803 20.2826 10.3303 20.4914 10.3827 20.7489C10.8069 22.8339 11.2311 24.9187 11.6485 27.0055C11.8125 27.8252 11.9621 28.6512 12.0985 29.4727C12.0492 29.4619 12.0704 29.5551 12.0484 29.5324C11.7156 29.9222 11.8474 29.9653 11.7716 30.0974C11.7279 30.1735 11.6997 29.7829 11.7231 29.8908C12.0234 29.4129 11.7332 29.9957 11.7716 30.0974C11.3858 30.7191 11.0047 31.3216 10.6383 31.9012C10.636 31.8767 10.6365 31.7911 10.619 31.7113C10.4392 30.8923 10.2478 30.0769 10.0768 29.2554C9.85584 28.194 9.65487 27.1268 9.43767 26.0643C9.07891 24.3096 8.69688 22.5613 8.35925 20.8008C8.19802 19.9599 8.33332 19.1793 8.92384 18.5842C9.24801 18.2574 9.56647 17.9224 9.88187 17.5837C9.96176 17.4979 10.0203 17.3838 10.1072 17.2855C10.6254 17.0836 10.6251 17.1128 10.5285 16.5534C10.479 16.2669 10.4247 15.9816 10.3909 15.6846C10.9658 15.6267 11.5222 15.58 12.099 15.5411C12.6785 15.599 12.7345 15.6177 12.8866 16.2846C13.2317 17.7974 13.5462 19.3201 13.8756 20.838C13.971 21.2775 14.0749 21.7145 14.1747 22.177C14.1888 22.3384 14.1967 22.4768 14.2185 22.6119C14.3018 23.1268 14.3896 23.6405 14.4753 24.1789C14.5514 24.59 14.628 24.9769 14.7092 25.3873C15.0985 25.3361 15.4839 25.2874 15.8689 25.2343C16.3919 25.1623 16.9145 25.087 17.4531 25.0119C17.4891 25.005 17.5093 24.9993 17.5502 24.9974C17.6904 24.9805 17.8101 24.9599 17.9542 24.9433C17.9946 24.9419 18.0104 24.9364 18.0437 24.935C18.1543 24.9262 18.2473 24.9134 18.3584 24.9006C18.4111 24.8921 18.4459 24.8836 18.5027 24.879C19.3174 24.7992 20.1106 24.7212 20.9026 24.6301C21.4717 24.5648 22.0388 24.4734 22.6081 24.4104C22.9633 24.3711 23.3208 24.3517 23.6775 24.3446C23.9934 24.3383 24.2496 24.4708 24.4117 24.83C24.6306 25.3148 24.8709 25.7859 25.1014 26.2632C26.2494 28.6402 27.3966 31.0178 28.5455 33.3941C28.7901 33.9001 29.0408 34.4019 29.2935 34.9154C29.1939 34.9765 29.1157 35.0244 29.0374 35.0723C29.0374 35.0723 29.0138 35.0794 28.9888 35.0845C28.9399 35.1084 28.916 35.1273 28.8921 35.1462C28.517 35.2944 28.1433 35.4483 27.7659 35.5878C27.6263 35.6393 27.4778 35.6566 27.3031 35.674C27.2469 35.6428 27.2209 35.6271 27.1948 35.6115C26.4286 34.0195 25.6637 32.4267 24.8957 30.836C24.3307 29.6658 23.7501 28.506 23.2006 27.3255C23.0148 26.9263 22.7718 26.8063 22.3819 26.8941C20.99 27.049 19.6382 27.1964 18.2873 27.3546C17.6167 27.433 16.9478 27.5312 16.2781 27.6205C16.157 27.6329 16.036 27.6453 15.8745 27.6639C15.6814 27.6926 15.5289 27.715 15.3762 27.7374Z" fill="#7F00FF"/>
<path d="M19.532 29.0844C19.5467 29.0637 19.5827 29.2392 19.5571 29.1442C19.532 29.1143 19.5821 29.1143 19.5821 29.1143C19.6233 29.1754 19.6127 29.1394 19.6661 29.169C20.1092 29.4139 20.5642 29.6297 20.9995 29.8923C21.2564 30.0474 21.4842 30.2714 21.7441 30.4585C21.7631 30.4526 21.7648 30.4575 21.7648 30.4575C21.9255 30.6389 22.0887 30.8172 22.2464 31.0023C23.7822 32.8035 24.4909 34.9757 24.3001 37.5479C24.1542 39.5149 23.4712 41.1876 22.3372 42.6092C22.2288 42.745 22.106 42.8642 21.9696 43.0145C21.9262 43.0706 21.9029 43.1034 21.8633 43.144C21.8123 43.1777 21.7751 43.2001 21.7432 43.2304C20.4043 44.5007 18.8781 45.0763 17.1722 44.9897C17.0906 44.9855 17.0083 45.0027 16.9161 45.0059C16.8912 44.9993 16.8773 45.0022 16.8641 45.0105C16.7148 44.9876 16.5654 44.9646 16.3927 44.9209C16.3394 44.8936 16.3093 44.8873 16.2792 44.8809C15.8791 44.7485 15.4776 44.6215 15.0796 44.4807C14.9385 44.4307 14.8057 44.3471 14.644 44.2571C14.5563 44.2095 14.4938 44.1836 14.4312 44.1578C14.4312 44.1578 14.429 44.1633 14.4253 44.141C13.6584 43.6669 13.0003 43.0412 12.4399 42.288C11.3748 40.8563 10.83 39.1419 10.6888 37.2549C10.6437 36.652 10.6959 36.0225 10.7905 35.4248C10.9382 34.4916 11.2111 33.6016 11.6353 32.7828C12.1275 31.8327 12.721 31.0004 13.4813 30.3396C14.2668 29.6567 15.1444 29.2239 16.0784 28.9361C16.183 28.918 16.2876 28.8999 16.4313 28.8756C17.2076 28.7154 17.9445 28.7723 18.6814 28.8713C18.8851 28.9284 19.0888 28.9855 19.3242 29.0494C19.3647 29.0552 19.3735 29.054 19.3916 29.0617C19.4341 29.0804 19.4673 29.0902 19.5087 29.1036C19.526 29.1077 19.5266 29.0929 19.532 29.0844ZM18.2741 42.9537C20.4268 42.4842 21.8754 41.0228 22.4553 38.501C23.5624 33.6863 19.8841 29.8427 16.307 30.9108C12.8889 31.9314 11.2935 36.5693 13.1771 40.0752C14.3472 42.253 16.0647 43.1964 18.2741 42.9537Z" fill="#7F00FF"/>
<path d="M24.0426 42.387C24.0645 42.3083 24.0769 42.2234 24.1096 42.1518C24.4194 41.4733 24.7404 40.8019 25.0397 40.117C25.1201 39.933 25.2027 39.8013 25.366 39.708C28.2782 38.0434 31.3144 36.833 34.4923 36.1372C34.8679 36.0549 35.244 35.9754 35.6526 35.8857C35.7069 35.8705 35.7287 35.8644 35.7504 35.8582C36.4887 35.7463 37.2269 35.6343 38.0009 35.518C38.0587 35.5088 38.0809 35.504 38.103 35.4991C38.6561 35.4559 39.2089 35.4103 39.7621 35.3704C40.077 35.3477 40.3925 35.3345 40.7436 35.3165C40.8218 35.3116 40.8641 35.3073 40.9063 35.303C41.373 35.3045 41.8403 35.2877 42.3062 35.311C43.3938 35.3656 44.4807 35.4394 45.6062 35.506C45.6669 35.5045 45.6893 35.5023 45.7116 35.5001C46.3713 35.5986 47.0309 35.6971 47.6992 35.7969C47.6992 36.3765 47.6992 36.9387 47.6992 37.561C47.4398 37.516 47.1884 37.4724 46.9065 37.4264C46.8669 37.426 46.8578 37.4281 46.8329 37.4229C46.3939 37.3751 45.9708 37.3341 45.5476 37.2944C45.1199 37.2542 44.6923 37.2117 44.2643 37.1769C43.9305 37.1496 43.596 37.1348 43.2622 37.1102C42.9437 37.0867 42.6254 37.0577 42.2844 37.0239C41.9102 37.0203 41.5587 37.024 41.1886 37.0213C41.1317 37.0213 41.0936 37.0276 41.0361 37.0267C40.9119 37.0283 40.8072 37.037 40.7024 37.0457C40.0762 37.0837 39.4493 37.1093 38.824 37.1635C38.303 37.2086 37.7826 37.2748 37.2643 37.3541C36.6439 37.4491 36.0215 37.5406 35.408 37.6825C34.4061 37.9145 33.4106 38.1861 32.3863 38.4631C32.3389 38.4865 32.3177 38.4876 32.2762 38.4877C31.7833 38.6453 31.3078 38.7931 30.8389 38.9667C30.5182 39.0854 30.2067 39.2403 29.8744 39.381C29.8364 39.3857 29.8151 39.3882 29.7938 39.3907C29.3065 39.5953 28.8062 39.7643 28.3344 40.0112C27.0953 40.6596 25.868 41.34 24.6378 42.0128C24.4443 42.1185 24.261 42.2508 24.0567 42.3757C24.0403 42.3806 24.0426 42.387 24.0426 42.387Z" fill="#7F00FF"/>
<path d="M30.1506 35.5877C30.4534 35.4867 30.7562 35.3857 31.0931 35.277C31.1664 35.2486 31.2057 35.2278 31.2449 35.207C32.0434 34.9841 32.8359 34.7223 33.6417 34.5472C34.8771 34.2787 36.1175 34.0294 37.3636 33.8484C38.3508 33.705 39.3487 33.6487 40.3435 33.604C41.4158 33.5558 42.4907 33.5318 43.5633 33.561C44.5322 33.5874 45.4995 33.7 46.5113 33.7755C46.8245 33.7986 47.0939 33.821 47.3633 33.8433C47.4139 33.8563 47.4644 33.8692 47.5475 33.8851C47.6078 33.8853 47.6356 33.8826 47.6633 33.88C47.6835 34.187 47.7036 34.494 47.7252 34.8215C47.6162 34.8319 47.5362 34.8395 47.419 34.8466C47.36 34.8429 47.3385 34.84 47.317 34.8369C47.0605 34.8006 46.804 34.7642 46.5116 34.7283C46.439 34.7255 46.4021 34.7223 46.3653 34.7191C46.2114 34.7013 46.0575 34.6836 45.8783 34.6449C45.8225 34.6194 45.7919 34.6149 45.7613 34.6103C45.4241 34.5898 45.0868 34.5693 44.7103 34.5489C44.6183 34.5463 44.5655 34.5433 44.5128 34.5403C44.3718 34.5157 44.2309 34.4724 44.0896 34.4701C43.7766 34.4648 43.4635 34.4801 43.125 34.4665C43.0691 34.443 43.0387 34.4402 43.0083 34.4373C42.4563 34.4316 41.9042 34.4258 41.3094 34.4217C41.2132 34.4274 41.1597 34.4317 41.1062 34.4359C40.1676 34.489 39.2281 34.5246 38.2908 34.6011C37.6423 34.6541 36.9946 34.744 36.3508 34.8528C35.709 34.9613 35.0725 35.1138 34.3988 35.2549C34.3246 35.2811 34.2852 35.2996 34.2458 35.3181C33.6273 35.4694 33.0036 35.5961 32.391 35.7765C30.0591 36.4634 27.8049 37.421 25.6146 38.5952C25.5638 38.6225 25.5097 38.6412 25.4307 38.6753C25.4869 38.3607 25.5246 38.0668 25.5981 37.7862C25.6221 37.6945 25.7301 37.6085 25.8155 37.569C27.2127 36.9246 28.6125 36.2881 30.0425 35.6431C30.0991 35.6201 30.1249 35.6039 30.1506 35.5877Z" fill="#7F00FF"/>
<path d="M12.4217 13.2609C11.8609 14.351 10.9461 14.6129 10.0178 13.9735C9.98957 13.9541 9.95668 13.9442 9.90898 13.9336C9.84491 13.8597 9.80401 13.7754 9.7499 13.7054C8.98584 12.7179 9.27341 11.046 10.3074 10.5367C10.9187 10.2356 11.4999 10.3401 11.9899 10.8759C12.5048 11.439 12.6586 12.1531 12.5 12.9623C12.4816 13.0561 12.4482 13.1457 12.4217 13.2609Z" fill="#7F00FF"/>
<path d="M18.2366 38.0894C17.6729 38.4771 17.0982 38.4547 16.6823 38.0422C16.2403 37.6038 16.088 36.9445 16.293 36.3559C16.5187 35.7074 17.0398 35.3312 17.627 35.3926C18.157 35.4481 18.6212 35.9424 18.7347 36.5854C18.8439 37.2042 18.665 37.696 18.2366 38.0894Z" fill="#7F00FF"/>
<path fill-rule="evenodd" clip-rule="evenodd" d="M28 55C42.9117 55 55 42.9117 55 28C55 13.0883 42.9117 1 28 1C13.0883 1 1 13.0883 1 28C1 42.9117 13.0883 55 28 55ZM28 56C43.464 56 56 43.464 56 28C56 12.536 43.464 0 28 0C12.536 0 0 12.536 0 28C0 43.464 12.536 56 28 56Z" fill="#7F00FF"/>
</svg>
